<svg width="20" height="20" viewBox="0 0 20 20" fill="none" xmlns="http://www.w3.org/2000/svg">
<path d="M7.81328 12.3432L8.16683 12.6958L8.51989 12.3427L14.2059 6.65667L14.7938 7.24873L8.16634 13.8762L4.29011 9.99998L4.876 9.41409L7.81328 12.3432ZM1.33301 9.99998C1.33301 5.21612 5.21582 1.33331 9.99967 1.33331C14.7835 1.33331 18.6663 5.21612 18.6663 9.99998C18.6663 14.7838 14.7835 18.6666 9.99967 18.6666C5.21582 18.6666 1.33301 14.7838 1.33301 9.99998ZM2.16634 9.99998C2.16634 14.3278 5.67186 17.8333 9.99967 17.8333C14.3275 17.8333 17.833 14.3278 17.833 9.99998C17.833 5.67217 14.3275 2.16665 9.99967 2.16665C5.67186 2.16665 2.16634 5.67217 2.16634 9.99998Z" fill="#1FB356" stroke="#1FB356"/>
</svg>
