<svg width="260" height="179" viewBox="0 0 260 179" fill="none" xmlns="http://www.w3.org/2000/svg">
<g filter="url(#filter0_d_2578_571)">
<rect x="19" y="15.2782" width="222.253" height="140.735" rx="12.9" fill="white"/>
</g>
<rect x="19" y="38.0287" width="222.253" height="107.932" rx="2.90487" fill="#F9F8FE"/>
<g filter="url(#filter1_d_2578_571)">
<rect x="150.233" y="48.6102" width="74.0843" height="48.6751" rx="2.90487" fill="white"/>
</g>
<path d="M189.478 63.5235C187.291 63.0587 185.012 63.2981 182.969 64.2075C180.926 65.117 179.223 66.6497 178.105 68.5861C176.987 70.5225 176.511 72.7631 176.745 74.9868C176.978 77.2106 177.91 79.3032 179.407 80.9648C180.903 82.6265 182.887 83.7718 185.075 84.2367C187.262 84.7016 189.541 84.4621 191.584 83.5527C193.627 82.6432 195.329 81.1105 196.447 79.1741C197.566 77.2377 198.042 74.9971 197.808 72.7734L187.276 73.8801L189.478 63.5235Z" fill="#0E0E0E"/>
<path d="M191.902 61.5525C194.232 62.0877 196.332 63.3466 197.903 65.1488C199.473 66.951 200.432 69.204 200.643 71.5848L189.367 72.5832L191.902 61.5525Z" fill="#78FFB6"/>
<g filter="url(#filter2_d_2578_571)">
<rect x="150.233" y="108.396" width="74.0843" height="24.3376" rx="2.90487" fill="white"/>
</g>
<rect x="155.525" y="115.274" width="63.5009" height="3.17447" rx="1.58723" fill="#B4B6C4"/>
<rect x="155.525" y="122.681" width="63.5009" height="3.17447" rx="1.58723" fill="#B4B6C4"/>
<rect x="53.9248" y="121.623" width="85.7262" height="3.17447" rx="1.58723" fill="#B4B6C4"/>
<rect x="35.9336" y="121.623" width="12.7002" height="3.17447" rx="1.58723" fill="#B4B6C4"/>
<rect x="53.9248" y="129.03" width="85.7262" height="3.17446" rx="1.58723" fill="#B4B6C4"/>
<rect x="35.9336" y="129.03" width="12.7002" height="3.17446" rx="1.58723" fill="#B4B6C4"/>
<g filter="url(#filter3_d_2578_571)">
<rect x="35.9336" y="48.6105" width="103.718" height="59.7858" rx="2.90487" fill="white"/>
</g>
<line opacity="0.3" x1="44.1161" y1="99.6887" x2="130.416" y2="99.6887" stroke="#B4B6C4" stroke-width="0.484145" stroke-linecap="round"/>
<line opacity="0.2" x1="44.1161" y1="88.9747" x2="130.416" y2="88.9747" stroke="#B4B6C4" stroke-width="0.484145" stroke-linecap="round"/>
<line opacity="0.2" x1="44.1161" y1="78.2608" x2="130.416" y2="78.2608" stroke="#B4B6C4" stroke-width="0.484145" stroke-linecap="round"/>
<line opacity="0.2" x1="44.1161" y1="67.5472" x2="130.416" y2="67.5472" stroke="#B4B6C4" stroke-width="0.484145" stroke-linecap="round"/>
<line opacity="0.2" x1="44.1161" y1="56.8332" x2="130.416" y2="56.8332" stroke="#B4B6C4" stroke-width="0.484145" stroke-linecap="round"/>
<path opacity="0.4" d="M55.8944 90.7185C52.5051 90.7185 47.0774 91.1043 44.4004 99.9304H130.656V57.0751C127.405 57.0751 121.445 67.4255 117.994 67.4255C114.814 67.4255 112.273 71.834 110.97 71.834C109.791 71.834 107.593 68.1922 106.709 68.1922C105.825 68.1922 106.033 77.902 104.265 77.902C103.086 77.902 101.699 71.834 99.7829 71.834C97.8672 71.834 96.4566 79.1246 94.8463 79.1246C90.5729 79.1246 90.9413 87.5144 88.1415 87.5144C85.7837 87.5144 87.2819 74.2974 84.6294 74.2973C81.2402 74.2973 81.9524 65.5087 79.742 65.5087C76.9422 65.5087 79.939 79.1246 75.3704 79.1246C71.6864 79.1246 70.8069 83.8846 68.8252 83.9097C66.8434 83.9349 64.1219 79.1246 62.3536 79.1246C59.7012 79.1246 58.8416 90.7185 55.8944 90.7185Z" fill="url(#paint0_linear_2578_571)"/>
<path d="M44.9287 99.9304C47.6057 91.1043 53.0335 90.7185 56.4227 90.7185C59.3699 90.7185 60.2295 79.1246 62.8819 79.1246C64.6503 79.1246 67.3717 83.9349 69.3535 83.9097C71.3352 83.8846 72.2147 79.1246 75.8987 79.1246C80.4674 79.1246 77.4705 65.5087 80.2703 65.5087C82.4807 65.5087 81.7685 74.2973 85.1577 74.2974C87.8102 74.2974 86.3121 87.5144 88.6698 87.5144C91.4696 87.5144 91.1012 79.1246 95.3746 79.1246C96.9849 79.1246 98.3955 71.834 100.311 71.834C102.227 71.834 103.614 77.902 104.793 77.902C106.562 77.902 106.353 68.1922 107.237 68.1922C108.121 68.1922 110.319 71.834 111.498 71.834C112.802 71.834 115.343 67.4255 118.522 67.4255C121.974 67.4255 127.404 57.0751 130.655 57.0751" stroke="#6241D4" stroke-width="0.968289" stroke-linecap="round" stroke-linejoin="round"/>
<ellipse cx="71.9155" cy="81.9419" rx="2.1167" ry="2.11631" fill="#6241D4"/>
<path d="M72.2254 77.4517C72.0459 77.6012 71.7852 77.6012 71.6056 77.4517L67.6205 74.1313C66.9247 73.5516 67.3346 72.4191 68.2403 72.4191L75.5908 72.4191C76.4965 72.4191 76.9064 73.5516 76.2106 74.1313L72.2254 77.4517Z" fill="#0E0E0E"/>
<rect x="53.3955" y="57.6046" width="37.0422" height="17.9886" rx="1.93658" fill="#0E0E0E"/>
<rect opacity="0.4" x="57.6279" y="70.3025" width="14.8169" height="1.58723" rx="0.793616" fill="white"/>
<path d="M60.1222 62.0616C59.9957 62.5134 59.7743 63.0467 59.458 63.6612C59.1417 64.2712 58.8548 64.7276 58.5972 65.0304H60.1561V63.6815C60.3098 63.3788 60.4318 63.0692 60.5221 62.7529H60.8204V65.0304H61.4101V65.6336H60.8204V66.7791H60.1561V65.6336H57.9668V65.0236C58.5814 64.1018 59.0626 63.1144 59.4106 62.0616H60.1222ZM63.9195 62.0616C64.2042 62.0616 64.464 62.1294 64.699 62.2649C64.9385 62.4005 65.1283 62.588 65.2684 62.8275C65.4084 63.067 65.4785 63.3358 65.4785 63.6341V65.2811C65.4785 65.5749 65.4107 65.8415 65.2751 66.0809C65.1396 66.3159 64.952 66.5034 64.7126 66.6435C64.4776 66.7791 64.2132 66.8469 63.9195 66.8469H63.8314C63.5332 66.8469 63.2643 66.7791 63.0248 66.6435C62.7899 66.5034 62.6068 66.3137 62.4758 66.0742C62.3448 65.8347 62.2792 65.5703 62.2792 65.2811V63.6341C62.2792 63.3313 62.347 63.0602 62.4826 62.8207C62.6227 62.5812 62.8102 62.396 63.0452 62.2649C63.2801 62.1294 63.5422 62.0616 63.8314 62.0616H63.9195ZM63.8789 62.6648C63.6168 62.6648 63.3954 62.7529 63.2146 62.9292C63.0339 63.1009 62.9435 63.3178 62.9435 63.5799V65.3286C62.9435 65.5907 63.0339 65.8098 63.2146 65.9861C63.3954 66.1578 63.6168 66.2436 63.8789 66.2436C64.15 66.2436 64.3737 66.1555 64.5499 65.9793C64.7261 65.803 64.8142 65.5862 64.8142 65.3286V63.5799C64.8142 63.3223 64.7261 63.1054 64.5499 62.9292C64.3737 62.7529 64.15 62.6648 63.8789 62.6648ZM69.9874 62.1294L67.1678 66.7791H66.6933L69.5265 62.1294H69.9874ZM67.039 62.1361C67.2785 62.1361 67.4751 62.2152 67.6287 62.3734C67.7823 62.527 67.8591 62.7213 67.8591 62.9563V63.6815C67.8591 63.9165 67.7801 64.1131 67.6219 64.2712C67.4683 64.4248 67.274 64.5017 67.039 64.5017H66.9916C66.7566 64.5017 66.56 64.4248 66.4019 64.2712C66.2482 64.1131 66.1714 63.9165 66.1714 63.6815V62.9563C66.1714 62.7213 66.2482 62.527 66.4019 62.3734C66.5555 62.2152 66.7521 62.1361 66.9916 62.1361H67.039ZM67.0187 62.5089C66.8921 62.5089 66.7905 62.5473 66.7137 62.6242C66.6414 62.6965 66.6052 62.7913 66.6052 62.9088V63.729C66.6052 63.8465 66.6414 63.9436 66.7137 64.0204C66.7905 64.0927 66.8921 64.1289 67.0187 64.1289C67.1452 64.1289 67.2446 64.0927 67.3169 64.0204C67.3892 63.9436 67.4254 63.8465 67.4254 63.729V62.9088C67.4254 62.7913 67.3892 62.6965 67.3169 62.6242C67.2446 62.5473 67.1452 62.5089 67.0187 62.5089ZM69.6824 64.4203C69.9174 64.4203 70.1117 64.4994 70.2653 64.6576C70.4235 64.8112 70.5026 65.0055 70.5026 65.2405V65.9657C70.5026 66.2007 70.4258 66.3973 70.2721 66.5554C70.1185 66.709 69.9219 66.7859 69.6824 66.7859H69.635C69.3955 66.7859 69.1989 66.709 69.0453 66.5554C68.8917 66.3973 68.8148 66.2007 68.8148 65.9657V65.2405C68.8148 65.0055 68.8917 64.8112 69.0453 64.6576C69.2035 64.4994 69.4 64.4203 69.635 64.4203H69.6824ZM69.6621 64.7931C69.5356 64.7931 69.4339 64.8315 69.3571 64.9083C69.2848 64.9806 69.2486 65.0755 69.2486 65.193V66.0132C69.2486 66.1307 69.2848 66.2278 69.3571 66.3046C69.4339 66.3769 69.5356 66.4131 69.6621 66.4131C69.7886 66.4131 69.888 66.3769 69.9603 66.3046C70.0326 66.2278 70.0688 66.1307 70.0688 66.0132V65.193C70.0688 65.0755 70.0326 64.9806 69.9603 64.9083C69.888 64.8315 69.7886 64.7931 69.6621 64.7931Z" fill="white"/>
<ellipse cx="82.504" cy="66.07" rx="3.70422" ry="3.70354" fill="white"/>
<path d="M82.7766 65.1405C82.6368 64.9911 82.373 64.9911 82.2332 65.1405L80.8469 66.6207C80.6622 66.8178 80.8248 67.1117 81.1186 67.1117L83.8912 67.1117C84.185 67.1117 84.3476 66.8178 84.1629 66.6207L82.7766 65.1405Z" fill="#38E7B2"/>
<ellipse cx="32.2289" cy="26.918" rx="2.64587" ry="2.64539" fill="#D280FF"/>
<ellipse cx="43.8715" cy="26.918" rx="2.64587" ry="2.64539" fill="#FFDC60"/>
<ellipse cx="55.5111" cy="26.918" rx="2.64587" ry="2.64539" fill="#38E7B2"/>
<defs>
<filter id="filter0_d_2578_571" x="0.602507" y="0.753893" width="259.048" height="177.53" filterUnits="userSpaceOnUse" color-interpolation-filters="sRGB">
<feFlood flood-opacity="0" result="BackgroundImageFix"/>
<feColorMatrix in="SourceAlpha" type="matrix" values="0 0 0 0 0 0 0 0 0 0 0 0 0 0 0 0 0 0 127 0" result="hardAlpha"/>
<feMorphology radius="0.968289" operator="erode" in="SourceAlpha" result="effect1_dropShadow_2578_571"/>
<feOffset dy="3.87316"/>
<feGaussianBlur stdDeviation="9.68289"/>
<feColorMatrix type="matrix" values="0 0 0 0 0.0235294 0 0 0 0 0.0470588 0 0 0 0 0.231373 0 0 0 0.08 0"/>
<feBlend mode="normal" in2="BackgroundImageFix" result="effect1_dropShadow_2578_571"/>
<feBlend mode="normal" in="SourceGraphic" in2="effect1_dropShadow_2578_571" result="shape"/>
</filter>
<filter id="filter1_d_2578_571" x="140.551" y="41.8322" width="93.4498" height="68.0409" filterUnits="userSpaceOnUse" color-interpolation-filters="sRGB">
<feFlood flood-opacity="0" result="BackgroundImageFix"/>
<feColorMatrix in="SourceAlpha" type="matrix" values="0 0 0 0 0 0 0 0 0 0 0 0 0 0 0 0 0 0 127 0" result="hardAlpha"/>
<feOffset dy="2.90487"/>
<feGaussianBlur stdDeviation="4.84145"/>
<feColorMatrix type="matrix" values="0 0 0 0 0.11 0 0 0 0 0.14137 0 0 0 0 0.4125 0 0 0 0.05 0"/>
<feBlend mode="normal" in2="BackgroundImageFix" result="effect1_dropShadow_2578_571"/>
<feBlend mode="normal" in="SourceGraphic" in2="effect1_dropShadow_2578_571" result="shape"/>
</filter>
<filter id="filter2_d_2578_571" x="140.551" y="101.618" width="93.4498" height="43.7034" filterUnits="userSpaceOnUse" color-interpolation-filters="sRGB">
<feFlood flood-opacity="0" result="BackgroundImageFix"/>
<feColorMatrix in="SourceAlpha" type="matrix" values="0 0 0 0 0 0 0 0 0 0 0 0 0 0 0 0 0 0 127 0" result="hardAlpha"/>
<feOffset dy="2.90487"/>
<feGaussianBlur stdDeviation="4.84145"/>
<feColorMatrix type="matrix" values="0 0 0 0 0.11 0 0 0 0 0.14137 0 0 0 0 0.4125 0 0 0 0.05 0"/>
<feBlend mode="normal" in2="BackgroundImageFix" result="effect1_dropShadow_2578_571"/>
<feBlend mode="normal" in="SourceGraphic" in2="effect1_dropShadow_2578_571" result="shape"/>
</filter>
<filter id="filter3_d_2578_571" x="26.2507" y="41.8324" width="123.084" height="79.1515" filterUnits="userSpaceOnUse" color-interpolation-filters="sRGB">
<feFlood flood-opacity="0" result="BackgroundImageFix"/>
<feColorMatrix in="SourceAlpha" type="matrix" values="0 0 0 0 0 0 0 0 0 0 0 0 0 0 0 0 0 0 127 0" result="hardAlpha"/>
<feOffset dy="2.90487"/>
<feGaussianBlur stdDeviation="4.84145"/>
<feColorMatrix type="matrix" values="0 0 0 0 0.11 0 0 0 0 0.14137 0 0 0 0 0.4125 0 0 0 0.05 0"/>
<feBlend mode="normal" in2="BackgroundImageFix" result="effect1_dropShadow_2578_571"/>
<feBlend mode="normal" in="SourceGraphic" in2="effect1_dropShadow_2578_571" result="shape"/>
</filter>
<linearGradient id="paint0_linear_2578_571" x1="87.5281" y1="44.4226" x2="87.5281" y2="99.9304" gradientUnits="userSpaceOnUse">
<stop stop-color="#9374FF"/>
<stop offset="1" stop-color="#9374FF" stop-opacity="0"/>
</linearGradient>
</defs>
</svg>
