<svg width="260" height="213" viewBox="0 0 260 213" fill="none" xmlns="http://www.w3.org/2000/svg">
<g filter="url(#filter0_d_2578_570)">
<rect x="28" y="22" width="204" height="158" rx="15.5523" fill="white"/>
</g>
<path d="M54.6112 43.9958C54.6112 44.7137 54.4547 45.3361 54.1416 45.863C53.8285 46.39 53.4046 46.7909 52.8701 47.0658C52.3431 47.3407 51.7551 47.4782 51.1059 47.4782C50.4568 47.4782 49.865 47.3407 49.3304 47.0658C48.8034 46.7909 48.3834 46.39 48.0703 45.863C47.7572 45.3361 47.6006 44.7137 47.6006 43.9958V42.8732C47.6006 42.1553 47.7572 41.5329 48.0703 41.006C48.3834 40.479 48.8034 40.0781 49.3304 39.8032C49.865 39.5283 50.4568 39.3908 51.1059 39.3908C51.7551 39.3908 52.3431 39.5283 52.8701 39.8032C53.4046 40.0781 53.8285 40.479 54.1416 41.006C54.4547 41.5329 54.6112 42.1553 54.6112 42.8732V43.9958ZM52.7555 42.6212C52.7555 42.0408 52.6028 41.594 52.2973 41.2809C51.9918 40.9602 51.5947 40.7998 51.1059 40.7998C50.6172 40.7998 50.2201 40.9602 49.9146 41.2809C49.6091 41.594 49.4564 42.0408 49.4564 42.6212V44.2478C49.4564 44.8282 49.6091 45.2788 49.9146 45.5995C50.2201 45.9126 50.6172 46.0692 51.1059 46.0692C51.5947 46.0692 51.9918 45.9126 52.2973 45.5995C52.6028 45.2788 52.7555 44.8282 52.7555 44.2478V42.6212ZM57.3491 42.3692C57.8303 41.72 58.4527 41.3955 59.2163 41.3955C59.812 41.3955 60.3008 41.5558 60.6826 41.8766C61.0721 42.1973 61.2668 42.6632 61.2668 43.2741V47.3636H59.5944V43.6407C59.5944 43.3429 59.5065 43.0985 59.3309 42.9076C59.1629 42.709 58.9452 42.6097 58.678 42.6097C58.3801 42.6097 58.1243 42.7243 57.9105 42.9534C57.6966 43.1748 57.5897 43.446 57.5897 43.7667V47.3636H55.9172V41.51H57.1659L57.3491 42.3692ZM68.1821 45.1757C68.1821 45.6874 68.06 46.1188 67.8156 46.4701C67.5712 46.8138 67.2466 47.0696 66.8419 47.2376C66.4448 47.398 66.0095 47.4782 65.536 47.4782H65.3527C64.8105 47.4782 64.3217 47.3636 63.8864 47.1345C63.4511 46.9054 63.1075 46.5771 62.8555 46.1494C62.6111 45.7141 62.4889 45.1986 62.4889 44.6029V44.2707C62.4889 43.6827 62.6149 43.171 62.8669 42.7357C63.1189 42.3004 63.4588 41.9682 63.8864 41.7391C64.3217 41.51 64.8105 41.3955 65.3527 41.3955H65.536C66.0095 41.3955 66.4486 41.4947 66.8533 41.6933C67.2581 41.8842 67.5827 42.1668 67.827 42.541C68.0714 42.9076 68.1936 43.3429 68.1936 43.8469V44.7175H64.1843V44.9924C64.1843 45.3743 64.295 45.695 64.5165 45.9547C64.7456 46.2067 65.0549 46.3327 65.4443 46.3327C65.7956 46.3327 66.0706 46.2372 66.2691 46.0463C66.4753 45.8477 66.5784 45.5575 66.5784 45.1757H68.1821ZM65.3642 42.541C65.0281 42.541 64.7532 42.6594 64.5394 42.8961C64.3332 43.1328 64.2148 43.4345 64.1843 43.8011H66.4982C66.4982 43.4116 66.4066 43.1061 66.2233 42.8846C66.0476 42.6555 65.7613 42.541 65.3642 42.541ZM76.1861 41.7277C76.1861 41.4375 76.0715 41.2122 75.8424 41.0518C75.6133 40.8838 75.2964 40.7998 74.8916 40.7998C74.4716 40.7998 74.1432 40.8685 73.9065 41.006C73.6774 41.1358 73.5628 41.3115 73.5628 41.5329C73.5628 41.7238 73.6354 41.8842 73.7805 42.014C73.9256 42.1362 74.1088 42.2355 74.3303 42.3119C74.5594 42.3882 74.8687 42.4723 75.2582 42.5639C75.8309 42.7014 76.3006 42.8426 76.6672 42.9877C77.0414 43.1328 77.3583 43.3581 77.618 43.6636C77.8853 43.9691 78.0189 44.3776 78.0189 44.8893C78.0189 45.7828 77.7287 46.4396 77.1483 46.8596C76.5755 47.272 75.7851 47.4782 74.7771 47.4782C73.8606 47.4782 73.1008 47.2796 72.4975 46.8825C71.9018 46.4778 71.604 45.8668 71.604 45.0497L71.6154 44.7977H73.2879L73.2764 44.981C73.2764 45.317 73.4024 45.5843 73.6544 45.7828C73.9065 45.9737 74.2616 46.0692 74.7198 46.0692C75.2544 46.0692 75.6362 45.9852 75.8653 45.8172C76.1021 45.6492 76.2204 45.4353 76.2204 45.1757C76.2204 44.9771 76.1479 44.8168 76.0028 44.6946C75.8653 44.5647 75.6858 44.4655 75.4644 44.3967C75.2505 44.3204 74.9489 44.2364 74.5594 44.1447C73.979 43.9996 73.5055 43.8545 73.139 43.7094C72.7724 43.5643 72.4555 43.3314 72.1882 43.0107C71.9209 42.6899 71.7872 42.2584 71.7872 41.7162C71.7872 41.2122 71.9247 40.7845 72.1996 40.4332C72.4746 40.0819 72.8411 39.8223 73.2993 39.6543C73.7652 39.4786 74.2845 39.3908 74.8572 39.3908C75.7355 39.3908 76.4533 39.5855 77.0108 39.975C77.5683 40.3569 77.8471 40.9296 77.8471 41.6933V41.8308H76.1861V41.7277ZM82.4036 47.2606C82.2508 47.3216 82.0485 47.3713 81.7964 47.4095C81.5521 47.4553 81.3344 47.4782 81.1435 47.4782C80.5555 47.4782 80.1125 47.3522 79.8147 47.1002C79.5169 46.8482 79.3679 46.4281 79.3679 45.8401V42.6555H78.7264V41.51H79.4252L80.0094 39.6428H81.0404V41.51H82.4036V42.6555H81.0404V45.5537C81.0404 45.8592 81.0977 46.0654 81.2122 46.1723C81.3344 46.2792 81.4948 46.3327 81.6933 46.3327C81.785 46.3327 81.9034 46.3174 82.0485 46.2869C82.1936 46.2563 82.3119 46.2219 82.4036 46.1838V47.2606ZM89.1289 44.6029C89.1289 45.191 89.0029 45.7026 88.7509 46.1379C88.5065 46.5732 88.1666 46.9054 87.7313 47.1345C87.296 47.3636 86.8073 47.4782 86.2651 47.4782H86.0818C85.5396 47.4782 85.0508 47.3636 84.6155 47.1345C84.1802 46.9054 83.8366 46.5732 83.5845 46.1379C83.3402 45.7026 83.218 45.191 83.218 44.6029V44.2707C83.218 43.6827 83.3402 43.171 83.5845 42.7357C83.8366 42.3004 84.1802 41.9682 84.6155 41.7391C85.0508 41.51 85.5396 41.3955 86.0818 41.3955H86.2651C86.8073 41.3955 87.296 41.51 87.7313 41.7391C88.1666 41.9682 88.5065 42.3004 88.7509 42.7357C89.0029 43.171 89.1289 43.6827 89.1289 44.2707V44.6029ZM87.4335 43.9729C87.4335 43.507 87.3151 43.1519 87.0784 42.9076C86.8493 42.6632 86.5476 42.541 86.1734 42.541C85.7992 42.541 85.4937 42.6632 85.257 42.9076C85.0279 43.1519 84.9133 43.507 84.9133 43.9729V44.9008C84.9133 45.3666 85.0279 45.7217 85.257 45.9661C85.4937 46.2105 85.7992 46.3327 86.1734 46.3327C86.5476 46.3327 86.8493 46.2105 87.0784 45.9661C87.3151 45.7217 87.4335 45.3666 87.4335 44.9008V43.9729ZM91.8617 42.2431C92.2893 41.678 92.8392 41.3955 93.5112 41.3955C93.9694 41.3955 94.3818 41.5062 94.7484 41.7277C95.115 41.9491 95.4052 42.2852 95.619 42.7357C95.8328 43.1863 95.9397 43.7438 95.9397 44.4082V44.5342C95.9397 45.1681 95.8405 45.7065 95.6419 46.1494C95.4434 46.5923 95.1722 46.9245 94.8286 47.146C94.4926 47.3675 94.1107 47.4782 93.6831 47.4782C93.3165 47.4782 92.9919 47.4018 92.7094 47.2491C92.4344 47.0964 92.213 46.9093 92.045 46.6878V49.437H90.3725V41.51H91.6898L91.8617 42.2431ZM94.2444 43.9271C94.2444 43.4765 94.1413 43.1328 93.9351 42.8961C93.7289 42.6594 93.4654 42.541 93.1447 42.541C92.8239 42.541 92.5604 42.6594 92.3543 42.8961C92.1481 43.1328 92.045 43.4765 92.045 43.9271V44.8779C92.045 45.3208 92.1481 45.6645 92.3543 45.9088C92.5604 46.1456 92.8239 46.2639 93.1447 46.2639C93.4654 46.2639 93.7289 46.1456 93.9351 45.9088C94.1413 45.6645 94.2444 45.3208 94.2444 44.8779V43.9271ZM103.929 41.7277C103.929 41.4375 103.815 41.2122 103.586 41.0518C103.356 40.8838 103.04 40.7998 102.635 40.7998C102.215 40.7998 101.886 40.8685 101.65 41.006C101.421 41.1358 101.306 41.3115 101.306 41.5329C101.306 41.7238 101.379 41.8842 101.524 42.014C101.669 42.1362 101.852 42.2355 102.073 42.3119C102.303 42.3882 102.612 42.4723 103.001 42.5639C103.574 42.7014 104.044 42.8426 104.41 42.9877C104.785 43.1328 105.102 43.3581 105.361 43.6636C105.628 43.9691 105.762 44.3776 105.762 44.8893C105.762 45.7828 105.472 46.4396 104.891 46.8596C104.319 47.272 103.528 47.4782 102.52 47.4782C101.604 47.4782 100.844 47.2796 100.241 46.8825C99.645 46.4778 99.3471 45.8668 99.3471 45.0497L99.3586 44.7977H101.031L101.02 44.981C101.02 45.317 101.146 45.5843 101.398 45.7828C101.65 45.9737 102.005 46.0692 102.463 46.0692C102.998 46.0692 103.379 45.9852 103.609 45.8172C103.845 45.6492 103.964 45.4353 103.964 45.1757C103.964 44.9771 103.891 44.8168 103.746 44.6946C103.609 44.5647 103.429 44.4655 103.208 44.3967C102.994 44.3204 102.692 44.2364 102.303 44.1447C101.722 43.9996 101.249 43.8545 100.882 43.7094C100.516 43.5643 100.199 43.3314 99.9314 43.0107C99.6641 42.6899 99.5304 42.2584 99.5304 41.7162C99.5304 41.2122 99.6679 40.7845 99.9428 40.4332C100.218 40.0819 100.584 39.8223 101.043 39.6543C101.508 39.4786 102.028 39.3908 102.6 39.3908C103.479 39.3908 104.197 39.5855 104.754 39.975C105.312 40.3569 105.59 40.9296 105.59 41.6933V41.8308H103.929V41.7277ZM112.621 44.6029C112.621 45.191 112.495 45.7026 112.243 46.1379C111.999 46.5732 111.659 46.9054 111.224 47.1345C110.788 47.3636 110.3 47.4782 109.757 47.4782H109.574C109.032 47.4782 108.543 47.3636 108.108 47.1345C107.672 46.9054 107.329 46.5732 107.077 46.1379C106.832 45.7026 106.71 45.191 106.71 44.6029V44.2707C106.71 43.6827 106.832 43.171 107.077 42.7357C107.329 42.3004 107.672 41.9682 108.108 41.7391C108.543 41.51 109.032 41.3955 109.574 41.3955H109.757C110.3 41.3955 110.788 41.51 111.224 41.7391C111.659 41.9682 111.999 42.3004 112.243 42.7357C112.495 43.171 112.621 43.6827 112.621 44.2707V44.6029ZM110.926 43.9729C110.926 43.507 110.807 43.1519 110.571 42.9076C110.342 42.6632 110.04 42.541 109.666 42.541C109.291 42.541 108.986 42.6632 108.749 42.9076C108.52 43.1519 108.406 43.507 108.406 43.9729V44.9008C108.406 45.3666 108.52 45.7217 108.749 45.9661C108.986 46.2105 109.291 46.3327 109.666 46.3327C110.04 46.3327 110.342 46.2105 110.571 45.9661C110.807 45.7217 110.926 45.3666 110.926 44.9008V43.9729ZM113.865 47.3636V39.1159H115.537V47.3636H113.865ZM122.391 45.989C122.391 46.1036 122.425 46.1914 122.494 46.2525C122.563 46.3059 122.639 46.3327 122.723 46.3327C122.799 46.3327 122.883 46.3174 122.975 46.2869C123.067 46.2563 123.139 46.2296 123.193 46.2067V47.2376C122.91 47.398 122.574 47.4782 122.185 47.4782C121.421 47.4782 120.978 47.1995 120.856 46.642C120.375 47.1995 119.787 47.4782 119.092 47.4782C118.496 47.4782 118.003 47.3178 117.614 46.9971C117.232 46.6763 117.041 46.2105 117.041 45.5995V41.51H118.714V45.233C118.714 45.5308 118.798 45.779 118.966 45.9776C119.141 46.1685 119.363 46.2639 119.63 46.2639C119.928 46.2639 120.184 46.1532 120.398 45.9317C120.611 45.7026 120.718 45.4277 120.718 45.107V41.51H122.391V45.989ZM127.251 47.2606C127.099 47.3216 126.896 47.3713 126.644 47.4095C126.4 47.4553 126.182 47.4782 125.991 47.4782C125.403 47.4782 124.96 47.3522 124.662 47.1002C124.365 46.8482 124.216 46.4281 124.216 45.8401V42.6555H123.574V41.51H124.273L124.857 39.6428H125.888V41.51H127.251V42.6555H125.888V45.5537C125.888 45.8592 125.945 46.0654 126.06 46.1723C126.182 46.2792 126.343 46.3327 126.541 46.3327C126.633 46.3327 126.751 46.3174 126.896 46.2869C127.041 46.2563 127.16 46.2219 127.251 46.1838V47.2606ZM128.318 39.1159H130.013V40.4332H128.318V39.1159ZM128.329 47.3636V41.51H130.002V47.3636H128.329ZM137.165 44.6029C137.165 45.191 137.039 45.7026 136.787 46.1379C136.542 46.5732 136.203 46.9054 135.767 47.1345C135.332 47.3636 134.843 47.4782 134.301 47.4782H134.118C133.576 47.4782 133.087 47.3636 132.652 47.1345C132.216 46.9054 131.873 46.5732 131.621 46.1379C131.376 45.7026 131.254 45.191 131.254 44.6029V44.2707C131.254 43.6827 131.376 43.171 131.621 42.7357C131.873 42.3004 132.216 41.9682 132.652 41.7391C133.087 41.51 133.576 41.3955 134.118 41.3955H134.301C134.843 41.3955 135.332 41.51 135.767 41.7391C136.203 41.9682 136.542 42.3004 136.787 42.7357C137.039 43.171 137.165 43.6827 137.165 44.2707V44.6029ZM135.47 43.9729C135.47 43.507 135.351 43.1519 135.114 42.9076C134.885 42.6632 134.584 42.541 134.209 42.541C133.835 42.541 133.53 42.6632 133.293 42.9076C133.064 43.1519 132.949 43.507 132.949 43.9729V44.9008C132.949 45.3666 133.064 45.7217 133.293 45.9661C133.53 46.2105 133.835 46.3327 134.209 46.3327C134.584 46.3327 134.885 46.2105 135.114 45.9661C135.351 45.7217 135.47 45.3666 135.47 44.9008V43.9729ZM139.84 42.3692C140.322 41.72 140.944 41.3955 141.708 41.3955C142.303 41.3955 142.792 41.5558 143.174 41.8766C143.563 42.1973 143.758 42.6632 143.758 43.2741V47.3636H142.086V43.6407C142.086 43.3429 141.998 43.0985 141.822 42.9076C141.654 42.709 141.436 42.6097 141.169 42.6097C140.871 42.6097 140.616 42.7243 140.402 42.9534C140.188 43.1748 140.081 43.446 140.081 43.7667V47.3636H138.408V41.51H139.657L139.84 42.3692Z" fill="#060C3C"/>
<rect x="47.0488" y="161.327" width="19.0506" height="4.30909" rx="2.15455" fill="#B4B6C4"/>
<rect x="83.5625" y="161.327" width="19.0506" height="4.30909" rx="2.15455" fill="#B4B6C4"/>
<rect x="120.076" y="161.327" width="19.0506" height="4.30909" rx="2.15455" fill="#B4B6C4"/>
<rect x="156.59" y="161.327" width="19.0506" height="4.30909" rx="2.15455" fill="#B4B6C4"/>
<rect x="193.104" y="161.327" width="19.0506" height="4.30909" rx="2.15455" fill="#B4B6C4"/>
<line opacity="0.2" x1="47.4068" y1="129.369" x2="212.59" y2="129.369" stroke="#B4B6C4" stroke-width="0.715953" stroke-linecap="round"/>
<line opacity="0.2" x1="47.4068" y1="109.26" x2="212.59" y2="109.26" stroke="#B4B6C4" stroke-width="0.715953" stroke-linecap="round"/>
<line opacity="0.2" x1="47.4068" y1="89.1511" x2="212.59" y2="89.1511" stroke="#B4B6C4" stroke-width="0.715953" stroke-linecap="round"/>
<line opacity="0.2" x1="47.4068" y1="69.042" x2="212.59" y2="69.042" stroke="#B4B6C4" stroke-width="0.715953" stroke-linecap="round"/>
<line opacity="0.2" x1="47.4068" y1="149.478" x2="212.59" y2="149.478" stroke="#B4B6C4" stroke-width="0.715953" stroke-linecap="round"/>
<path d="M47.8428 95.6921C47.8428 94.2605 49.0033 93.1 50.4348 93.1H57.9511C59.3827 93.1 60.5432 94.2605 60.5432 95.6921V149.118H47.8428V95.6921Z" fill="#0E0E0E"/>
<path d="M149.446 82.0466C149.446 80.6151 150.607 79.4546 152.038 79.4546H159.555C160.986 79.4546 162.147 80.6151 162.147 82.0466V149.118H149.446V82.0466Z" fill="#0E0E0E"/>
<path d="M98.6445 112.21C98.6445 110.779 99.805 109.618 101.237 109.618H108.753C110.184 109.618 111.345 110.779 111.345 112.21V149.118H98.6445V112.21Z" fill="#0E0E0E"/>
<path d="M200.248 99.283C200.248 97.8514 201.409 96.6909 202.84 96.6909H210.356C211.788 96.6909 212.948 97.8514 212.948 99.283V149.118H200.248V99.283Z" fill="#0E0E0E"/>
<path d="M124.046 103.592C124.046 102.161 125.206 101 126.638 101H134.154C135.586 101 136.746 102.161 136.746 103.592V149.118H124.046V103.592Z" fill="#78FFB6"/>
<path d="M73.2441 113.647C73.2441 112.215 74.4046 111.055 75.8362 111.055H83.3525C84.784 111.055 85.9445 112.215 85.9445 113.647V149.118H73.2441V113.647Z" fill="#78FFB6"/>
<path d="M174.847 89.9466C174.847 88.5151 176.007 87.3546 177.439 87.3546H184.955C186.387 87.3546 187.547 88.5151 187.547 89.9466V149.118H174.847V89.9466Z" fill="#78FFB6"/>
<path d="M48.2402 90.5864C57.8694 68.022 67.0063 111.055 79.1974 111.055C89.7984 111.055 93.4698 94.2123 103.011 94.2123C109.371 94.2123 113.742 101.423 120.871 101.359C127.999 101.295 124.839 89.5091 137.143 100.282C148.952 110.622 145.727 67.261 155.798 67.261C163.749 67.261 160.568 85.3919 172.759 85.3919C182.3 85.3919 183.891 72.1613 192.371 72.1613C202.442 72.1613 195.552 94.2123 210.923 94.2123" stroke="#6241D4" stroke-width="1.43191" stroke-linecap="round" stroke-linejoin="round"/>
<defs>
<filter id="filter0_d_2578_570" x="0.793773" y="0.521399" width="258.412" height="212.412" filterUnits="userSpaceOnUse" color-interpolation-filters="sRGB">
<feFlood flood-opacity="0" result="BackgroundImageFix"/>
<feColorMatrix in="SourceAlpha" type="matrix" values="0 0 0 0 0 0 0 0 0 0 0 0 0 0 0 0 0 0 127 0" result="hardAlpha"/>
<feMorphology radius="1.43191" operator="erode" in="SourceAlpha" result="effect1_dropShadow_2578_570"/>
<feOffset dy="5.72763"/>
<feGaussianBlur stdDeviation="14.3191"/>
<feColorMatrix type="matrix" values="0 0 0 0 0.0235294 0 0 0 0 0.0470588 0 0 0 0 0.231373 0 0 0 0.08 0"/>
<feBlend mode="normal" in2="BackgroundImageFix" result="effect1_dropShadow_2578_570"/>
<feBlend mode="normal" in="SourceGraphic" in2="effect1_dropShadow_2578_570" result="shape"/>
</filter>
</defs>
</svg>
