<svg width="230" height="179" viewBox="0 0 230 179" fill="none" xmlns="http://www.w3.org/2000/svg">
<g filter="url(#filter0_d_2578_537)">
<rect x="20" y="16" width="190.114" height="140.574" rx="12.7889" fill="white" shape-rendering="crispEdges"/>
<path d="M33.6771 39.7889V31.2689H37.2891C37.6811 31.2689 38.0411 31.3489 38.3691 31.5089C38.6971 31.6689 38.9811 31.8849 39.2211 32.1569C39.4691 32.4289 39.6611 32.7329 39.7971 33.0689C39.9331 33.4049 40.0011 33.7489 40.0011 34.1009C40.0011 34.5809 39.8891 35.0369 39.6651 35.4689C39.4411 35.9009 39.1331 36.2529 38.7411 36.5249C38.3491 36.7969 37.8851 36.9329 37.3491 36.9329H35.3331V39.7889H33.6771ZM35.3331 35.4809H37.2531C37.4531 35.4809 37.6331 35.4249 37.7931 35.3129C37.9531 35.2009 38.0811 35.0409 38.1771 34.8329C38.2731 34.6169 38.3211 34.3729 38.3211 34.1009C38.3211 33.8049 38.2651 33.5529 38.1531 33.3449C38.0491 33.1369 37.9091 32.9809 37.7331 32.8769C37.5651 32.7729 37.3811 32.7209 37.1811 32.7209H35.3331V35.4809ZM44.7416 34.8929C44.2536 34.8929 43.8176 34.9889 43.4336 35.1809C43.0496 35.3649 42.7736 35.6329 42.6056 35.9849V39.7889H40.9976V33.5009H42.4736V34.8449C42.6976 34.4129 42.9816 34.0729 43.3256 33.8249C43.6696 33.5769 44.0336 33.4409 44.4176 33.4169C44.5056 33.4169 44.5736 33.4169 44.6216 33.4169C44.6696 33.4169 44.7096 33.4209 44.7416 33.4289V34.8929ZM48.4602 39.9089C47.9482 39.9089 47.4882 39.8249 47.0802 39.6569C46.6722 39.4809 46.3242 39.2409 46.0362 38.9369C45.7562 38.6329 45.5402 38.2849 45.3882 37.8929C45.2362 37.5009 45.1602 37.0889 45.1602 36.6569C45.1602 36.2169 45.2362 35.8009 45.3882 35.4089C45.5402 35.0169 45.7562 34.6689 46.0362 34.3649C46.3242 34.0609 46.6722 33.8249 47.0802 33.6569C47.4882 33.4809 47.9482 33.3929 48.4602 33.3929C48.9722 33.3929 49.4282 33.4809 49.8282 33.6569C50.2362 33.8249 50.5842 34.0609 50.8722 34.3649C51.1602 34.6689 51.3762 35.0169 51.5202 35.4089C51.6722 35.8009 51.7482 36.2169 51.7482 36.6569C51.7482 37.0889 51.6722 37.5009 51.5202 37.8929C51.3762 38.2849 51.1602 38.6329 50.8722 38.9369C50.5922 39.2409 50.2482 39.4809 49.8402 39.6569C49.4322 39.8249 48.9722 39.9089 48.4602 39.9089ZM46.8162 36.6569C46.8162 37.0249 46.8882 37.3529 47.0322 37.6409C47.1762 37.9209 47.3722 38.1409 47.6202 38.3009C47.8682 38.4609 48.1482 38.5409 48.4602 38.5409C48.7642 38.5409 49.0402 38.4609 49.2882 38.3009C49.5362 38.1329 49.7322 37.9089 49.8762 37.6289C50.0282 37.3409 50.1042 37.0129 50.1042 36.6449C50.1042 36.2849 50.0282 35.9609 49.8762 35.6729C49.7322 35.3849 49.5362 35.1609 49.2882 35.0009C49.0402 34.8409 48.7642 34.7609 48.4602 34.7609C48.1482 34.7609 47.8682 34.8449 47.6202 35.0129C47.3722 35.1729 47.1762 35.3969 47.0322 35.6849C46.8882 35.9649 46.8162 36.2889 46.8162 36.6569ZM52.4496 36.6449C52.4496 36.0369 52.5696 35.4889 52.8096 35.0009C53.0496 34.5049 53.3816 34.1129 53.8056 33.8249C54.2296 33.5369 54.7136 33.3929 55.2576 33.3929C55.7216 33.3929 56.1376 33.5089 56.5056 33.7409C56.8816 33.9649 57.1736 34.2529 57.3816 34.6049V31.0289H58.9896V37.9889C58.9896 38.1569 59.0176 38.2769 59.0736 38.3489C59.1296 38.4209 59.2256 38.4649 59.3616 38.4809V39.7889C59.0816 39.8449 58.8536 39.8729 58.6776 39.8729C58.3896 39.8729 58.1496 39.8009 57.9576 39.6569C57.7736 39.5129 57.6696 39.3249 57.6456 39.0929L57.6216 38.6969C57.3896 39.0889 57.0736 39.3889 56.6736 39.5969C56.2816 39.8049 55.8696 39.9089 55.4376 39.9089C55.0056 39.9089 54.6056 39.8249 54.2376 39.6569C53.8776 39.4889 53.5616 39.2569 53.2896 38.9609C53.0256 38.6649 52.8176 38.3209 52.6656 37.9289C52.5216 37.5289 52.4496 37.1009 52.4496 36.6449ZM57.3816 37.4849V35.9849C57.3016 35.7529 57.1736 35.5449 56.9976 35.3609C56.8216 35.1769 56.6256 35.0329 56.4096 34.9289C56.1936 34.8169 55.9776 34.7609 55.7616 34.7609C55.5136 34.7609 55.2896 34.8129 55.0896 34.9169C54.8896 35.0209 54.7136 35.1609 54.5616 35.3369C54.4176 35.5129 54.3056 35.7169 54.2256 35.9489C54.1536 36.1809 54.1176 36.4249 54.1176 36.6809C54.1176 36.9369 54.1576 37.1809 54.2376 37.4129C54.3256 37.6369 54.4496 37.8329 54.6096 38.0009C54.7696 38.1689 54.9536 38.3009 55.1616 38.3969C55.3776 38.4929 55.6096 38.5409 55.8576 38.5409C56.0096 38.5409 56.1616 38.5169 56.3136 38.4689C56.4736 38.4129 56.6216 38.3409 56.7576 38.2529C56.9016 38.1569 57.0256 38.0449 57.1296 37.9169C57.2416 37.7809 57.3256 37.6369 57.3816 37.4849ZM60.5079 37.4369V33.5009H62.1159V37.0889C62.1159 37.5689 62.2039 37.9329 62.3799 38.1809C62.5559 38.4209 62.8159 38.5409 63.1599 38.5409C63.3679 38.5409 63.5719 38.5009 63.7719 38.4209C63.9799 38.3329 64.1679 38.2049 64.3359 38.0369C64.5119 37.8689 64.6599 37.6569 64.7799 37.4009V33.5009H66.3879V37.9889C66.3879 38.1569 66.4159 38.2769 66.4719 38.3489C66.5359 38.4209 66.6359 38.4649 66.7719 38.4809V39.7889C66.6119 39.8129 66.4759 39.8289 66.3639 39.8369C66.2599 39.8529 66.1639 39.8609 66.0759 39.8609C65.7879 39.8609 65.5519 39.7969 65.3679 39.6689C65.1919 39.5329 65.0879 39.3489 65.0559 39.1169L65.0199 38.6129C64.7399 39.0369 64.3799 39.3609 63.9399 39.5849C63.4999 39.8009 63.0159 39.9089 62.4879 39.9089C61.8399 39.9089 61.3479 39.7009 61.0119 39.2849C60.6759 38.8609 60.5079 38.2449 60.5079 37.4369ZM70.9139 39.9089C70.4019 39.9089 69.9419 39.8249 69.5339 39.6569C69.1259 39.4809 68.7779 39.2409 68.4899 38.9369C68.2019 38.6249 67.9779 38.2729 67.8179 37.8809C67.6659 37.4889 67.5899 37.0769 67.5899 36.6449C67.5899 36.0529 67.7219 35.5129 67.9859 35.0249C68.2579 34.5289 68.6419 34.1329 69.1379 33.8369C69.6339 33.5409 70.2219 33.3929 70.9019 33.3929C71.5819 33.3929 72.1659 33.5409 72.6539 33.8369C73.1419 34.1329 73.5059 34.5209 73.7459 35.0009L72.1739 35.4809C72.0379 35.2489 71.8579 35.0729 71.6339 34.9529C71.4099 34.8249 71.1619 34.7609 70.8899 34.7609C70.5859 34.7609 70.3059 34.8409 70.0499 35.0009C69.8019 35.1529 69.6059 35.3729 69.4619 35.6609C69.3179 35.9409 69.2459 36.2689 69.2459 36.6449C69.2459 37.0129 69.3179 37.3409 69.4619 37.6289C69.6139 37.9089 69.8139 38.1329 70.0619 38.3009C70.3099 38.4609 70.5859 38.5409 70.8899 38.5409C71.0819 38.5409 71.2619 38.5089 71.4299 38.4449C71.6059 38.3809 71.7619 38.2929 71.8979 38.1809C72.0339 38.0689 72.1339 37.9409 72.1979 37.7969L73.7699 38.2769C73.6259 38.5889 73.4139 38.8689 73.1339 39.1169C72.8619 39.3649 72.5379 39.5609 72.1619 39.7049C71.7939 39.8409 71.3779 39.9089 70.9139 39.9089ZM78.5273 39.4649C78.3913 39.5209 78.2273 39.5849 78.0353 39.6569C77.8433 39.7289 77.6353 39.7849 77.4113 39.8249C77.1953 39.8729 76.9753 39.8969 76.7513 39.8969C76.4553 39.8969 76.1833 39.8449 75.9353 39.7409C75.6873 39.6369 75.4873 39.4729 75.3353 39.2489C75.1913 39.0169 75.1193 38.7169 75.1193 38.3489V34.7369H74.2913V33.5009H75.1193V31.4609H76.7273V33.5009H78.0473V34.7369H76.7273V37.8089C76.7353 38.0249 76.7953 38.1809 76.9073 38.2769C77.0193 38.3729 77.1593 38.4209 77.3273 38.4209C77.4953 38.4209 77.6593 38.3929 77.8193 38.3369C77.9793 38.2809 78.1073 38.2329 78.2033 38.1929L78.5273 39.4649ZM79.3648 39.7889V33.5009H80.9728V39.7889H79.3648ZM79.3648 32.6249V31.0289H80.9728V32.6249H79.3648ZM84.1154 39.7889L81.7994 33.5009H83.4674L85.0514 38.3249L86.6474 33.5009H88.1714L85.8674 39.7889H84.1154ZM89.0211 39.7889V33.5009H90.6291V39.7889H89.0211ZM89.0211 32.6249V31.0289H90.6291V32.6249H89.0211ZM95.8477 39.4649C95.7117 39.5209 95.5477 39.5849 95.3557 39.6569C95.1637 39.7289 94.9557 39.7849 94.7317 39.8249C94.5157 39.8729 94.2957 39.8969 94.0717 39.8969C93.7757 39.8969 93.5037 39.8449 93.2557 39.7409C93.0077 39.6369 92.8077 39.4729 92.6557 39.2489C92.5117 39.0169 92.4397 38.7169 92.4397 38.3489V34.7369H91.6117V33.5009H92.4397V31.4609H94.0477V33.5009H95.3677V34.7369H94.0477V37.8089C94.0557 38.0249 94.1157 38.1809 94.2277 38.2769C94.3397 38.3729 94.4797 38.4209 94.6477 38.4209C94.8157 38.4209 94.9797 38.3929 95.1397 38.3369C95.2997 38.2809 95.4277 38.2329 95.5237 38.1929L95.8477 39.4649ZM96.7937 41.0129C96.9377 41.0449 97.0697 41.0729 97.1897 41.0969C97.3177 41.1209 97.4257 41.1329 97.5137 41.1329C97.6657 41.1329 97.7897 41.0929 97.8857 41.0129C97.9897 40.9409 98.0897 40.8049 98.1857 40.6049C98.2817 40.4129 98.3817 40.1409 98.4857 39.7889L96.0017 33.5009H97.6697L99.3617 38.1449L100.85 33.5009H102.386L99.7457 41.0369C99.6497 41.3169 99.5017 41.5689 99.3017 41.7929C99.1097 42.0249 98.8657 42.2049 98.5697 42.3329C98.2817 42.4689 97.9577 42.5369 97.5977 42.5369C97.4697 42.5369 97.3417 42.5249 97.2137 42.5009C97.0857 42.4849 96.9457 42.4529 96.7937 42.4049V41.0129Z" fill="#121212"/>
<path d="M41.9912 71.7861V124.595" stroke="#6DE8A6" stroke-width="6.96011" stroke-linecap="round"/>
<circle cx="41.9921" cy="58.1636" r="2.5858" fill="black"/>
<path d="M66.3467 98.1909L66.3467 124.596" stroke="#6DE8A6" stroke-width="6.96011" stroke-linecap="round"/>
<circle cx="66.3465" cy="87.0729" r="2.5858" fill="black"/>
<path d="M90.7021 85.4618L90.7022 124.595" stroke="#6DE8A6" stroke-width="6.96011" stroke-linecap="round"/>
<circle cx="90.702" cy="73.7702" r="2.5858" fill="black"/>
<path d="M115.057 76.3559L115.057 124.595" stroke="#6DE8A6" stroke-width="6.96011" stroke-linecap="round"/>
<circle cx="115.057" cy="63.3352" r="2.5858" fill="black"/>
<path d="M139.412 98.1909L139.412 124.596" stroke="#6DE8A6" stroke-width="6.96011" stroke-linecap="round"/>
<circle cx="139.412" cy="87.0729" r="2.5858" fill="black"/>
<path d="M163.767 85.4619L163.767 124.596" stroke="#6DE8A6" stroke-width="6.96011" stroke-linecap="round"/>
<circle cx="163.766" cy="73.0202" r="2.5858" fill="black"/>
<path d="M188.122 105.029L188.122 124.595" stroke="#6DE8A6" stroke-width="6.96011" stroke-linecap="round"/>
<circle cx="188.122" cy="92.2445" r="2.5858" fill="black"/>
<path d="M33.0065 139.707C33.0065 139.418 33.0789 139.153 33.2239 138.915C33.3688 138.676 33.5649 138.486 33.8122 138.345C34.0637 138.205 34.3429 138.134 34.6498 138.134C34.9824 138.134 35.2722 138.215 35.5195 138.377C35.7667 138.535 35.9586 138.765 36.095 139.068C36.2357 139.366 36.306 139.727 36.306 140.149C36.306 140.728 36.2335 141.212 36.0886 141.6C35.9479 141.988 35.7476 142.28 35.4875 142.476C35.2275 142.672 34.9227 142.77 34.5731 142.77C34.2875 142.77 34.0232 142.702 33.7802 142.566C33.5372 142.434 33.3411 142.248 33.1919 142.009L33.6075 141.575C33.7056 141.749 33.842 141.89 34.0168 141.997C34.1916 142.103 34.3813 142.157 34.5859 142.157C34.799 142.157 34.9845 142.095 35.1422 141.971C35.2999 141.852 35.4214 141.677 35.5067 141.447C35.5962 141.217 35.6431 140.937 35.6474 140.609C35.5877 140.733 35.5046 140.841 35.398 140.935C35.2914 141.029 35.1678 141.101 35.0271 141.153C34.8907 141.204 34.7415 141.229 34.5795 141.229C34.2854 141.229 34.0189 141.161 33.7802 141.025C33.5415 140.888 33.3518 140.707 33.2111 140.481C33.0747 140.251 33.0065 139.993 33.0065 139.707ZM34.6434 138.736C34.4687 138.736 34.3067 138.78 34.1575 138.87C34.0125 138.955 33.8953 139.072 33.8058 139.221C33.7205 139.366 33.6779 139.528 33.6779 139.707C33.6779 139.882 33.7205 140.042 33.8058 140.187C33.8953 140.332 34.0125 140.449 34.1575 140.539C34.3067 140.624 34.4687 140.667 34.6434 140.667C34.8225 140.667 34.9845 140.624 35.1294 140.539C35.2744 140.449 35.3895 140.332 35.4747 140.187C35.5642 140.042 35.609 139.882 35.609 139.707C35.609 139.533 35.5642 139.371 35.4747 139.221C35.3852 139.072 35.268 138.955 35.123 138.87C34.9781 138.78 34.8182 138.736 34.6434 138.736ZM36.9446 141.786V140.967H37.5265V141.786H36.9446ZM38.1716 141.786C38.1716 141.607 38.1865 141.442 38.2164 141.293C38.2462 141.14 38.2974 140.995 38.3699 140.858C38.4466 140.722 38.551 140.594 38.6832 140.475C38.8196 140.351 38.9922 140.234 39.2011 140.123C39.3503 140.038 39.491 139.963 39.6232 139.899C39.7553 139.831 39.8725 139.765 39.9749 139.701C40.0772 139.633 40.156 139.56 40.2115 139.484C40.2711 139.407 40.301 139.32 40.301 139.221C40.301 139.128 40.2754 139.04 40.2242 138.959C40.1731 138.878 40.0964 138.814 39.994 138.767C39.8917 138.716 39.7681 138.691 39.6232 138.691C39.5081 138.691 39.4015 138.706 39.3034 138.736C39.2097 138.765 39.1223 138.806 39.0413 138.857C38.9645 138.904 38.8942 138.957 38.8303 139.017C38.7663 139.072 38.7109 139.128 38.664 139.183L38.2228 138.678C38.2654 138.627 38.3315 138.569 38.421 138.505C38.5148 138.437 38.6256 138.371 38.7535 138.307C38.8857 138.239 39.0349 138.183 39.2011 138.141C39.3674 138.094 39.5486 138.07 39.7447 138.07C40.0217 138.07 40.2583 138.117 40.4544 138.211C40.6505 138.301 40.7997 138.426 40.902 138.588C41.0086 138.746 41.0619 138.925 41.0619 139.126C41.0619 139.283 41.0299 139.422 40.966 139.541C40.9063 139.661 40.8274 139.767 40.7294 139.861C40.6314 139.95 40.5269 140.029 40.4161 140.098C40.3095 140.161 40.2093 140.219 40.1155 140.27C39.9493 140.351 39.8043 140.426 39.6807 140.494C39.5613 140.562 39.459 140.63 39.3738 140.699C39.2885 140.763 39.2182 140.831 39.1628 140.903C39.1073 140.971 39.0605 141.055 39.0221 141.153H41.1322V141.786H38.1716ZM44.1749 141.786L43.1006 140.245L42.5507 140.769V141.786H41.8473V137.118H42.5507V140.059L44.0982 138.448H44.8527L43.5546 139.848L44.923 141.786H44.1749Z" fill="black"/>
<path d="M58.2623 139.707C58.2623 139.418 58.3348 139.153 58.4797 138.915C58.6247 138.676 58.8208 138.486 59.068 138.345C59.3195 138.205 59.5988 138.134 59.9057 138.134C60.2382 138.134 60.5281 138.215 60.7753 138.377C61.0226 138.535 61.2144 138.765 61.3508 139.068C61.4915 139.366 61.5619 139.727 61.5619 140.149C61.5619 140.728 61.4894 141.212 61.3444 141.6C61.2038 141.988 61.0034 142.28 60.7434 142.476C60.4833 142.672 60.1785 142.77 59.829 142.77C59.5434 142.77 59.279 142.702 59.0361 142.566C58.7931 142.434 58.597 142.248 58.4478 142.009L58.8634 141.575C58.9615 141.749 59.0979 141.89 59.2727 141.997C59.4474 142.103 59.6371 142.157 59.8418 142.157C60.0549 142.157 60.2403 142.095 60.3981 141.971C60.5558 141.852 60.6773 141.677 60.7626 141.447C60.8521 141.217 60.899 140.937 60.9032 140.609C60.8436 140.733 60.7604 140.841 60.6539 140.935C60.5473 141.029 60.4237 141.101 60.283 141.153C60.1466 141.204 59.9974 141.229 59.8354 141.229C59.5412 141.229 59.2748 141.161 59.0361 141.025C58.7973 140.888 58.6076 140.707 58.467 140.481C58.3305 140.251 58.2623 139.993 58.2623 139.707ZM59.8993 138.736C59.7245 138.736 59.5625 138.78 59.4133 138.87C59.2684 138.955 59.1512 139.072 59.0616 139.221C58.9764 139.366 58.9337 139.528 58.9337 139.707C58.9337 139.882 58.9764 140.042 59.0616 140.187C59.1512 140.332 59.2684 140.449 59.4133 140.539C59.5625 140.624 59.7245 140.667 59.8993 140.667C60.0784 140.667 60.2403 140.624 60.3853 140.539C60.5302 140.449 60.6453 140.332 60.7306 140.187C60.8201 140.042 60.8649 139.882 60.8649 139.707C60.8649 139.533 60.8201 139.371 60.7306 139.221C60.6411 139.072 60.5238 138.955 60.3789 138.87C60.2339 138.78 60.0741 138.736 59.8993 138.736ZM62.2005 141.786V140.967H62.7823V141.786H62.2005ZM63.4275 141.786C63.4275 141.607 63.4424 141.442 63.4722 141.293C63.5021 141.14 63.5532 140.995 63.6257 140.858C63.7024 140.722 63.8069 140.594 63.939 140.475C64.0755 140.351 64.2481 140.234 64.457 140.123C64.6062 140.038 64.7469 139.963 64.879 139.899C65.0112 139.831 65.1284 139.765 65.2307 139.701C65.333 139.633 65.4119 139.56 65.4673 139.484C65.527 139.407 65.5568 139.32 65.5568 139.221C65.5568 139.128 65.5313 139.04 65.4801 138.959C65.4289 138.878 65.3522 138.814 65.2499 138.767C65.1476 138.716 65.024 138.691 64.879 138.691C64.7639 138.691 64.6573 138.706 64.5593 138.736C64.4655 138.765 64.3781 138.806 64.2971 138.857C64.2204 138.904 64.1501 138.957 64.0861 139.017C64.0222 139.072 63.9667 139.128 63.9199 139.183L63.4786 138.678C63.5213 138.627 63.5873 138.569 63.6769 138.505C63.7707 138.437 63.8815 138.371 64.0094 138.307C64.1415 138.239 64.2907 138.183 64.457 138.141C64.6232 138.094 64.8044 138.07 65.0005 138.07C65.2776 138.07 65.5142 138.117 65.7103 138.211C65.9064 138.301 66.0556 138.426 66.1579 138.588C66.2645 138.746 66.3178 138.925 66.3178 139.126C66.3178 139.283 66.2858 139.422 66.2219 139.541C66.1622 139.661 66.0833 139.767 65.9853 139.861C65.8872 139.95 65.7828 140.029 65.6719 140.098C65.5654 140.161 65.4652 140.219 65.3714 140.27C65.2051 140.351 65.0602 140.426 64.9366 140.494C64.8172 140.562 64.7149 140.63 64.6296 140.699C64.5444 140.763 64.474 140.831 64.4186 140.903C64.3632 140.971 64.3163 141.055 64.2779 141.153H66.3881V141.786H63.4275ZM69.4308 141.786L68.3565 140.245L67.8066 140.769V141.786H67.1032V137.118H67.8066V140.059L69.354 138.448H70.1086L68.8105 139.848L70.1789 141.786H69.4308Z" fill="black"/>
<path d="M83.5182 139.707C83.5182 139.418 83.5907 139.153 83.7356 138.915C83.8805 138.676 84.0766 138.486 84.3239 138.345C84.5754 138.205 84.8546 138.134 85.1616 138.134C85.4941 138.134 85.784 138.215 86.0312 138.377C86.2785 138.535 86.4703 138.765 86.6067 139.068C86.7474 139.366 86.8177 139.727 86.8177 140.149C86.8177 140.728 86.7452 141.212 86.6003 141.6C86.4596 141.988 86.2593 142.28 85.9992 142.476C85.7392 142.672 85.4344 142.77 85.0848 142.77C84.7992 142.77 84.5349 142.702 84.2919 142.566C84.0489 142.434 83.8528 142.248 83.7036 142.009L84.1193 141.575C84.2173 141.749 84.3537 141.89 84.5285 141.997C84.7033 142.103 84.893 142.157 85.0976 142.157C85.3108 142.157 85.4962 142.095 85.6539 141.971C85.8117 141.852 85.9332 141.677 86.0184 141.447C86.1079 141.217 86.1548 140.937 86.1591 140.609C86.0994 140.733 86.0163 140.841 85.9097 140.935C85.8031 141.029 85.6795 141.101 85.5388 141.153C85.4024 141.204 85.2532 141.229 85.0912 141.229C84.7971 141.229 84.5306 141.161 84.2919 141.025C84.0532 140.888 83.8635 140.707 83.7228 140.481C83.5864 140.251 83.5182 139.993 83.5182 139.707ZM85.1552 138.736C84.9804 138.736 84.8184 138.78 84.6692 138.87C84.5242 138.955 84.407 139.072 84.3175 139.221C84.2322 139.366 84.1896 139.528 84.1896 139.707C84.1896 139.882 84.2322 140.042 84.3175 140.187C84.407 140.332 84.5242 140.449 84.6692 140.539C84.8184 140.624 84.9804 140.667 85.1552 140.667C85.3342 140.667 85.4962 140.624 85.6411 140.539C85.7861 140.449 85.9012 140.332 85.9864 140.187C86.076 140.042 86.1207 139.882 86.1207 139.707C86.1207 139.533 86.076 139.371 85.9864 139.221C85.8969 139.072 85.7797 138.955 85.6347 138.87C85.4898 138.78 85.3299 138.736 85.1552 138.736ZM87.4563 141.786V140.967H88.0382V141.786H87.4563ZM88.6833 141.786C88.6833 141.607 88.6983 141.442 88.7281 141.293C88.7579 141.14 88.8091 140.995 88.8816 140.858C88.9583 140.722 89.0627 140.594 89.1949 140.475C89.3313 140.351 89.504 140.234 89.7128 140.123C89.8621 140.038 90.0027 139.963 90.1349 139.899C90.267 139.831 90.3843 139.765 90.4866 139.701C90.5889 139.633 90.6678 139.56 90.7232 139.484C90.7829 139.407 90.8127 139.32 90.8127 139.221C90.8127 139.128 90.7871 139.04 90.736 138.959C90.6848 138.878 90.6081 138.814 90.5058 138.767C90.4034 138.716 90.2798 138.691 90.1349 138.691C90.0198 138.691 89.9132 138.706 89.8152 138.736C89.7214 138.765 89.634 138.806 89.553 138.857C89.4763 138.904 89.4059 138.957 89.342 139.017C89.278 139.072 89.2226 139.128 89.1757 139.183L88.7345 138.678C88.7771 138.627 88.8432 138.569 88.9327 138.505C89.0265 138.437 89.1373 138.371 89.2652 138.307C89.3974 138.239 89.5466 138.183 89.7128 138.141C89.8791 138.094 90.0603 138.07 90.2564 138.07C90.5335 138.07 90.7701 138.117 90.9662 138.211C91.1623 138.301 91.3115 138.426 91.4138 138.588C91.5203 138.746 91.5736 138.925 91.5736 139.126C91.5736 139.283 91.5417 139.422 91.4777 139.541C91.418 139.661 91.3392 139.767 91.2411 139.861C91.1431 139.95 91.0386 140.029 90.9278 140.098C90.8212 140.161 90.721 140.219 90.6273 140.27C90.461 140.351 90.3161 140.426 90.1924 140.494C90.0731 140.562 89.9708 140.63 89.8855 140.699C89.8002 140.763 89.7299 140.831 89.6745 140.903C89.6191 140.971 89.5722 141.055 89.5338 141.153H91.644V141.786H88.6833ZM94.6866 141.786L93.6124 140.245L93.0624 140.769V141.786H92.359V137.118H93.0624V140.059L94.6099 138.448H95.3644L94.0664 139.848L95.4348 141.786H94.6866Z" fill="black"/>
<path d="M108.774 139.707C108.774 139.418 108.847 139.153 108.991 138.915C109.136 138.676 109.332 138.486 109.58 138.345C109.831 138.205 110.11 138.134 110.417 138.134C110.75 138.134 111.04 138.215 111.287 138.377C111.534 138.535 111.726 138.765 111.863 139.068C112.003 139.366 112.074 139.727 112.074 140.149C112.074 140.728 112.001 141.212 111.856 141.6C111.715 141.988 111.515 142.28 111.255 142.476C110.995 142.672 110.69 142.77 110.341 142.77C110.055 142.77 109.791 142.702 109.548 142.566C109.305 142.434 109.109 142.248 108.959 142.009L109.375 141.575C109.473 141.749 109.61 141.89 109.784 141.997C109.959 142.103 110.149 142.157 110.353 142.157C110.567 142.157 110.752 142.095 110.91 141.971C111.068 141.852 111.189 141.677 111.274 141.447C111.364 141.217 111.411 140.937 111.415 140.609C111.355 140.733 111.272 140.841 111.166 140.935C111.059 141.029 110.935 141.101 110.795 141.153C110.658 141.204 110.509 141.229 110.347 141.229C110.053 141.229 109.787 141.161 109.548 141.025C109.309 140.888 109.119 140.707 108.979 140.481C108.842 140.251 108.774 139.993 108.774 139.707ZM110.411 138.736C110.236 138.736 110.074 138.78 109.925 138.87C109.78 138.955 109.663 139.072 109.573 139.221C109.488 139.366 109.445 139.528 109.445 139.707C109.445 139.882 109.488 140.042 109.573 140.187C109.663 140.332 109.78 140.449 109.925 140.539C110.074 140.624 110.236 140.667 110.411 140.667C110.59 140.667 110.752 140.624 110.897 140.539C111.042 140.449 111.157 140.332 111.242 140.187C111.332 140.042 111.377 139.882 111.377 139.707C111.377 139.533 111.332 139.371 111.242 139.221C111.153 139.072 111.036 138.955 110.891 138.87C110.746 138.78 110.586 138.736 110.411 138.736ZM112.712 141.786V140.967H113.294V141.786H112.712ZM113.939 141.786C113.939 141.607 113.954 141.442 113.984 141.293C114.014 141.14 114.065 140.995 114.137 140.858C114.214 140.722 114.319 140.594 114.451 140.475C114.587 140.351 114.76 140.234 114.969 140.123C115.118 140.038 115.259 139.963 115.391 139.899C115.523 139.831 115.64 139.765 115.742 139.701C115.845 139.633 115.924 139.56 115.979 139.484C116.039 139.407 116.069 139.32 116.069 139.221C116.069 139.128 116.043 139.04 115.992 138.959C115.941 138.878 115.864 138.814 115.762 138.767C115.659 138.716 115.536 138.691 115.391 138.691C115.276 138.691 115.169 138.706 115.071 138.736C114.977 138.765 114.89 138.806 114.809 138.857C114.732 138.904 114.662 138.957 114.598 139.017C114.534 139.072 114.478 139.128 114.432 139.183L113.99 138.678C114.033 138.627 114.099 138.569 114.189 138.505C114.282 138.437 114.393 138.371 114.521 138.307C114.653 138.239 114.802 138.183 114.969 138.141C115.135 138.094 115.316 138.07 115.512 138.07C115.789 138.07 116.026 138.117 116.222 138.211C116.418 138.301 116.567 138.426 116.67 138.588C116.776 138.746 116.829 138.925 116.829 139.126C116.829 139.283 116.798 139.422 116.734 139.541C116.674 139.661 116.595 139.767 116.497 139.861C116.399 139.95 116.294 140.029 116.184 140.098C116.077 140.161 115.977 140.219 115.883 140.27C115.717 140.351 115.572 140.426 115.448 140.494C115.329 140.562 115.227 140.63 115.141 140.699C115.056 140.763 114.986 140.831 114.93 140.903C114.875 140.971 114.828 141.055 114.79 141.153H116.9V141.786H113.939ZM119.942 141.786L118.868 140.245L118.318 140.769V141.786H117.615V137.118H118.318V140.059L119.866 138.448H120.62L119.322 139.848L120.691 141.786H119.942Z" fill="black"/>
<path d="M134.031 139.707C134.031 139.418 134.103 139.153 134.248 138.915C134.393 138.676 134.589 138.486 134.837 138.345C135.088 138.205 135.367 138.134 135.674 138.134C136.007 138.134 136.297 138.215 136.544 138.377C136.791 138.535 136.983 138.765 137.119 139.068C137.26 139.366 137.33 139.727 137.33 140.149C137.33 140.728 137.258 141.212 137.113 141.6C136.972 141.988 136.772 142.28 136.512 142.476C136.252 142.672 135.947 142.77 135.598 142.77C135.312 142.77 135.048 142.702 134.805 142.566C134.562 142.434 134.366 142.248 134.216 142.009L134.632 141.575C134.73 141.749 134.866 141.89 135.041 141.997C135.216 142.103 135.406 142.157 135.61 142.157C135.823 142.157 136.009 142.095 136.167 141.971C136.324 141.852 136.446 141.677 136.531 141.447C136.621 141.217 136.668 140.937 136.672 140.609C136.612 140.733 136.529 140.841 136.422 140.935C136.316 141.029 136.192 141.101 136.052 141.153C135.915 141.204 135.766 141.229 135.604 141.229C135.31 141.229 135.043 141.161 134.805 141.025C134.566 140.888 134.376 140.707 134.236 140.481C134.099 140.251 134.031 139.993 134.031 139.707ZM135.668 138.736C135.493 138.736 135.331 138.78 135.182 138.87C135.037 138.955 134.92 139.072 134.83 139.221C134.745 139.366 134.702 139.528 134.702 139.707C134.702 139.882 134.745 140.042 134.83 140.187C134.92 140.332 135.037 140.449 135.182 140.539C135.331 140.624 135.493 140.667 135.668 140.667C135.847 140.667 136.009 140.624 136.154 140.539C136.299 140.449 136.414 140.332 136.499 140.187C136.589 140.042 136.633 139.882 136.633 139.707C136.633 139.533 136.589 139.371 136.499 139.221C136.41 139.072 136.292 138.955 136.147 138.87C136.003 138.78 135.843 138.736 135.668 138.736ZM137.969 141.786V140.967H138.551V141.786H137.969ZM139.196 141.786C139.196 141.607 139.211 141.442 139.241 141.293C139.271 141.14 139.322 140.995 139.394 140.858C139.471 140.722 139.575 140.594 139.708 140.475C139.844 140.351 140.017 140.234 140.226 140.123C140.375 140.038 140.515 139.963 140.648 139.899C140.78 139.831 140.897 139.765 140.999 139.701C141.102 139.633 141.18 139.56 141.236 139.484C141.296 139.407 141.325 139.32 141.325 139.221C141.325 139.128 141.3 139.04 141.249 138.959C141.197 138.878 141.121 138.814 141.018 138.767C140.916 138.716 140.793 138.691 140.648 138.691C140.532 138.691 140.426 138.706 140.328 138.736C140.234 138.765 140.147 138.806 140.066 138.857C139.989 138.904 139.919 138.957 139.855 139.017C139.791 139.072 139.735 139.128 139.688 139.183L139.247 138.678C139.29 138.627 139.356 138.569 139.445 138.505C139.539 138.437 139.65 138.371 139.778 138.307C139.91 138.239 140.059 138.183 140.226 138.141C140.392 138.094 140.573 138.07 140.769 138.07C141.046 138.07 141.283 138.117 141.479 138.211C141.675 138.301 141.824 138.426 141.926 138.588C142.033 138.746 142.086 138.925 142.086 139.126C142.086 139.283 142.054 139.422 141.99 139.541C141.931 139.661 141.852 139.767 141.754 139.861C141.656 139.95 141.551 140.029 141.44 140.098C141.334 140.161 141.234 140.219 141.14 140.27C140.974 140.351 140.829 140.426 140.705 140.494C140.586 140.562 140.483 140.63 140.398 140.699C140.313 140.763 140.243 140.831 140.187 140.903C140.132 140.971 140.085 141.055 140.046 141.153H142.157V141.786H139.196ZM145.199 141.786L144.125 140.245L143.575 140.769V141.786H142.872V137.118H143.575V140.059L145.123 138.448H145.877L144.579 139.848L145.947 141.786H145.199Z" fill="black"/>
<path d="M159.287 139.707C159.287 139.418 159.359 139.153 159.504 138.915C159.649 138.676 159.845 138.486 160.092 138.345C160.344 138.205 160.623 138.134 160.93 138.134C161.263 138.134 161.553 138.215 161.8 138.377C162.047 138.535 162.239 138.765 162.375 139.068C162.516 139.366 162.586 139.727 162.586 140.149C162.586 140.728 162.514 141.212 162.369 141.6C162.228 141.988 162.028 142.28 161.768 142.476C161.508 142.672 161.203 142.77 160.853 142.77C160.568 142.77 160.303 142.702 160.06 142.566C159.817 142.434 159.621 142.248 159.472 142.009L159.888 141.575C159.986 141.749 160.122 141.89 160.297 141.997C160.472 142.103 160.662 142.157 160.866 142.157C161.079 142.157 161.265 142.095 161.422 141.971C161.58 141.852 161.702 141.677 161.787 141.447C161.876 141.217 161.923 140.937 161.928 140.609C161.868 140.733 161.785 140.841 161.678 140.935C161.572 141.029 161.448 141.101 161.307 141.153C161.171 141.204 161.022 141.229 160.86 141.229C160.566 141.229 160.299 141.161 160.06 141.025C159.822 140.888 159.632 140.707 159.491 140.481C159.355 140.251 159.287 139.993 159.287 139.707ZM160.924 138.736C160.749 138.736 160.587 138.78 160.438 138.87C160.293 138.955 160.176 139.072 160.086 139.221C160.001 139.366 159.958 139.528 159.958 139.707C159.958 139.882 160.001 140.042 160.086 140.187C160.176 140.332 160.293 140.449 160.438 140.539C160.587 140.624 160.749 140.667 160.924 140.667C161.103 140.667 161.265 140.624 161.41 140.539C161.555 140.449 161.67 140.332 161.755 140.187C161.845 140.042 161.889 139.882 161.889 139.707C161.889 139.533 161.845 139.371 161.755 139.221C161.665 139.072 161.548 138.955 161.403 138.87C161.258 138.78 161.099 138.736 160.924 138.736ZM163.225 141.786V140.967H163.807V141.786H163.225ZM164.452 141.786C164.452 141.607 164.467 141.442 164.497 141.293C164.527 141.14 164.578 140.995 164.65 140.858C164.727 140.722 164.831 140.594 164.963 140.475C165.1 140.351 165.273 140.234 165.481 140.123C165.631 140.038 165.771 139.963 165.903 139.899C166.036 139.831 166.153 139.765 166.255 139.701C166.357 139.633 166.436 139.56 166.492 139.484C166.551 139.407 166.581 139.32 166.581 139.221C166.581 139.128 166.556 139.04 166.505 138.959C166.453 138.878 166.377 138.814 166.274 138.767C166.172 138.716 166.048 138.691 165.903 138.691C165.788 138.691 165.682 138.706 165.584 138.736C165.49 138.765 165.403 138.806 165.322 138.857C165.245 138.904 165.174 138.957 165.111 139.017C165.047 139.072 164.991 139.128 164.944 139.183L164.503 138.678C164.546 138.627 164.612 138.569 164.701 138.505C164.795 138.437 164.906 138.371 165.034 138.307C165.166 138.239 165.315 138.183 165.481 138.141C165.648 138.094 165.829 138.07 166.025 138.07C166.302 138.07 166.539 138.117 166.735 138.211C166.931 138.301 167.08 138.426 167.182 138.588C167.289 138.746 167.342 138.925 167.342 139.126C167.342 139.283 167.31 139.422 167.246 139.541C167.187 139.661 167.108 139.767 167.01 139.861C166.912 139.95 166.807 140.029 166.696 140.098C166.59 140.161 166.49 140.219 166.396 140.27C166.23 140.351 166.085 140.426 165.961 140.494C165.842 140.562 165.739 140.63 165.654 140.699C165.569 140.763 165.498 140.831 165.443 140.903C165.388 140.971 165.341 141.055 165.302 141.153H167.413V141.786H164.452ZM170.455 141.786L169.381 140.245L168.831 140.769V141.786H168.128V137.118H168.831V140.059L170.378 138.448H171.133L169.835 139.848L171.203 141.786H170.455Z" fill="black"/>
<path d="M184.543 139.707C184.543 139.418 184.615 139.153 184.76 138.915C184.905 138.676 185.101 138.486 185.348 138.345C185.6 138.205 185.879 138.134 186.186 138.134C186.518 138.134 186.808 138.215 187.056 138.377C187.303 138.535 187.495 138.765 187.631 139.068C187.772 139.366 187.842 139.727 187.842 140.149C187.842 140.728 187.77 141.212 187.625 141.6C187.484 141.988 187.284 142.28 187.024 142.476C186.764 142.672 186.459 142.77 186.109 142.77C185.824 142.77 185.559 142.702 185.316 142.566C185.073 142.434 184.877 142.248 184.728 142.009L185.144 141.575C185.242 141.749 185.378 141.89 185.553 141.997C185.728 142.103 185.917 142.157 186.122 142.157C186.335 142.157 186.521 142.095 186.678 141.971C186.836 141.852 186.958 141.677 187.043 141.447C187.132 141.217 187.179 140.937 187.184 140.609C187.124 140.733 187.041 140.841 186.934 140.935C186.828 141.029 186.704 141.101 186.563 141.153C186.427 141.204 186.278 141.229 186.116 141.229C185.821 141.229 185.555 141.161 185.316 141.025C185.078 140.888 184.888 140.707 184.747 140.481C184.611 140.251 184.543 139.993 184.543 139.707ZM186.18 138.736C186.005 138.736 185.843 138.78 185.694 138.87C185.549 138.955 185.431 139.072 185.342 139.221C185.257 139.366 185.214 139.528 185.214 139.707C185.214 139.882 185.257 140.042 185.342 140.187C185.431 140.332 185.549 140.449 185.694 140.539C185.843 140.624 186.005 140.667 186.18 140.667C186.359 140.667 186.521 140.624 186.666 140.539C186.81 140.449 186.926 140.332 187.011 140.187C187.1 140.042 187.145 139.882 187.145 139.707C187.145 139.533 187.1 139.371 187.011 139.221C186.921 139.072 186.804 138.955 186.659 138.87C186.514 138.78 186.354 138.736 186.18 138.736ZM188.481 141.786V140.967H189.063V141.786H188.481ZM189.708 141.786C189.708 141.607 189.723 141.442 189.753 141.293C189.782 141.14 189.834 140.995 189.906 140.858C189.983 140.722 190.087 140.594 190.219 140.475C190.356 140.351 190.528 140.234 190.737 140.123C190.886 140.038 191.027 139.963 191.159 139.899C191.291 139.831 191.409 139.765 191.511 139.701C191.613 139.633 191.692 139.56 191.748 139.484C191.807 139.407 191.837 139.32 191.837 139.221C191.837 139.128 191.812 139.04 191.76 138.959C191.709 138.878 191.632 138.814 191.53 138.767C191.428 138.716 191.304 138.691 191.159 138.691C191.044 138.691 190.938 138.706 190.84 138.736C190.746 138.765 190.658 138.806 190.577 138.857C190.501 138.904 190.43 138.957 190.366 139.017C190.302 139.072 190.247 139.128 190.2 139.183L189.759 138.678C189.802 138.627 189.868 138.569 189.957 138.505C190.051 138.437 190.162 138.371 190.29 138.307C190.422 138.239 190.571 138.183 190.737 138.141C190.904 138.094 191.085 138.07 191.281 138.07C191.558 138.07 191.794 138.117 191.991 138.211C192.187 138.301 192.336 138.426 192.438 138.588C192.545 138.746 192.598 138.925 192.598 139.126C192.598 139.283 192.566 139.422 192.502 139.541C192.442 139.661 192.364 139.767 192.266 139.861C192.167 139.95 192.063 140.029 191.952 140.098C191.846 140.161 191.745 140.219 191.652 140.27C191.485 140.351 191.34 140.426 191.217 140.494C191.097 140.562 190.995 140.63 190.91 140.699C190.825 140.763 190.754 140.831 190.699 140.903C190.643 140.971 190.597 141.055 190.558 141.153H192.668V141.786H189.708ZM195.711 141.786L194.637 140.245L194.087 140.769V141.786H193.383V137.118H194.087V140.059L195.634 138.448H196.389L195.091 139.848L196.459 141.786H195.711Z" fill="black"/>
</g>
<defs>
<filter id="filter0_d_2578_537" x="0.952942" y="0.127452" width="228.207" height="178.669" filterUnits="userSpaceOnUse" color-interpolation-filters="sRGB">
<feFlood flood-opacity="0" result="BackgroundImageFix"/>
<feColorMatrix in="SourceAlpha" type="matrix" values="0 0 0 0 0 0 0 0 0 0 0 0 0 0 0 0 0 0 127 0" result="hardAlpha"/>
<feOffset dy="3.17451"/>
<feGaussianBlur stdDeviation="9.52353"/>
<feComposite in2="hardAlpha" operator="out"/>
<feColorMatrix type="matrix" values="0 0 0 0 0 0 0 0 0 0 0 0 0 0 0 0 0 0 0.1 0"/>
<feBlend mode="normal" in2="BackgroundImageFix" result="effect1_dropShadow_2578_537"/>
<feBlend mode="normal" in="SourceGraphic" in2="effect1_dropShadow_2578_537" result="shape"/>
</filter>
</defs>
</svg>
