<svg width="36" height="36" viewBox="0 0 36 36" fill="none" xmlns="http://www.w3.org/2000/svg">
<path d="M35.1691 11.327H19.6713V3.57682H20.8644C20.9426 3.57682 21.02 3.56137 21.0923 3.53136C21.1645 3.50135 21.2301 3.45737 21.2853 3.40194C21.3405 3.34652 21.3842 3.28073 21.4139 3.20836C21.4436 3.136 21.4588 3.05849 21.4584 2.98026V0.596542C21.4588 0.518319 21.4436 0.440803 21.4139 0.36844C21.3842 0.296078 21.3405 0.230303 21.2853 0.174876C21.2301 0.119449 21.1645 0.0754547 21.0923 0.0454451C21.02 0.0154354 20.9426 -6.79004e-07 20.8644 0H0.596546C0.438331 0 0.286599 0.0628502 0.174725 0.174725C0.0628502 0.286599 0 0.438328 0 0.596542V2.98026C0 3.13848 0.0628502 3.29022 0.174725 3.4021C0.286599 3.51397 0.438331 3.57682 0.596546 3.57682H1.78964V11.327H0.596546C0.438331 11.327 0.286599 11.3899 0.174725 11.5017C0.0628502 11.6136 0 11.7653 0 11.9235V14.3073C0 14.4655 0.0628502 14.6172 0.174725 14.7291C0.286599 14.841 0.438331 14.9038 0.596546 14.9038H1.78964V22.6515H0.596546C0.438331 22.6515 0.286599 22.7144 0.174725 22.8263C0.0628502 22.9381 0 23.0899 0 23.2481V25.6318C0 25.79 0.0628502 25.9417 0.174725 26.0536C0.286599 26.1655 0.438331 26.2283 0.596546 26.2283H1.78964V34.5726C1.78964 34.7308 1.85249 34.8825 1.96437 34.9944C2.07624 35.1063 2.22798 35.1691 2.38619 35.1691H33.3919C33.4701 35.1691 33.5476 35.1537 33.6198 35.1237C33.692 35.0937 33.7576 35.0497 33.8128 34.9943C33.868 34.9388 33.9117 34.8731 33.9414 34.8007C33.9711 34.7283 33.9863 34.6508 33.9859 34.5726V14.9038H35.179C35.3373 14.9038 35.489 14.841 35.6009 14.7291C35.7127 14.6172 35.7756 14.4655 35.7756 14.3073V11.9235C35.7756 11.7653 35.7127 11.6136 35.6009 11.5017C35.489 11.3899 35.3373 11.327 35.179 11.327M22.6614 13.7107H15.5078V12.5176H22.6614V13.7107ZM9.5423 12.5176H11.926V22.6515H9.5423V12.5176ZM14.3122 13.7107H13.1191V12.5176H14.3122V13.7107ZM16.0994 23.8446V25.0352H13.129V23.8446H16.0994ZM13.129 26.2283H16.0994V33.9785H13.129V26.2283ZM16.0994 22.6515H13.129V14.9038H16.0994V22.6515ZM18.4831 11.327H13.1142V3.57682H18.4782L18.4831 11.327ZM20.2728 2.39362H13.1191V1.20052H20.2728V2.39362ZM11.926 1.20052V11.3344H9.5423V1.1931L11.926 1.20052ZM1.19805 1.20052H8.35168V2.39362H1.19805V1.20052ZM2.98522 3.58424H8.35168V11.3344H2.98027L2.98522 3.58424ZM1.19805 12.525H8.35168V13.7181H1.19805V12.525ZM2.98522 14.9112H8.35168V22.6589H2.98027L2.98522 14.9112ZM1.19805 23.852H8.35168V25.0427H1.19805V23.852ZM2.98522 26.2358H8.35168V33.9785H2.98027L2.98522 26.2358ZM9.5423 33.9859V23.8446H11.926V33.9785L9.5423 33.9859ZM17.2925 25.6392V14.9038H22.6565V33.9785H17.2875L17.2925 25.6392ZM23.8496 33.9859V12.5176H26.2333V33.9785L23.8496 33.9859ZM32.7904 33.9859H27.4214V14.9038H32.7854L32.7904 33.9859ZM34.5775 13.7181H27.4214V12.5176H34.5726L34.5775 13.7181Z" fill="white"/>
</svg>
