<svg width="24" height="25" viewBox="0 0 24 25" fill="none" xmlns="http://www.w3.org/2000/svg">
<g opacity="0.8">
<path d="M8 17.2619H16M11.0177 3.02596L4.23539 8.30109C3.78202 8.65371 3.55534 8.83002 3.39203 9.05082C3.24737 9.24641 3.1396 9.46675 3.07403 9.70101C3 9.96548 3 10.2527 3 10.827V18.0619C3 19.1821 3 19.7421 3.21799 20.1699C3.40973 20.5463 3.71569 20.8522 4.09202 21.044C4.51984 21.2619 5.07989 21.2619 6.2 21.2619H17.8C18.9201 21.2619 19.4802 21.2619 19.908 21.044C20.2843 20.8522 20.5903 20.5463 20.782 20.1699C21 19.7421 21 19.1821 21 18.0619V10.827C21 10.2527 21 9.96548 20.926 9.70101C20.8604 9.46675 20.7526 9.24641 20.608 9.05082C20.4447 8.83002 20.218 8.65371 19.7646 8.30109L12.9823 3.02596C12.631 2.75271 12.4553 2.61608 12.2613 2.56356C12.0902 2.51722 11.9098 2.51722 11.7387 2.56356C11.5447 2.61608 11.369 2.75271 11.0177 3.02596Z" stroke="#F5F5F5" stroke-width="2" stroke-linecap="round" stroke-linejoin="round"/>
</g>
</svg>
