<svg width="24" height="25" viewBox="0 0 24 25" fill="none" xmlns="http://www.w3.org/2000/svg">
<path d="M12 16.262V21.262M12 16.262L18 21.262M12 16.262L6 21.262M8 7.26196V12.262M12 9.26196V12.262M16 11.262V12.262M22 3.26196H2M3 3.26196H21V11.462C21 13.1421 21 13.9822 20.673 14.6239C20.3854 15.1884 19.9265 15.6474 19.362 15.935C18.7202 16.262 17.8802 16.262 16.2 16.262H7.8C6.11984 16.262 5.27976 16.262 4.63803 15.935C4.07354 15.6474 3.6146 15.1884 3.32698 14.6239C3 13.9822 3 13.1421 3 11.462V3.26196Z" stroke="#121212" stroke-width="2" stroke-linecap="round" stroke-linejoin="round"/>
</svg>
