<svg width="24" height="25" viewBox="0 0 24 25" fill="none" xmlns="http://www.w3.org/2000/svg">
<path d="M8 13.2622V17.2622M16 11.2622V17.2622M12 7.26221V17.2622M7.8 21.2622H16.2C17.8802 21.2622 18.7202 21.2622 19.362 20.9352C19.9265 20.6476 20.3854 20.1887 20.673 19.6242C21 18.9824 21 18.1424 21 16.4622V8.06221C21 6.38205 21 5.54197 20.673 4.90024C20.3854 4.33575 19.9265 3.87681 19.362 3.58919C18.7202 3.26221 17.8802 3.26221 16.2 3.26221H7.8C6.11984 3.26221 5.27976 3.26221 4.63803 3.58919C4.07354 3.87681 3.6146 4.33575 3.32698 4.90024C3 5.54197 3 6.38205 3 8.06221V16.4622C3 18.1424 3 18.9824 3.32698 19.6242C3.6146 20.1887 4.07354 20.6476 4.63803 20.9352C5.27976 21.2622 6.11984 21.2622 7.8 21.2622Z" stroke="#121212" stroke-width="2" stroke-linecap="round" stroke-linejoin="round"/>
</svg>
