<svg width="24" height="25" viewBox="0 0 24 25" fill="none" xmlns="http://www.w3.org/2000/svg">
<path d="M20 10.2622V7.06221C20 5.38205 20 4.54197 19.673 3.90024C19.3854 3.33575 18.9265 2.87681 18.362 2.58919C17.7202 2.26221 16.8802 2.26221 15.2 2.26221H8.8C7.11984 2.26221 6.27976 2.26221 5.63803 2.58919C5.07354 2.87681 4.6146 3.33575 4.32698 3.90024C4 4.54197 4 5.38205 4 7.06221V17.4622C4 19.1424 4 19.9824 4.32698 20.6242C4.6146 21.1887 5.07354 21.6476 5.63803 21.9352C6.27976 22.2622 7.11984 22.2622 8.8 22.2622H10.5M13 11.2622H8M11 15.2622H8M16 7.26221H8M19.25 17.2622V15.5122C19.25 14.5457 18.4665 13.7622 17.5 13.7622C16.5335 13.7622 15.75 14.5457 15.75 15.5122V17.2622M15.6 21.2622H19.4C19.9601 21.2622 20.2401 21.2622 20.454 21.1532C20.6422 21.0573 20.7951 20.9044 20.891 20.7162C21 20.5023 21 20.2223 21 19.6622V18.8622C21 18.3022 21 18.0221 20.891 17.8082C20.7951 17.6201 20.6422 17.4671 20.454 17.3712C20.2401 17.2622 19.9601 17.2622 19.4 17.2622H15.6C15.0399 17.2622 14.7599 17.2622 14.546 17.3712C14.3578 17.4671 14.2049 17.6201 14.109 17.8082C14 18.0221 14 18.3022 14 18.8622V19.6622C14 20.2223 14 20.5023 14.109 20.7162C14.2049 20.9044 14.3578 21.0573 14.546 21.1532C14.7599 21.2622 15.0399 21.2622 15.6 21.2622Z" stroke="#121212" stroke-width="2" stroke-linecap="round" stroke-linejoin="round"/>
</svg>
