<svg width="24" height="25" viewBox="0 0 24 25" fill="none" xmlns="http://www.w3.org/2000/svg">
<path d="M21.2104 16.1513C20.5742 17.6558 19.5792 18.9815 18.3123 20.0126C17.0454 21.0437 15.5452 21.7487 13.9428 22.0661C12.3405 22.3834 10.6848 22.3034 9.12055 21.8331C7.55627 21.3627 6.13103 20.5164 4.96942 19.368C3.80782 18.2195 2.94522 16.8041 2.45704 15.2452C1.96886 13.6864 1.86996 12.0318 2.169 10.4259C2.46804 8.82008 3.1559 7.31193 4.17245 6.03333C5.189 4.75473 6.50329 3.74462 8.0004 3.0913M21.2392 8.43447C21.6395 9.40093 21.8851 10.4227 21.9684 11.4621C21.989 11.7189 21.9993 11.8473 21.9483 11.963C21.9057 12.0596 21.8213 12.151 21.7284 12.2012C21.6172 12.2613 21.4783 12.2613 21.2004 12.2613H12.8004C12.5204 12.2613 12.3804 12.2613 12.2734 12.2068C12.1793 12.1589 12.1028 12.0824 12.0549 11.9883C12.0004 11.8813 12.0004 11.7413 12.0004 11.4613V3.0613C12.0004 2.78343 12.0004 2.6445 12.0605 2.53328C12.1107 2.44038 12.2021 2.35599 12.2987 2.31339C12.4144 2.2624 12.5428 2.27269 12.7996 2.29328C13.839 2.37662 14.8608 2.62218 15.8272 3.0225C17.0405 3.52505 18.1429 4.26165 19.0715 5.19023C20.0001 6.11882 20.7367 7.22121 21.2392 8.43447Z" stroke="#121212" stroke-width="2" stroke-linecap="round" stroke-linejoin="round"/>
</svg>
