<svg width="24" height="25" viewBox="0 0 24 25" fill="none" xmlns="http://www.w3.org/2000/svg">
<path d="M16 6.26172V5.46172C16 4.34161 16 3.78156 15.782 3.35374C15.5903 2.97741 15.2843 2.67145 14.908 2.47971C14.4802 2.26172 13.9201 2.26172 12.8 2.26172H11.2C10.0799 2.26172 9.51984 2.26172 9.09202 2.47971C8.71569 2.67145 8.40973 2.97741 8.21799 3.35374C8 3.78156 8 4.34161 8 5.46172V6.26172M10 11.7617V16.7617M14 11.7617V16.7617M3 6.26172H21M19 6.26172V17.4617C19 19.1419 19 19.982 18.673 20.6237C18.3854 21.1882 17.9265 21.6471 17.362 21.9347C16.7202 22.2617 15.8802 22.2617 14.2 22.2617H9.8C8.11984 22.2617 7.27976 22.2617 6.63803 21.9347C6.07354 21.6471 5.6146 21.1882 5.32698 20.6237C5 19.982 5 19.1419 5 17.4617V6.26172" stroke="#121212" stroke-width="2" stroke-linecap="round" stroke-linejoin="round"/>
</svg>
