<svg width="24" height="25" viewBox="0 0 24 25" fill="none" xmlns="http://www.w3.org/2000/svg">
<path d="M16 3.72948C17.4817 4.46583 18.5 5.99486 18.5 7.76172C18.5 9.52858 17.4817 11.0576 16 11.794M18 17.0281C19.5115 17.7121 20.8725 18.8267 22 20.2617M2 20.2617C3.94649 17.7843 6.58918 16.2617 9.5 16.2617C12.4108 16.2617 15.0535 17.7843 17 20.2617M14 7.76172C14 10.247 11.9853 12.2617 9.5 12.2617C7.01472 12.2617 5 10.247 5 7.76172C5 5.27644 7.01472 3.26172 9.5 3.26172C11.9853 3.26172 14 5.27644 14 7.76172Z" stroke="#121212" stroke-width="2" stroke-linecap="round" stroke-linejoin="round"/>
</svg>
