<svg width="24" height="25" viewBox="0 0 24 25" fill="none" xmlns="http://www.w3.org/2000/svg">
<path d="M11.5 5.26172H11.9344C14.9816 5.26172 16.5053 5.26172 17.0836 5.80901C17.5836 6.28209 17.8051 6.979 17.6702 7.65393C17.514 8.43473 16.2701 9.31457 13.7823 11.0742L9.71772 13.9492C7.2299 15.7089 5.98599 16.5887 5.82984 17.3695C5.69486 18.0444 5.91642 18.7414 6.41636 19.2144C6.99474 19.7617 8.51836 19.7617 11.5656 19.7617H12.5M8 5.26172C8 6.91857 6.65685 8.26172 5 8.26172C3.34315 8.26172 2 6.91857 2 5.26172C2 3.60486 3.34315 2.26172 5 2.26172C6.65685 2.26172 8 3.60486 8 5.26172ZM22 19.2617C22 20.9186 20.6569 22.2617 19 22.2617C17.3431 22.2617 16 20.9186 16 19.2617C16 17.6049 17.3431 16.2617 19 16.2617C20.6569 16.2617 22 17.6049 22 19.2617Z" stroke="#121212" stroke-width="2" stroke-linecap="round" stroke-linejoin="round"/>
</svg>
