<svg width="20" height="21" viewBox="0 0 20 21" fill="none" xmlns="http://www.w3.org/2000/svg">
<path d="M6 11.262V15.262M14 9.26196V15.262M10 5.26196V15.262M5.8 19.262H14.2C15.8802 19.262 16.7202 19.262 17.362 18.935C17.9265 18.6474 18.3854 18.1884 18.673 17.6239C19 16.9822 19 16.1421 19 14.462V6.06196C19 4.38181 19 3.54173 18.673 2.89999C18.3854 2.33551 17.9265 1.87656 17.362 1.58894C16.7202 1.26196 15.8802 1.26196 14.2 1.26196H5.8C4.11984 1.26196 3.27976 1.26196 2.63803 1.58894C2.07354 1.87656 1.6146 2.33551 1.32698 2.89999C1 3.54173 1 4.38181 1 6.06196V14.462C1 16.1421 1 16.9822 1.32698 17.6239C1.6146 18.1884 2.07354 18.6474 2.63803 18.935C3.27976 19.262 4.11984 19.262 5.8 19.262Z" stroke="#F5F5F5" stroke-width="2" stroke-linecap="round" stroke-linejoin="round"/>
</svg>
