<svg width="24" height="25" viewBox="0 0 24 25" fill="none" xmlns="http://www.w3.org/2000/svg">
<path d="M8 17.2624H16M11.0177 3.02645L4.23539 8.30158C3.78202 8.6542 3.55534 8.83051 3.39203 9.05131C3.24737 9.2469 3.1396 9.46723 3.07403 9.7015C3 9.96597 3 10.2531 3 10.8275V18.0624C3 19.1825 3 19.7426 3.21799 20.1704C3.40973 20.5467 3.71569 20.8527 4.09202 21.0444C4.51984 21.2624 5.07989 21.2624 6.2 21.2624H17.8C18.9201 21.2624 19.4802 21.2624 19.908 21.0444C20.2843 20.8527 20.5903 20.5467 20.782 20.1704C21 19.7426 21 19.1825 21 18.0624V10.8275C21 10.2531 21 9.96597 20.926 9.7015C20.8604 9.46723 20.7526 9.2469 20.608 9.05131C20.4447 8.83051 20.218 8.6542 19.7646 8.30158L12.9823 3.02645C12.631 2.7532 12.4553 2.61657 12.2613 2.56405C12.0902 2.51771 11.9098 2.51771 11.7387 2.56405C11.5447 2.61657 11.369 2.7532 11.0177 3.02645Z" stroke="#121212" stroke-width="2" stroke-linecap="round" stroke-linejoin="round"/>
</svg>
