<svg width="24" height="25" viewBox="0 0 24 25" fill="none" xmlns="http://www.w3.org/2000/svg">
<path d="M20 12.7617V7.06172C20 5.38156 20 4.54148 19.673 3.89975C19.3854 3.33526 18.9265 2.87632 18.362 2.5887C17.7202 2.26172 16.8802 2.26172 15.2 2.26172H8.8C7.11984 2.26172 6.27976 2.26172 5.63803 2.5887C5.07354 2.87632 4.6146 3.33526 4.32698 3.89975C4 4.54148 4 5.38156 4 7.06172V17.4617C4 19.1419 4 19.982 4.32698 20.6237C4.6146 21.1882 5.07354 21.6471 5.63803 21.9347C6.27976 22.2617 7.11984 22.2617 8.8 22.2617H12M14 11.2617H8M10 15.2617H8M16 7.26172H8M14.5 19.2617L16.5 21.2617L21 16.7617" stroke="white" stroke-width="2" stroke-linecap="round" stroke-linejoin="round"/>
</svg>
