<svg width="19" height="23" viewBox="0 0 19 23" fill="none" xmlns="http://www.w3.org/2000/svg">
<path d="M17 11.762V6.06196C17 4.38181 17 3.54173 16.673 2.89999C16.3854 2.33551 15.9265 1.87656 15.362 1.58894C14.7202 1.26196 13.8802 1.26196 12.2 1.26196H5.8C4.11984 1.26196 3.27976 1.26196 2.63803 1.58894C2.07354 1.87656 1.6146 2.33551 1.32698 2.89999C1 3.54173 1 4.38181 1 6.06196V16.462C1 18.1421 1 18.9822 1.32698 19.6239C1.6146 20.1884 2.07354 20.6474 2.63803 20.935C3.27976 21.262 4.11984 21.262 5.8 21.262H9M11 10.262H5M7 14.262H5M13 6.26196H5M11.5 18.262L13.5 20.262L18 15.762" stroke="#121212" stroke-width="2" stroke-linecap="round" stroke-linejoin="round"/>
</svg>
