<svg width="5" height="15" viewBox="0 0 5 15" fill="none" xmlns="http://www.w3.org/2000/svg">
<path d="M2.50033 8.33325C2.96056 8.33325 3.33366 7.96016 3.33366 7.49992C3.33366 7.03968 2.96056 6.66659 2.50033 6.66659C2.04009 6.66659 1.66699 7.03968 1.66699 7.49992C1.66699 7.96016 2.04009 8.33325 2.50033 8.33325Z" stroke="#0A0A0A" stroke-width="1.66667" stroke-linecap="round" stroke-linejoin="round"/>
<path d="M2.50033 2.49992C2.96056 2.49992 3.33366 2.12682 3.33366 1.66659C3.33366 1.20635 2.96056 0.833252 2.50033 0.833252C2.04009 0.833252 1.66699 1.20635 1.66699 1.66659C1.66699 2.12682 2.04009 2.49992 2.50033 2.49992Z" stroke="#0A0A0A" stroke-width="1.66667" stroke-linecap="round" stroke-linejoin="round"/>
<path d="M2.50033 14.1666C2.96056 14.1666 3.33366 13.7935 3.33366 13.3333C3.33366 12.873 2.96056 12.4999 2.50033 12.4999C2.04009 12.4999 1.66699 12.873 1.66699 13.3333C1.66699 13.7935 2.04009 14.1666 2.50033 14.1666Z" stroke="#0A0A0A" stroke-width="1.66667" stroke-linecap="round" stroke-linejoin="round"/>
</svg>
