<svg width="24" height="25" viewBox="0 0 24 25" fill="none" xmlns="http://www.w3.org/2000/svg">
<g opacity="0.8">
<path d="M11.5 5.26196H11.9344C14.9816 5.26196 16.5053 5.26196 17.0836 5.80925C17.5836 6.28233 17.8051 6.97924 17.6702 7.65417C17.514 8.43498 16.2701 9.31482 13.7823 11.0745L9.71772 13.9494C7.2299 15.7091 5.98599 16.5889 5.82984 17.3698C5.69486 18.0447 5.91642 18.7416 6.41636 19.2147C6.99474 19.762 8.51836 19.762 11.5656 19.762H12.5M8 5.26196C8 6.91882 6.65685 8.26196 5 8.26196C3.34315 8.26196 2 6.91882 2 5.26196C2 3.60511 3.34315 2.26196 5 2.26196C6.65685 2.26196 8 3.60511 8 5.26196ZM22 19.262C22 20.9188 20.6569 22.262 19 22.262C17.3431 22.262 16 20.9188 16 19.262C16 17.6051 17.3431 16.262 19 16.262C20.6569 16.262 22 17.6051 22 19.262Z" stroke="white" stroke-width="2" stroke-linecap="round" stroke-linejoin="round"/>
</g>
</svg>
