<svg width="24" height="25" viewBox="0 0 24 25" fill="none" xmlns="http://www.w3.org/2000/svg">
<g opacity="0.8">
<path d="M2 2.58643H3.30616C3.55218 2.58643 3.67519 2.58643 3.77418 2.63167C3.86142 2.67153 3.93535 2.73565 3.98715 2.81637C4.04593 2.90797 4.06333 3.02975 4.09812 3.27329L4.57143 6.58643M4.57143 6.58643L5.62332 14.3178C5.75681 15.2989 5.82355 15.7895 6.0581 16.1588C6.26478 16.4841 6.56108 16.7429 6.91135 16.9038C7.30886 17.0864 7.80394 17.0864 8.79411 17.0864H17.352C18.2945 17.0864 18.7658 17.0864 19.151 16.9168C19.4905 16.7673 19.7818 16.5263 19.9923 16.2206C20.2309 15.874 20.3191 15.4111 20.4955 14.4852L21.8191 7.53612C21.8812 7.21023 21.9122 7.04729 21.8672 6.91993C21.8278 6.8082 21.7499 6.71411 21.6475 6.65444C21.5308 6.58643 21.365 6.58643 21.0332 6.58643H4.57143ZM10 21.5864C10 22.1387 9.55228 22.5864 9 22.5864C8.44772 22.5864 8 22.1387 8 21.5864C8 21.0341 8.44772 20.5864 9 20.5864C9.55228 20.5864 10 21.0341 10 21.5864ZM18 21.5864C18 22.1387 17.5523 22.5864 17 22.5864C16.4477 22.5864 16 22.1387 16 21.5864C16 21.0341 16.4477 20.5864 17 20.5864C17.5523 20.5864 18 21.0341 18 21.5864Z" stroke="#121212" stroke-width="2" stroke-linecap="round" stroke-linejoin="round"/>
</g>
</svg>
