<svg width="24" height="25" viewBox="0 0 24 25" fill="none" xmlns="http://www.w3.org/2000/svg">
<g opacity="0.8">
<path d="M16 16.083V18.883C16 20.0031 16 20.5632 15.782 20.991C15.5903 21.3673 15.2843 21.6733 14.908 21.865C14.4802 22.083 13.9201 22.083 12.8 22.083H5.2C4.0799 22.083 3.51984 22.083 3.09202 21.865C2.71569 21.6733 2.40973 21.3673 2.21799 20.991C2 20.5632 2 20.0031 2 18.883V11.283C2 10.1629 2 9.60285 2.21799 9.17503C2.40973 8.7987 2.71569 8.49274 3.09202 8.30099C3.51984 8.08301 4.0799 8.08301 5.2 8.08301H8M11.2 16.083H18.8C19.9201 16.083 20.4802 16.083 20.908 15.865C21.2843 15.6733 21.5903 15.3673 21.782 14.991C22 14.5632 22 14.0031 22 12.883V5.28301C22 4.1629 22 3.60285 21.782 3.17503C21.5903 2.7987 21.2843 2.49274 20.908 2.30099C20.4802 2.08301 19.9201 2.08301 18.8 2.08301H11.2C10.0799 2.08301 9.51984 2.08301 9.09202 2.30099C8.71569 2.49274 8.40973 2.7987 8.21799 3.17503C8 3.60285 8 4.1629 8 5.28301V12.883C8 14.0031 8 14.5632 8.21799 14.991C8.40973 15.3673 8.71569 15.6733 9.09202 15.865C9.51984 16.083 10.0799 16.083 11.2 16.083Z" stroke="#121212" stroke-width="2" stroke-linecap="round" stroke-linejoin="round"/>
</g>
</svg>
