<svg width="10" height="10" viewBox="0 0 10 10" fill="none" xmlns="http://www.w3.org/2000/svg">
<g clip-path="url(#clip0_3086_22065)">
<path d="M2.5 0.625V0H0.3125C0.139902 0 0 0.139902 0 0.3125V2.5H0.625V1.06563L3.52813 3.96875L3.96875 3.52813L1.06563 0.625H2.5ZM9.6875 0H7.5V0.625H8.93437L6.03125 3.52813L6.47187 3.96875L9.375 1.06563V2.5H10V0.3125C10 0.139902 9.8601 0 9.6875 0ZM9.375 8.93437L6.47187 6.03125L6.03125 6.47187L8.93437 9.375H7.5V10H9.6875C9.8601 10 10 9.8601 10 9.6875V7.5H9.375V8.93437ZM3.52813 6.02813L0.625 8.93437V7.5H0V9.6875C0 9.8601 0.139902 10 0.3125 10H2.5V9.375H1.06563L3.96875 6.47187L3.52813 6.02813Z" fill="white"/>
</g>
<defs>
<clipPath id="clip0_3086_22065">
<rect width="10" height="10" fill="white"/>
</clipPath>
</defs>
</svg>
