<svg width="24" height="25" viewBox="0 0 24 25" fill="none" xmlns="http://www.w3.org/2000/svg">
<g opacity="0.8">
<path d="M21.2104 16.152C20.5742 17.6565 19.5792 18.9822 18.3123 20.0133C17.0454 21.0444 15.5452 21.7495 13.9428 22.0668C12.3405 22.3842 10.6848 22.3042 9.12055 21.8338C7.55627 21.3635 6.13103 20.5171 4.96942 19.3687C3.80782 18.2203 2.94522 16.8048 2.45704 15.246C1.96886 13.6872 1.86996 12.0325 2.169 10.4267C2.46804 8.82081 3.1559 7.31266 4.17245 6.03406C5.189 4.75546 6.50329 3.74535 8.0004 3.09203M21.2392 8.4352C21.6395 9.40166 21.8851 10.4234 21.9684 11.4629C21.989 11.7197 21.9993 11.8481 21.9483 11.9637C21.9057 12.0604 21.8213 12.1518 21.7284 12.202C21.6172 12.262 21.4783 12.262 21.2004 12.262H12.8004C12.5204 12.262 12.3804 12.262 12.2734 12.2075C12.1793 12.1596 12.1028 12.0831 12.0549 11.989C12.0004 11.8821 12.0004 11.7421 12.0004 11.462V3.06203C12.0004 2.78417 12.0004 2.64523 12.0605 2.53401C12.1107 2.44111 12.2021 2.35672 12.2987 2.31413C12.4144 2.26313 12.5428 2.27343 12.7996 2.29402C13.839 2.37735 14.8608 2.62291 15.8272 3.02324C17.0405 3.52578 18.1429 4.26238 19.0715 5.19096C20.0001 6.11955 20.7367 7.22194 21.2392 8.4352Z" stroke="white" stroke-width="2" stroke-linecap="round" stroke-linejoin="round"/>
</g>
</svg>
