<svg width="32" height="32" viewBox="0 0 32 32" fill="none" xmlns="http://www.w3.org/2000/svg">
<rect width="32" height="32" rx="16" fill="#78FFB6"/>
<path d="M16 24.0002H25M7 24.0002H8.67454C9.16372 24.0002 9.40832 24.0002 9.63849 23.945C9.84256 23.896 10.0377 23.8152 10.2166 23.7055C10.4184 23.5818 10.5914 23.4089 10.9373 23.063L23.5 10.5002C24.3285 9.6718 24.3285 8.32865 23.5 7.50023C22.6716 6.6718 21.3285 6.6718 20.5 7.50023L7.93726 20.063C7.59136 20.4089 7.4184 20.5818 7.29472 20.7837C7.18506 20.9626 7.10425 21.1577 7.05526 21.3618C7 21.5919 7 21.8365 7 22.3257V24.0002Z" stroke="black" stroke-width="1.5" stroke-linecap="round" stroke-linejoin="round"/>
</svg>
