<svg width="19" height="21" viewBox="0 0 19 21" fill="none" xmlns="http://www.w3.org/2000/svg">
<path d="M17.1299 19.2617C17.1299 17.8662 17.1299 17.1684 16.9576 16.6006C16.5698 15.3222 15.5694 14.3218 14.291 13.934C13.7232 13.7617 13.0254 13.7617 11.6299 13.7617H6.62989C5.23432 13.7617 4.53654 13.7617 3.96874 13.934C2.69034 14.3218 1.68992 15.3222 1.30212 16.6006C1.12988 17.1684 1.12988 17.8662 1.12988 19.2617M13.6299 5.76172C13.6299 8.247 11.6152 10.2617 9.12988 10.2617C6.6446 10.2617 4.62988 8.247 4.62988 5.76172C4.62988 3.27644 6.6446 1.26172 9.12988 1.26172C11.6152 1.26172 13.6299 3.27644 13.6299 5.76172Z" stroke="#667085" stroke-width="2" stroke-linecap="round" stroke-linejoin="round"/>
</svg>
