<svg width="21" height="22" viewBox="0 0 21 22" fill="none" xmlns="http://www.w3.org/2000/svg">
<path d="M6.51016 8.11507C7.20616 9.56469 8.15495 10.9233 9.35652 12.1249C10.5581 13.3265 11.9167 14.2753 13.3664 14.9713C13.4911 15.0311 13.5534 15.0611 13.6323 15.0841C13.9126 15.1658 14.2569 15.1071 14.4943 14.9371C14.5611 14.8892 14.6183 14.8321 14.7326 14.7178C15.0822 14.3682 15.257 14.1934 15.4328 14.0791C16.0957 13.6481 16.9503 13.6481 17.6132 14.0791C17.7889 14.1934 17.9637 14.3682 18.3133 14.7178L18.5082 14.9126C19.0397 15.4441 19.3054 15.7098 19.4497 15.9952C19.7368 16.5627 19.7368 17.233 19.4497 17.8006C19.3054 18.086 19.0397 18.3517 18.5082 18.8831L18.3506 19.0408C17.821 19.5704 17.5561 19.8352 17.1961 20.0374C16.7966 20.2619 16.1761 20.4232 15.7179 20.4219C15.3049 20.4206 15.0227 20.3405 14.4583 20.1803C11.4249 19.3193 8.56252 17.6949 6.17454 15.3069C3.78656 12.9189 2.16209 10.0565 1.30112 7.02315C1.14091 6.45871 1.06081 6.17648 1.05958 5.76354C1.05822 5.30532 1.21958 4.68482 1.444 4.28532C1.64625 3.92529 1.91106 3.66047 2.44068 3.13085L2.59831 2.97322C3.12976 2.44177 3.39548 2.17605 3.68086 2.03171C4.24842 1.74464 4.91869 1.74464 5.48625 2.03171C5.77163 2.17605 6.03735 2.44177 6.56879 2.97322L6.76366 3.16809C7.11327 3.51769 7.28807 3.6925 7.40236 3.86827C7.83335 4.53116 7.83335 5.38574 7.40236 6.04864C7.28807 6.22441 7.11327 6.39922 6.76366 6.74882C6.64935 6.86313 6.59219 6.92029 6.54435 6.9871C6.37434 7.22453 6.31564 7.56879 6.39736 7.84914C6.42036 7.92804 6.45029 7.99038 6.51016 8.11507Z" stroke="#667085" stroke-width="2" stroke-linecap="round" stroke-linejoin="round"/>
</svg>
