<svg width="17" height="19" viewBox="0 0 17 19" fill="none" xmlns="http://www.w3.org/2000/svg">
<path d="M11.9632 4.2618V3.59513C11.9632 2.66171 11.9632 2.195 11.7816 1.83848C11.6218 1.52488 11.3668 1.26991 11.0532 1.11012C10.6967 0.928467 10.23 0.928467 9.29655 0.928467H7.96322C7.02979 0.928467 6.56308 0.928467 6.20657 1.11012C5.89296 1.26991 5.63799 1.52488 5.47821 1.83848C5.29655 2.195 5.29655 2.66171 5.29655 3.59513V4.2618M6.96322 8.84513V13.0118M10.2965 8.84513V13.0118M1.12988 4.2618H16.1299M14.4632 4.2618V13.5951C14.4632 14.9953 14.4632 15.6953 14.1907 16.2301C13.951 16.7005 13.5686 17.083 13.0982 17.3227C12.5634 17.5951 11.8633 17.5951 10.4632 17.5951H6.79655C5.39642 17.5951 4.69635 17.5951 4.16157 17.3227C3.69117 17.083 3.30872 16.7005 3.06903 16.2301C2.79655 15.6953 2.79655 14.9953 2.79655 13.5951V4.2618" stroke="#2C2D2E" stroke-width="1.66667" stroke-linecap="round" stroke-linejoin="round"/>
</svg>
