<svg width="23" height="23" viewBox="0 0 23 23" fill="none" xmlns="http://www.w3.org/2000/svg">
<path d="M8.12988 13.9284C8.12988 15.217 9.17455 16.2617 10.4632 16.2617H12.6299C14.0106 16.2617 15.1299 15.1424 15.1299 13.7617C15.1299 12.381 14.0106 11.2617 12.6299 11.2617H10.6299C9.24917 11.2617 8.12988 10.1424 8.12988 8.76172C8.12988 7.38101 9.24917 6.26172 10.6299 6.26172H12.7965C14.0852 6.26172 15.1299 7.30639 15.1299 8.59505M11.6299 4.76172V6.26172M11.6299 16.2617V17.7617M21.6299 11.2617C21.6299 16.7846 17.1527 21.2617 11.6299 21.2617C6.10704 21.2617 1.62988 16.7846 1.62988 11.2617C1.62988 5.73887 6.10704 1.26172 11.6299 1.26172C17.1527 1.26172 21.6299 5.73887 21.6299 11.2617Z" stroke="#667085" stroke-width="2" stroke-linecap="round" stroke-linejoin="round"/>
</svg>
