<svg width="24" height="20" viewBox="0 0 24 20" fill="none" xmlns="http://www.w3.org/2000/svg">
<path d="M22.9753 3.36694C23.3053 3.36694 23.571 3.93956 23.571 4.64443V15.3561C23.571 16.061 23.3053 16.6323 22.9753 16.6323C22.6466 16.6323 22.3809 16.061 22.3809 15.3561V4.64443C22.3809 3.93956 22.6466 3.36694 22.9753 3.36694Z" fill="black"/>
<path d="M18.9547 6.75433H10.9161V2.7344H11.535C11.5756 2.7344 11.6157 2.72639 11.6532 2.71082C11.6907 2.69526 11.7247 2.67245 11.7533 2.6437C11.782 2.61495 11.8046 2.58082 11.82 2.54329C11.8354 2.50576 11.8433 2.46555 11.8431 2.42498V1.18857C11.8433 1.148 11.8354 1.10779 11.82 1.07026C11.8046 1.03272 11.782 0.998606 11.7533 0.969856C11.7247 0.941107 11.6907 0.918288 11.6532 0.902722C11.6157 0.887157 11.5756 0.87915 11.535 0.87915H1.02231C0.940248 0.87915 0.861546 0.91175 0.803518 0.969778C0.74549 1.02781 0.712891 1.10651 0.712891 1.18857V2.42498C0.712891 2.50704 0.74549 2.58575 0.803518 2.64378C0.861546 2.7018 0.940248 2.7344 1.02231 2.7344H1.64116V6.75433H1.02231C0.940248 6.75433 0.861546 6.78693 0.803518 6.84496C0.74549 6.90299 0.712891 6.98169 0.712891 7.06375V8.30016C0.712891 8.38222 0.74549 8.46092 0.803518 8.51895C0.861546 8.57698 0.940248 8.60958 1.02231 8.60958H1.64116V12.6282H1.02231C0.940248 12.6282 0.861546 12.6608 0.803518 12.7189C0.74549 12.7769 0.712891 12.8556 0.712891 12.9376V14.1741C0.712891 14.2561 0.74549 14.3348 0.803518 14.3928C0.861546 14.4509 0.940248 14.4835 1.02231 14.4835H1.64116V18.8115C1.64116 18.8936 1.67376 18.9723 1.73178 19.0303C1.78981 19.0884 1.86852 19.121 1.95058 19.121H18.0329C18.0734 19.121 18.1136 19.113 18.1511 19.0974C18.1885 19.0818 18.2226 19.059 18.2512 19.0303C18.2798 19.0015 18.3025 18.9674 18.3179 18.9299C18.3333 18.8923 18.3412 18.8521 18.341 18.8115V8.60958H18.9598C19.0419 8.60958 19.1206 8.57698 19.1786 8.51895C19.2367 8.46092 19.2693 8.38222 19.2693 8.30016V7.06375C19.2693 6.98169 19.2367 6.90299 19.1786 6.84496C19.1206 6.78693 19.0419 6.75433 18.9598 6.75433M12.4671 7.99073H8.75659V7.37189H12.4671V7.99073ZM5.66237 7.37189H6.89877V12.6282H5.66237V7.37189ZM8.13647 7.99073H7.51762V7.37189H8.13647V7.99073ZM9.06345 13.2471V13.8646H7.52276V13.2471H9.06345ZM7.52276 14.4835H9.06345V18.5034H7.52276V14.4835ZM9.06345 12.6282H7.52276V8.60958H9.06345V12.6282ZM10.2999 6.75433H7.51505V2.7344H10.2973L10.2999 6.75433ZM11.2281 2.12069H7.51762V1.50184H11.2281V2.12069ZM6.89877 1.50184V6.75818H5.66237V1.498L6.89877 1.50184ZM1.3343 1.50184H5.04481V2.12069H1.3343V1.50184ZM2.26129 2.73825H5.04481V6.75818H2.25872L2.26129 2.73825ZM1.3343 7.37574H5.04481V7.99459H1.3343V7.37574ZM2.26129 8.61343H5.04481V12.6321H2.25872L2.26129 8.61343ZM1.3343 13.2509H5.04481V13.8685H1.3343V13.2509ZM2.26129 14.4873H5.04481V18.5034H2.25872L2.26129 14.4873ZM5.66237 18.5073V13.2471H6.89877V18.5034L5.66237 18.5073ZM9.68229 14.1779V8.60958H12.4645V18.5034H9.67973L9.68229 14.1779ZM13.0834 18.5073V7.37189H14.3198V18.5034L13.0834 18.5073ZM17.7209 18.5073H14.9361V8.60958H17.7183L17.7209 18.5073ZM18.6478 7.99459H14.9361V7.37189H18.6453L18.6478 7.99459Z" fill="black"/>
<path d="M17.5011 1.58899L17.08 2.00883C16.6577 1.54643 16.0751 1.26219 15.4508 1.21389C14.8264 1.16558 14.2071 1.35684 13.7186 1.74878C13.2302 2.14073 12.9094 2.70395 12.8214 3.32396C12.7333 3.94397 12.8847 4.57424 13.2446 5.08666C13.6046 5.59909 14.1462 5.95521 14.7593 6.08264C15.3725 6.21008 16.0111 6.09926 16.5455 5.77271C17.0798 5.44617 17.4698 4.92841 17.6361 4.32466C17.8024 3.72092 17.7325 3.0765 17.4408 2.5224L17.9389 2.02424L17.5011 1.58899ZM17.1005 3.66123C17.1014 4.097 16.9492 4.51924 16.6704 4.8542C16.3917 5.18916 16.0041 5.41555 15.5754 5.49383C15.1467 5.57212 14.7041 5.49732 14.325 5.28251C13.9458 5.0677 13.6542 4.72652 13.501 4.31856C13.3478 3.9106 13.3428 3.46178 13.4868 3.05049C13.6308 2.63921 13.9148 2.29158 14.289 2.06834C14.6633 1.8451 15.1041 1.76042 15.5344 1.8291C15.9647 1.89777 16.3573 2.11544 16.6434 2.44408L15.2453 3.84226L14.5365 3.13354L14.1 3.57007L15.027 4.49834C15.0557 4.52711 15.0899 4.54992 15.1274 4.56549C15.165 4.58106 15.2052 4.58908 15.2459 4.58908C15.2866 4.58908 15.3268 4.58106 15.3644 4.56549C15.402 4.54992 15.4361 4.52711 15.4648 4.49834L16.9734 2.98846C17.0575 3.20282 17.1011 3.43095 17.1018 3.66123" fill="black"/>
</svg>
