<svg width="24" height="25" viewBox="0 0 24 25" fill="none" xmlns="http://www.w3.org/2000/svg">
<g opacity="0.8">
<path d="M16 6.26196V5.46196C16 4.34186 16 3.78181 15.782 3.35398C15.5903 2.97766 15.2843 2.6717 14.908 2.47995C14.4802 2.26196 13.9201 2.26196 12.8 2.26196H11.2C10.0799 2.26196 9.51984 2.26196 9.09202 2.47995C8.71569 2.6717 8.40973 2.97766 8.21799 3.35398C8 3.78181 8 4.34186 8 5.46196V6.26196M10 11.762V16.762M14 11.762V16.762M3 6.26196H21M19 6.26196V17.462C19 19.1421 19 19.9822 18.673 20.6239C18.3854 21.1884 17.9265 21.6474 17.362 21.935C16.7202 22.262 15.8802 22.262 14.2 22.262H9.8C8.11984 22.262 7.27976 22.262 6.63803 21.935C6.07354 21.6474 5.6146 21.1884 5.32698 20.6239C5 19.9822 5 19.1421 5 17.462V6.26196" stroke="white" stroke-width="2" stroke-linecap="round" stroke-linejoin="round"/>
</g>
</svg>
