<svg width="216" height="200" viewBox="0 0 216 200" fill="none" xmlns="http://www.w3.org/2000/svg">
<g clip-path="url(#clip0_2913_15654)">
<path opacity="0.6" d="M180.906 66.29C181.604 65.6874 181.746 65.2455 181.746 65.159C181.721 65.1034 181.422 64.7542 180.544 64.4606L167.423 60.0724C164.867 59.2164 162.849 57.424 161.727 55.0167C160.605 52.6124 160.537 49.9115 161.52 47.4146L166.582 34.5466C166.916 33.6845 166.835 33.2302 166.798 33.1529C166.758 33.122 166.171 32.9613 165.411 33.088L151.755 35.3007C146.202 36.203 141.236 32.2567 140.645 26.8426L139.143 13.0908C139.041 12.1699 138.76 11.8053 138.695 11.7558C138.6 11.762 138.173 11.7929 137.431 12.3491L126.371 20.6527C124.669 21.9321 122.663 22.6027 120.574 22.6027C117.385 22.6027 114.409 21.0081 112.604 18.3288L104.885 6.84226C104.365 6.06969 103.948 5.88118 103.865 5.875C103.806 5.89354 103.42 6.14385 103.018 6.98132L97.0785 19.4815C95.4716 22.8746 92.1495 24.9915 88.4226 24.9915C86.8312 24.9915 85.2335 24.5867 83.8119 23.8141L71.6393 17.238C70.9718 16.8795 70.567 16.8362 70.4187 16.8362C70.2456 16.8949 70.0169 17.2967 70.054 18.2299L70.6041 32.0497C70.7122 34.7104 69.7635 37.2197 67.9433 39.1203C66.1263 41.0146 63.654 42.0622 60.9871 42.0622L47.0345 41.8892H47.0314C46.0858 41.8892 45.7118 42.1178 45.6593 42.1765C45.6408 42.2414 45.6284 42.6957 46.0919 43.5023L53.0018 55.4864C54.3461 57.8165 54.6706 60.4957 53.9196 63.0421C53.1625 65.5823 51.4289 67.6559 49.0308 68.8766L36.7098 75.1591C35.8847 75.5763 35.6437 75.9719 35.6221 76.0491C35.6344 76.1171 35.8322 76.5281 36.6202 77.0195L48.3077 84.4269C50.579 85.8608 52.1149 88.0827 52.6279 90.6847C53.1409 93.2836 52.5692 95.9258 51.0179 98.1261L43.014 109.412C42.4825 110.169 42.4485 110.629 42.467 110.707C42.5134 110.756 42.8811 111.028 43.8082 111.108L57.5971 112.227C60.2763 112.443 62.6682 113.701 64.3339 115.765C65.9995 117.833 66.7134 120.441 66.358 123.105L64.5224 136.81C64.4019 137.719 64.5811 138.136 64.6429 138.21L64.8623 138.235C65.0416 138.235 65.4278 138.195 66.015 137.941L78.7408 132.533C79.9645 132.014 81.2408 131.745 82.5573 131.745C86.6148 131.745 90.147 134.236 91.5562 138.087L96.2998 151.075C96.6057 151.919 96.9549 152.215 97.0476 152.259C97.1558 152.246 97.5761 152.086 98.1385 151.393L106.896 140.682C108.744 138.417 111.461 137.119 114.344 137.119C116.73 137.119 119.026 138.015 120.818 139.641L131.062 148.94C131.668 149.496 132.11 149.644 132.274 149.644C132.339 149.601 132.657 149.267 132.845 148.359L135.614 134.808C136.541 130.271 140.395 127.104 144.993 127.104C145.818 127.104 146.653 127.212 147.466 127.419L160.847 130.892C161.57 131.078 162.203 130.982 162.262 130.942C162.293 130.886 162.413 130.444 162.154 129.554L158.312 116.266C157.568 113.686 157.889 111 159.233 108.71C160.575 106.42 162.753 104.826 165.371 104.217L178.844 101.068C179.747 100.858 180.074 100.53 180.111 100.459C180.114 100.394 180.016 99.9463 179.379 99.2757L169.793 89.3003C167.933 87.3503 166.975 84.8286 167.104 82.1741C167.225 79.5288 168.415 77.106 170.451 75.3507L180.906 66.29ZM142.345 55.7769C149.378 55.7769 155.077 61.4723 155.077 68.5088C155.077 75.5361 149.375 81.2408 142.345 81.2408C135.312 81.2408 129.61 75.5392 129.61 68.5088C129.61 61.4723 135.315 55.7769 142.345 55.7769ZM107.996 47.5104C117.583 47.5104 125.345 55.2824 125.345 64.8623C125.345 74.4484 117.583 82.2142 107.996 82.2142C98.4135 82.2142 90.6446 74.4484 90.6446 64.8623C90.6446 55.2824 98.4135 47.5104 107.996 47.5104ZM73.648 55.7769C80.6846 55.7769 86.3831 61.4723 86.3831 68.5088C86.3831 75.5361 80.6815 81.2408 73.648 81.2408C66.6207 81.2408 60.9191 75.5392 60.9191 68.5088C60.9191 61.4723 66.6176 55.7769 73.648 55.7769ZM54.3121 100.221V94.4116C54.3121 87.8015 59.6676 82.4398 66.2808 82.4398H81.0214C83.8058 82.4398 86.3614 83.404 88.401 84.9986C83.2835 88.1785 79.844 93.7904 79.7142 100.221H54.3121ZM134.354 108.074H81.6456V100.16C81.6456 91.1544 88.948 83.849 97.9531 83.849H118.043C127.051 83.849 134.354 91.1513 134.354 100.16V108.074ZM161.684 100.221H136.328C136.205 93.7843 132.75 88.16 127.62 84.98C129.65 83.3978 132.2 82.4398 134.978 82.4398H149.718C156.329 82.4398 161.684 87.8015 161.684 94.4116V100.221Z" fill="white"/>
<path opacity="0.6" d="M184.753 70.7366C186.969 68.8175 187.976 66.3793 187.516 64.0368C187.049 61.6944 185.189 59.8155 182.411 58.8853L169.296 54.4971C168.285 54.1634 167.494 53.465 167.061 52.5379C166.632 51.6108 166.607 50.5601 166.993 49.565L172.052 36.6971C173.063 34.1322 172.924 31.7001 171.66 29.8552C170.232 27.7507 167.729 26.7649 164.478 27.2903L150.819 29.5029C148.634 29.8552 146.727 28.3626 146.489 26.2025L144.984 12.4569C144.496 7.92039 141.461 5.88699 138.677 5.88699C137.089 5.88699 135.445 6.49577 133.906 7.65154L122.849 15.9551C121.137 17.2407 118.668 16.8142 117.484 15.0466L109.764 3.56619C108.21 1.26702 106.118 0 103.868 0C101.297 0 99.0535 1.62549 97.7062 4.46546L91.7697 16.9564C90.8612 18.8754 88.494 19.6696 86.5997 18.6468L74.4271 12.0676C71.3244 10.3864 68.058 10.6986 66.0648 12.7721C65.1408 13.7332 64.0622 15.4978 64.1797 18.4644L64.7297 32.2811C64.7699 33.3318 64.4022 34.3145 63.7038 35.05C63.0054 35.7793 62.035 36.1841 60.9287 36.1841L46.9575 36.0111C44.0836 36.0111 41.7597 37.1823 40.5761 39.225C39.3894 41.28 39.5409 43.9067 41.0026 46.4346L47.9093 58.4187C48.4378 59.3365 48.5707 60.3841 48.2802 61.3668C47.9866 62.3464 47.3067 63.153 46.3611 63.6382L34.0371 69.9146C31.4258 71.2465 29.8621 73.3818 29.7508 75.7645C29.6365 78.144 30.99 80.4153 33.4685 81.979L45.159 89.3802C46.0552 89.9489 46.6578 90.8141 46.8586 91.8185C47.0533 92.8228 46.8277 93.855 46.2159 94.7233L38.2151 106.006C36.5217 108.404 36.1292 111.015 37.1366 113.178C38.1471 115.342 40.403 116.717 43.3234 116.949L57.1122 118.074C58.1722 118.157 59.1085 118.642 59.7482 119.443C60.391 120.237 60.666 121.253 60.527 122.31L58.6913 136.016C58.373 138.432 58.9107 140.577 60.2118 142.066C62.0443 144.159 65.1531 144.684 68.3052 143.34L81.031 137.925C83.018 137.082 85.2925 138.086 86.0249 140.089L90.7654 153.083C91.9211 156.242 94.2605 158.13 97.0232 158.13C99.0751 158.13 101.084 157.048 102.678 155.101L111.436 144.39C112.162 143.494 113.222 142.984 114.332 142.984C114.984 142.984 115.951 143.157 116.86 143.982L127.107 153.278C128.708 154.73 130.494 155.5 132.268 155.5C134.728 155.5 137.685 153.93 138.591 149.523L141.363 135.972C141.795 133.874 143.866 132.548 145.983 133.098L159.37 136.572C160.185 136.779 160.992 136.887 161.758 136.887C163.925 136.887 165.763 136.031 166.938 134.474C168.223 132.765 168.523 130.425 167.791 127.907L163.949 114.619C163.653 113.602 163.776 112.557 164.296 111.674C164.815 110.79 165.671 110.169 166.703 109.928L180.17 106.779C183.029 106.108 185.056 104.418 185.736 102.128C186.416 99.8378 185.64 97.3161 183.607 95.1992L174.03 85.2176C173.294 84.4543 172.914 83.4685 172.967 82.4456C173.013 81.4228 173.48 80.4771 174.28 79.7849L184.753 70.7366ZM169.787 89.2906L179.373 99.2661C180.01 99.9366 180.109 100.385 180.105 100.45C180.068 100.521 179.738 100.851 178.838 101.058L165.365 104.207C162.747 104.816 160.569 106.414 159.227 108.701C157.883 110.991 157.562 113.676 158.307 116.256L162.148 129.545C162.407 130.435 162.287 130.877 162.256 130.932C162.197 130.972 161.567 131.071 160.841 130.883L147.46 127.409C146.647 127.202 145.813 127.094 144.987 127.094C140.389 127.094 136.539 130.262 135.608 134.798L132.84 148.349C132.651 149.258 132.333 149.591 132.268 149.635C132.104 149.635 131.662 149.486 131.056 148.93L120.812 139.631C119.02 138.006 116.724 137.11 114.338 137.11C111.455 137.11 108.738 138.408 106.89 140.673L98.1326 151.384C97.5671 152.076 97.1499 152.24 97.0417 152.249C96.949 152.209 96.5998 151.909 96.2939 151.065L91.5503 138.077C90.1411 134.226 86.612 131.736 82.5514 131.736C81.238 131.736 79.9587 132.005 78.7349 132.524L66.0091 137.932C65.422 138.182 65.0357 138.225 64.8565 138.225L64.637 138.201C64.5783 138.129 64.3991 137.709 64.5165 136.801L66.3521 123.095C66.7106 120.431 65.9937 117.823 64.328 115.756C62.6623 113.695 60.2705 112.434 57.5912 112.217L43.8024 111.099C42.8753 111.021 42.5044 110.746 42.4612 110.697C42.4426 110.62 42.4766 110.159 43.0082 109.402L51.012 98.1165C52.5633 95.9162 53.1319 93.274 52.622 90.6751C52.109 88.0761 50.5732 85.8511 48.3018 84.4173L36.6144 77.0098C35.8263 76.5185 35.6316 76.1075 35.6162 76.0395C35.6378 75.9622 35.8789 75.5667 36.704 75.1495L49.0249 68.8669C51.423 67.6494 53.1566 65.5758 53.9138 63.0325C54.6678 60.4861 54.3402 57.8099 52.9959 55.4767L46.0861 43.4926C45.6225 42.6861 45.6349 42.2318 45.6534 42.1669C45.706 42.1082 46.0799 41.8795 47.0255 41.8795H47.0286L60.9812 42.0526C63.6481 42.0526 66.1204 41.005 67.9375 39.1106C69.7576 37.2101 70.7064 34.7008 70.5982 32.04L70.0481 18.2203C70.0141 17.287 70.2397 16.8853 70.4128 16.8266C70.5611 16.8266 70.9659 16.8699 71.6334 17.2283L83.8061 23.8044C85.2276 24.5739 86.8253 24.9818 88.4168 24.9818C92.1467 24.9818 95.4657 22.865 97.0726 19.4719L103.012 6.97168C103.414 6.13421 103.797 5.8839 103.859 5.86536C103.942 5.87154 104.36 6.06313 104.879 6.83261L112.595 18.313C114.403 20.9923 117.376 22.5869 120.565 22.5869C122.657 22.5869 124.66 21.9163 126.362 20.6369L137.422 12.3333C138.164 11.7771 138.591 11.7493 138.686 11.74C138.751 11.7894 139.033 12.151 139.134 13.075L140.636 26.8267C141.23 32.2409 146.196 36.1872 151.746 35.2848L165.402 33.0722C166.162 32.9455 166.749 33.1093 166.789 33.1371C166.83 33.2144 166.91 33.6686 166.573 34.5308L161.511 47.3988C160.529 49.8988 160.596 52.5997 161.718 55.0008C162.84 57.4082 164.858 59.2036 167.414 60.0565L180.535 64.4447C181.413 64.7383 181.709 65.0875 181.737 65.1432C181.737 65.2266 181.595 65.6685 180.897 66.2742L170.433 75.3256C168.399 77.084 167.21 79.5037 167.086 82.149C166.969 84.819 167.927 87.3407 169.787 89.2906Z" fill="#78FFB6"/>
<path opacity="0.6" d="M169.901 143.277L156.511 139.801C152.765 138.824 149.057 141.139 148.281 144.937L145.896 156.578L185.059 200L188.164 173.541L215.411 172.626L170.658 122.999C170.646 123.651 170.732 124.322 170.921 124.989L174.765 138.277C175.84 141.998 173.652 144.248 169.901 143.277Z" fill="#78FFB6"/>
<path opacity="0.6" d="M56.2562 132.573C56.7692 128.735 54.0312 125.335 50.1653 125.023L48.1782 124.856L0.587891 167.784L27.0469 170.886L27.9554 198.136L81.8191 149.566L81.5996 148.954C80.2739 145.314 76.2689 143.574 72.6996 145.095L59.9677 150.509C56.4077 152.026 53.9076 150.126 54.4237 146.291L56.2562 132.573Z" fill="#78FFB6"/>
<path d="M129.61 68.5083C129.61 75.5356 135.312 81.2403 142.345 81.2403C149.379 81.2403 155.077 75.5387 155.077 68.5083C155.077 61.4718 149.376 55.7764 142.345 55.7764C135.315 55.7764 129.61 61.4718 129.61 68.5083Z" fill="#AEFFD3"/>
<path d="M134.978 82.4395C132.2 82.4395 129.65 83.3974 127.62 84.9797C132.75 88.1596 136.205 93.7839 136.329 100.221H161.684V94.4112C161.684 87.8011 156.329 82.4395 149.719 82.4395H134.978ZM147.086 98.1659H145.321L143.844 88.4717H143.795L145.238 85.811H139.45L140.893 88.4717H140.843L139.372 98.1659H137.602L134.858 83.7497L135.67 83.7096H149.017C149.295 83.7096 149.564 83.725 149.833 83.7497L147.086 98.1659Z" fill="#AEFFD3"/>
<path d="M143.847 88.4721L145.324 98.1663H147.089L149.836 83.7501C149.567 83.7254 149.298 83.71 149.02 83.71H135.673L134.86 83.7501L137.605 98.1663H139.375L140.846 88.4721H140.896L139.453 85.8113H145.241L143.797 88.4721H143.847Z" fill="white"/>
<path d="M60.9199 68.5083C60.9199 75.5356 66.6215 81.2403 73.6488 81.2403C80.6854 81.2403 86.3839 75.5387 86.3839 68.5083C86.3839 61.4718 80.6823 55.7764 73.6488 55.7764C66.6184 55.7764 60.9199 61.4718 60.9199 68.5083Z" fill="#AEFFD3"/>
<path d="M54.3125 94.4112V100.221H79.7146C79.8413 93.7901 83.2808 88.1781 88.4014 84.9982C86.3618 83.4036 83.8062 82.4395 81.0218 82.4395H66.2812C59.668 82.4395 54.3125 87.8011 54.3125 94.4112ZM80.3234 83.7065L81.1361 83.7466L78.392 98.1628H76.6212L75.1441 88.4686H75.0946L76.544 85.8079H70.7466L72.1991 88.4686H72.1434L70.6663 98.1628H68.9048L66.1545 83.7466L66.9672 83.7065H80.3234Z" fill="#AEFFD3"/>
<path d="M75.1477 88.4713L76.6248 98.1655H78.3956L81.1397 83.7493L80.3239 83.7061H66.9739L66.1611 83.7493L68.9084 98.1655H70.6699L72.147 88.4713H72.1995L70.7502 85.8105H76.5476L75.0982 88.4713H75.1477Z" fill="white"/>
<path d="M90.6455 64.8617C90.6455 74.4478 98.4114 82.2136 107.997 82.2136C117.583 82.2136 125.346 74.4478 125.346 64.8617C125.346 55.2818 117.583 47.5098 107.997 47.5098C98.4145 47.5098 90.6455 55.2818 90.6455 64.8617Z" fill="#AEFFD3"/>
<path d="M97.9529 83.8516C88.9509 83.8516 81.6455 91.1539 81.6455 100.162V108.076H134.353V100.162C134.353 91.157 127.051 83.8516 118.043 83.8516H97.9529ZM114.461 105.276H112.054H103.948L105.954 92.0686L103.942 105.276H101.531L97.7953 85.6316C98.1569 85.6007 98.5308 85.5729 98.9017 85.5729H117.091C117.468 85.5729 117.839 85.6038 118.204 85.6316L114.461 105.276Z" fill="#AEFFD3"/>
<path d="M110.043 92.069L112.054 105.277H114.462L118.204 85.632C117.836 85.6011 117.469 85.5732 117.092 85.5732H98.9022C98.5314 85.5732 98.1606 85.6041 97.7959 85.632L101.532 105.277H103.942L105.954 92.069H106.022L104.054 88.441H111.946L109.972 92.069H110.043Z" fill="white"/>
<path d="M103.948 105.276H112.054L110.042 92.0684H109.971L111.946 88.4404H104.053L106.022 92.0684H105.954L103.948 105.276Z" fill="#AEFFD3"/>
</g>
<defs>
<clipPath id="clip0_2913_15654">
<rect width="214.824" height="200" fill="white" transform="translate(0.587891)"/>
</clipPath>
</defs>
</svg>
