<svg width="24" height="25" viewBox="0 0 24 25" fill="none" xmlns="http://www.w3.org/2000/svg">
<g opacity="0.8">
<path d="M2.97984 13.5509C2.25984 14.8529 2.05784 16.4649 2.00084 17.2639C1.99696 17.3287 2.00654 17.3936 2.02899 17.4545C2.05144 17.5154 2.08626 17.571 2.13126 17.6178C2.17626 17.6646 2.23047 17.7016 2.29046 17.7264C2.35046 17.7512 2.41494 17.7633 2.47984 17.7619H3.98184M2.97984 13.5509C2.97984 10.4059 3.89484 6.6109 5.72584 4.9729C5.88996 4.83256 6.09995 4.75747 6.31584 4.7619H11.1108C11.6908 4.7619 12.2678 4.8789 12.7538 5.1939C13.9528 5.9719 15.7638 7.5419 17.3028 9.9509C17.4298 10.1509 17.6198 10.3009 17.8428 10.3819C18.7278 10.7039 19.7138 11.1489 20.3448 11.4459C20.7708 11.6459 21.1108 11.9959 21.2718 12.4379C21.7158 13.6549 21.9668 15.0129 21.9988 17.2609C21.9996 17.3266 21.9874 17.3918 21.9627 17.4526C21.9381 17.5135 21.9016 17.5689 21.8553 17.6155C21.809 17.6622 21.754 17.6991 21.6933 17.7242C21.6326 17.7494 21.5675 17.7622 21.5018 17.7619H19.9998M2.97984 13.5509C3.33984 12.8989 3.83084 12.3249 4.49884 11.9689M15.9958 17.7619H7.98584M7.99984 17.7619C7.99984 18.2923 7.78913 18.801 7.41405 19.1761C7.03898 19.5512 6.53027 19.7619 5.99984 19.7619C5.46941 19.7619 4.9607 19.5512 4.58563 19.1761C4.21055 18.801 3.99984 18.2923 3.99984 17.7619C3.99984 17.2315 4.21055 16.7228 4.58563 16.3477C4.9607 15.9726 5.46941 15.7619 5.99984 15.7619C6.53027 15.7619 7.03898 15.9726 7.41405 16.3477C7.78913 16.7228 7.99984 17.2315 7.99984 17.7619Z" stroke="white" stroke-width="1.5" stroke-linecap="round" stroke-linejoin="round"/>
<path d="M17.5 10.262C14.5 9.26196 11 8.76196 7 9.26196C7 7.26196 8 5.26196 8.5 4.76196M8 11.262H9M20 17.762C20 18.2924 19.7893 18.8011 19.4142 19.1762C19.0391 19.5512 18.5304 19.762 18 19.762C17.4696 19.762 16.9609 19.5512 16.5858 19.1762C16.2107 18.8011 16 18.2924 16 17.762C16 17.2315 16.2107 16.7228 16.5858 16.3477C16.9609 15.9727 17.4696 15.762 18 15.762C18.5304 15.762 19.0391 15.9727 19.4142 16.3477C19.7893 16.7228 20 17.2315 20 17.762Z" stroke="white" stroke-width="1.5" stroke-linecap="round" stroke-linejoin="round"/>
</g>
</svg>
