<svg width="24" height="25" viewBox="0 0 24 25" fill="none" xmlns="http://www.w3.org/2000/svg">
<g opacity="0.8">
<path d="M16 3.72972C17.4817 4.46607 18.5 5.9951 18.5 7.76196C18.5 9.52882 17.4817 11.0579 16 11.7942M18 17.0284C19.5115 17.7123 20.8725 18.8269 22 20.262M2 20.262C3.94649 17.7845 6.58918 16.262 9.5 16.262C12.4108 16.262 15.0535 17.7845 17 20.262M14 7.76196C14 10.2472 11.9853 12.262 9.5 12.262C7.01472 12.262 5 10.2472 5 7.76196C5 5.27668 7.01472 3.26196 9.5 3.26196C11.9853 3.26196 14 5.27668 14 7.76196Z" stroke="white" stroke-width="2" stroke-linecap="round" stroke-linejoin="round"/>
</g>
</svg>
