<svg width="22" height="22" viewBox="0 0 22 22" fill="none" xmlns="http://www.w3.org/2000/svg">
<path d="M1.00033 7.79245H20.9997M5.42903 1.05715L11 7.79252L16.5804 1.06187M20.773 7.2593L16.8929 1.40329C16.7952 1.25584 16.7464 1.18212 16.6819 1.12875C16.6247 1.0815 16.5589 1.04605 16.4881 1.02442C16.4082 1 16.3201 1 16.144 1H5.856C5.67988 1 5.59182 1 5.51188 1.02442C5.44112 1.04605 5.37528 1.0815 5.31815 1.12875C5.25361 1.18212 5.20476 1.25584 5.10706 1.40329L1.22696 7.2593C1.09977 7.45126 1.03617 7.54724 1.01338 7.65049C0.993252 7.74168 0.995867 7.83647 1.02099 7.9264C1.04944 8.02822 1.11823 8.1205 1.2558 8.30507L10.2799 20.4113C10.5242 20.739 10.6463 20.9029 10.7961 20.9615C10.9272 21.0128 11.0728 21.0128 11.2039 20.9615C11.3537 20.9029 11.4758 20.739 11.7201 20.4113L20.7442 8.30507C20.8818 8.1205 20.9506 8.02822 20.979 7.9264C21.0041 7.83647 21.0067 7.74168 20.9866 7.65049C20.9638 7.54724 20.9002 7.45126 20.773 7.2593Z" stroke="#78FFB6" stroke-width="1.5" stroke-linecap="round" stroke-linejoin="round"/>
</svg>
