<svg width="30" height="37" viewBox="0 0 30 37" fill="none" xmlns="http://www.w3.org/2000/svg">
<g clip-path="url(#clip0_2913_15884)">
<path fill-rule="evenodd" clip-rule="evenodd" d="M22.0749 0.383757C22.9323 -0.105669 24.0162 0.206594 24.496 1.08122C27.3779 6.33523 28.8931 12.291 28.8931 18.3504C28.8931 24.4098 27.3779 30.3656 24.496 35.6196C24.0162 36.4942 22.9323 36.8065 22.0749 36.3171C21.2176 35.8276 20.9115 34.7219 21.3913 33.8472C23.9738 29.1391 25.3354 23.7942 25.3354 18.3504C25.3354 12.9066 23.9738 7.5617 21.3913 2.85359C20.9115 1.97896 21.2176 0.873184 22.0749 0.383757ZM15.2263 3.98802C16.0836 3.49859 17.1676 3.81086 17.6473 4.68548C19.9282 8.84366 21.1269 13.5563 21.1269 18.3504C21.1269 23.1445 19.9282 27.8572 17.6473 32.0153C17.1676 32.89 16.0836 33.2022 15.2263 32.7128C14.369 32.2234 14.0629 31.1176 14.5426 30.243C16.5241 26.6307 17.5692 22.5289 17.5692 18.3504C17.5692 14.1719 16.5241 10.0701 14.5426 6.45785C14.0629 5.58323 14.369 4.47745 15.2263 3.98802ZM8.69595 7.29342C9.55544 6.80793 10.638 7.12516 11.1139 8.00198C12.8024 11.1131 13.6888 14.6367 13.6888 18.2193C13.6888 21.802 12.8024 25.3256 11.1139 28.4367C10.638 29.3135 9.55544 29.6308 8.69595 29.1453C7.83647 28.6598 7.5255 27.5554 8.0014 26.6786C9.39481 24.1113 10.131 21.1935 10.131 18.2193C10.131 15.2452 9.39481 12.3274 8.0014 9.76009C7.5255 8.88327 7.83647 7.77891 8.69595 7.29342ZM2.06095 10.9243C2.88828 10.3838 3.98847 10.6298 4.5183 11.4738C5.81082 13.5328 6.49852 15.9155 6.49852 18.3504C6.49852 20.7854 5.81082 23.168 4.5183 25.227C3.98847 26.071 2.88828 26.317 2.06095 25.7765C1.23363 25.236 0.992459 24.1136 1.52229 23.2696C2.45092 21.7903 2.94078 20.0861 2.94078 18.3504C2.94078 16.6147 2.45092 14.9105 1.52229 13.4312C0.992459 12.5872 1.23363 11.4648 2.06095 10.9243Z" fill="#475569"/>
</g>
<defs>
<clipPath id="clip0_2913_15884">
<rect width="29.0548" height="36.6979" fill="white" transform="translate(0.945312)"/>
</clipPath>
</defs>
</svg>
