<svg width="145" height="39" viewBox="0 0 145 39" fill="none" xmlns="http://www.w3.org/2000/svg">
<rect x="0.574466" y="8.17212" width="41.9696" height="23.0522" rx="1.92612" fill="white" stroke="#D9D9D9" stroke-width="0.947761"/>
<path fill-rule="evenodd" clip-rule="evenodd" d="M27.2936 26.5032C31.9148 26.5032 35.661 23.4127 35.661 19.6003C35.661 15.7878 31.9148 12.6973 27.2936 12.6973C25.2225 12.6973 23.3271 13.318 21.866 14.3464C20.4049 13.3182 18.5097 12.6975 16.4387 12.6975C11.8175 12.6975 8.07129 15.788 8.07129 19.6004C8.07129 23.4129 11.8175 26.5034 16.4387 26.5034C18.5098 26.5034 20.4051 25.8826 21.8663 24.8543C23.3274 25.8825 25.2226 26.5032 27.2936 26.5032Z" fill="#ED0006"/>
<path fill-rule="evenodd" clip-rule="evenodd" d="M21.8672 24.8539C23.6661 23.5878 24.8067 21.7039 24.8067 19.6003C24.8067 17.4966 23.6661 15.6127 21.8672 14.3466C23.3284 13.3181 25.2238 12.6973 27.2951 12.6973C31.9162 12.6973 35.6624 15.7878 35.6624 19.6003C35.6624 23.4127 31.9162 26.5032 27.2951 26.5032C25.2238 26.5032 23.3284 25.8824 21.8672 24.8539Z" fill="#F9A000"/>
<path fill-rule="evenodd" clip-rule="evenodd" d="M21.8667 24.8537C23.6659 23.5876 24.8067 21.7036 24.8067 19.5997C24.8067 17.4959 23.6659 15.6118 21.8667 14.3457C20.0676 15.6118 18.9268 17.4959 18.9268 19.5997C18.9268 21.7036 20.0676 23.5876 21.8667 24.8537Z" fill="#FF5E00"/>
<rect x="47.092" y="8.17212" width="42.3758" height="23.0522" rx="1.92612" fill="white" stroke="#D9D9D9" stroke-width="0.947761"/>
<path fill-rule="evenodd" clip-rule="evenodd" d="M58.8721 22.9395H56.9466C56.8148 22.9395 56.7027 23.0168 56.6822 23.1219L55.9034 27.1109C55.8879 27.1897 55.9634 27.2606 56.0622 27.2606H56.9815C57.1132 27.2606 57.2253 27.1833 57.2459 27.078L57.4559 26.0021C57.4762 25.8967 57.5885 25.8195 57.72 25.8195H58.3296C59.598 25.8195 60.33 25.3236 60.5213 24.3409C60.6074 23.911 60.5249 23.5732 60.2757 23.3366C60.0021 23.0769 59.5166 22.9395 58.8721 22.9395ZM59.0943 24.3964C58.989 24.9546 58.4611 24.9546 57.9506 24.9546H57.66L57.8639 23.9121C57.876 23.8491 57.9436 23.8027 58.0224 23.8027H58.1556C58.5033 23.8027 58.8313 23.8027 59.0009 23.9628C59.1018 24.0584 59.1329 24.2003 59.0943 24.3964ZM64.6281 24.3785H63.706C63.6274 24.3785 63.5596 24.4249 63.5474 24.488L63.5067 24.6963L63.4422 24.6208C63.2425 24.3867 62.7974 24.3085 62.3531 24.3085C61.3341 24.3085 60.4638 24.932 60.2943 25.8066C60.2062 26.2428 60.3315 26.66 60.6378 26.9509C60.9188 27.2184 61.3209 27.3299 61.7992 27.3299C62.6202 27.3299 63.0756 26.9034 63.0756 26.9034L63.0345 27.1104C63.019 27.1896 63.0944 27.2605 63.1926 27.2605H64.0233C64.1554 27.2605 64.2668 27.1831 64.2877 27.0779L64.786 24.5282C64.8018 24.4498 64.7266 24.3785 64.6281 24.3785ZM63.3427 25.8284C63.2537 26.254 62.8356 26.5397 62.3025 26.5397C62.0347 26.5397 61.8206 26.4703 61.6833 26.3388C61.547 26.2083 61.4951 26.0224 61.5385 25.8155C61.6217 25.3935 62.0468 25.0985 62.5719 25.0985C62.8337 25.0985 63.0466 25.1687 63.1868 25.3014C63.3272 25.4354 63.383 25.6223 63.3427 25.8284ZM68.6125 24.3784H69.5391C69.6689 24.3784 69.7446 24.496 69.6709 24.582L66.589 28.1759C66.539 28.2341 66.4568 28.2687 66.369 28.2687H65.4435C65.3132 28.2687 65.2371 28.1502 65.3126 28.064L66.2722 26.9697L65.2516 24.5499C65.2163 24.4658 65.2932 24.3784 65.4039 24.3784H66.3144C66.4327 24.3784 66.5371 24.4411 66.5712 24.5326L67.1129 25.9941L68.391 24.4732C68.441 24.4139 68.5241 24.3784 68.6125 24.3784Z" fill="#253B80"/>
<path fill-rule="evenodd" clip-rule="evenodd" d="M78.6597 27.1111L79.45 23.0491C79.4621 22.9861 79.5297 22.9397 79.6083 22.9395H80.4979C80.5962 22.9395 80.6716 23.0106 80.6561 23.0893L79.8768 27.0782C79.8565 27.1835 79.7444 27.2608 79.6124 27.2608H78.8179C78.7196 27.2608 78.6442 27.1899 78.6597 27.1111ZM72.6076 22.9397H70.6816C70.5502 22.9397 70.4381 23.017 70.4175 23.1221L69.6387 27.1111C69.6232 27.1899 69.6987 27.2608 69.7971 27.2608H70.7852C70.8771 27.2608 70.9557 27.2067 70.97 27.133L71.191 26.0023C71.2113 25.8969 71.3236 25.8197 71.4551 25.8197H72.0643C73.333 25.8197 74.0649 25.3238 74.2563 24.3411C74.3427 23.9112 74.2597 23.5735 74.0106 23.3368C73.7371 23.0771 73.252 22.9397 72.6076 22.9397ZM72.8297 24.3966C72.7247 24.9548 72.1967 24.9548 71.686 24.9548H71.3957L71.5998 23.9123C71.612 23.8494 71.6789 23.8029 71.758 23.8029H71.8912C72.2387 23.8029 72.567 23.8029 72.7364 23.963C72.8375 24.0586 72.8683 24.2005 72.8297 24.3966ZM78.363 24.3787H77.4416C77.3623 24.3787 77.2951 24.4251 77.2832 24.4882L77.2425 24.6965L77.1777 24.621C76.9781 24.3869 76.5333 24.3087 76.089 24.3087C75.0699 24.3087 74.1999 24.9322 74.0304 25.8068C73.9426 26.243 74.0673 26.6602 74.3736 26.9511C74.6552 27.2186 75.0567 27.3301 75.5351 27.3301C76.3561 27.3301 76.8113 26.9036 76.8113 26.9036L76.7703 27.1106C76.7548 27.1898 76.8302 27.2607 76.9291 27.2607H77.7594C77.8908 27.2607 78.0029 27.1834 78.0235 27.0781L78.5221 24.5284C78.5374 24.45 78.4619 24.3787 78.363 24.3787ZM77.0778 25.8286C76.9893 26.2542 76.5707 26.5399 76.0374 26.5399C75.7701 26.5399 75.5556 26.4705 75.4182 26.339C75.2819 26.2085 75.2307 26.0226 75.2736 25.8157C75.3571 25.3937 75.7817 25.0987 76.3068 25.0987C76.5687 25.0987 76.7815 25.1689 76.9218 25.3016C77.0628 25.4356 77.1186 25.6225 77.0778 25.8286Z" fill="#179BD7"/>
<path d="M65.999 21.5121L66.2357 20.2973L65.7084 20.2874H63.1904L64.9403 11.3236C64.9457 11.2965 64.9634 11.2713 64.9892 11.2534C65.015 11.2355 65.0481 11.2256 65.0825 11.2256H69.3282C70.7377 11.2256 71.7104 11.4625 72.2183 11.9302C72.4563 12.1497 72.608 12.3789 72.6814 12.6312C72.7582 12.896 72.7597 13.2123 72.6845 13.5981L72.679 13.6263V13.8734L72.9172 13.9824C73.1177 14.0684 73.277 14.1667 73.3992 14.2794C73.603 14.4669 73.7347 14.7054 73.7903 14.988C73.8478 15.2787 73.8288 15.6247 73.7347 16.0163C73.626 16.4668 73.4504 16.8592 73.2132 17.1803C72.995 17.4761 72.7171 17.7214 72.3872 17.9116C72.0721 18.0923 71.6978 18.2294 71.2746 18.3172C70.8644 18.4034 70.3969 18.447 69.884 18.447H69.5536C69.3174 18.447 69.0878 18.5157 68.9077 18.639C68.7271 18.7648 68.6075 18.9366 68.5709 19.1246L68.546 19.2339L68.1278 21.3749L68.1087 21.4535C68.1038 21.4785 68.0952 21.4909 68.0825 21.4993C68.0712 21.5069 68.0549 21.5121 68.039 21.5121H65.999Z" fill="#253B80"/>
<path d="M73.1421 13.6553C73.1295 13.7207 73.115 13.7876 73.0987 13.8564C72.5387 16.1788 70.6232 16.9811 68.1766 16.9811H66.931C66.6318 16.9811 66.3797 17.1566 66.3331 17.395L65.6953 20.6628L65.5147 21.589C65.4843 21.7455 65.6338 21.8867 65.8292 21.8867H68.0386C68.3003 21.8867 68.5224 21.7331 68.5636 21.5247L68.5854 21.4339L69.0014 19.3013L69.0281 19.1843C69.0688 18.9752 69.2914 18.8216 69.5531 18.8216H69.8835C72.024 18.8216 73.6998 18.1195 74.1896 16.0878C74.3941 15.239 74.2882 14.5303 73.7468 14.0319C73.583 13.8816 73.3798 13.7569 73.1421 13.6553Z" fill="#179BD7"/>
<path d="M72.5554 13.467C72.4699 13.4469 72.3816 13.4286 72.291 13.4122C72.2001 13.3961 72.1068 13.3818 72.0109 13.3694C71.675 13.3255 71.307 13.3047 70.9127 13.3047H67.585C67.503 13.3047 67.4252 13.3197 67.3555 13.3467C67.202 13.4063 67.088 13.5237 67.0604 13.6674L66.3524 17.2898L66.332 17.3955C66.3787 17.1571 66.6308 16.9816 66.93 16.9816H68.1756C70.6222 16.9816 72.5378 16.1789 73.0977 13.8569C73.1144 13.7881 73.1284 13.7212 73.1411 13.6557C72.9994 13.595 72.846 13.5431 72.6807 13.4989C72.6401 13.4879 72.598 13.4773 72.5554 13.467Z" fill="#222D65"/>
<path d="M67.0616 13.6669C67.0892 13.5232 67.2033 13.4058 67.3567 13.3466C67.4269 13.3195 67.5043 13.3045 67.5862 13.3045H70.9141C71.3083 13.3045 71.6763 13.3254 72.0121 13.3692C72.1081 13.3817 72.2014 13.3959 72.2923 13.412C72.3829 13.4285 72.4711 13.4468 72.5567 13.4669C72.5992 13.4771 72.6413 13.4877 72.6824 13.4983C72.8477 13.5426 73.0012 13.5949 73.1428 13.6552C73.3094 12.797 73.1415 12.2126 72.5671 11.6835C71.9339 11.101 70.7909 10.8516 69.3285 10.8516H65.0826C64.7839 10.8516 64.5291 11.0271 64.4829 11.2659L62.7145 20.3218C62.6796 20.501 62.8507 20.6627 63.0742 20.6627H65.6956L66.3537 17.2893L67.0616 13.6669Z" fill="#253B80"/>
<g filter="url(#filter0_d_2913_21536)">
<rect x="94.0149" y="8.17212" width="42.5112" height="23.0522" rx="5.21269" fill="#FEB4C7" stroke="#D9D9D9" stroke-width="0.947761"/>
<path fill-rule="evenodd" clip-rule="evenodd" d="M100.275 23.0779H98.5068V16.6982H100.275V23.0779ZM104.69 16.6982H102.96C102.96 17.8723 102.308 18.9498 101.171 19.6548L100.486 20.0798L103.141 23.0781H105.325L102.881 20.3192C104.04 19.3642 104.69 18.0794 104.69 16.6982ZM107.511 23.0758H105.841V16.6992H107.511V23.0758ZM112.556 18.6647V18.9469C112.105 18.6924 111.561 18.5428 110.975 18.5428C109.422 18.5428 108.164 19.5848 108.164 20.8703C108.164 22.1557 109.422 23.1978 110.975 23.1978C111.561 23.1978 112.105 23.0482 112.556 22.7938V23.0757H114.151V18.6647H112.556ZM112.551 20.8706C112.551 21.4974 111.904 22.0055 111.106 22.0055C110.307 22.0055 109.66 21.4974 109.66 20.8706C109.66 20.2438 110.307 19.7358 111.106 19.7358C111.904 19.7358 112.551 20.2438 112.551 20.8706ZM129.384 18.947V18.6648H130.979V23.0758H129.384V22.7939C128.933 23.0483 128.389 23.1979 127.803 23.1979C126.25 23.1979 124.991 22.1558 124.991 20.8704C124.991 19.5849 126.25 18.5429 127.803 18.5429C128.389 18.5429 128.933 18.6924 129.384 18.947ZM127.933 22.0055C128.731 22.0055 129.378 21.4974 129.378 20.8706C129.378 20.2438 128.731 19.7358 127.933 19.7358C127.135 19.7358 126.488 20.2438 126.488 20.8706C126.488 21.4974 127.135 22.0055 127.933 22.0055ZM122.157 18.5466C121.52 18.5466 120.917 18.7103 120.514 19.1622V18.6655H118.925V23.0762H120.533V20.7582C120.533 20.0874 121.076 19.759 121.73 19.759C122.431 19.759 122.834 20.1057 122.834 20.7491V23.0762H124.428V20.2712C124.428 19.2447 123.442 18.5466 122.157 18.5466ZM116.618 18.665V19.2395C116.938 18.8949 117.534 18.6653 118.182 18.6653V19.9488L118.173 19.9485L118.163 19.9482C117.532 19.9482 116.622 20.3217 116.622 21.0165V23.076H114.985V18.665H116.618ZM131.671 22.3408C131.671 21.883 132.119 21.512 132.672 21.512C133.225 21.512 133.673 21.883 133.673 22.3408C133.673 22.7984 133.225 23.1695 132.672 23.1695C132.119 23.1695 131.671 22.7984 131.671 22.3408Z" fill="#17120F"/>
</g>
<defs>
<filter id="filter0_d_2913_21536" x="86.3768" y="0.534063" width="57.7873" height="38.3284" filterUnits="userSpaceOnUse" color-interpolation-filters="sRGB">
<feFlood flood-opacity="0" result="BackgroundImageFix"/>
<feColorMatrix in="SourceAlpha" type="matrix" values="0 0 0 0 0 0 0 0 0 0 0 0 0 0 0 0 0 0 127 0" result="hardAlpha"/>
<feOffset/>
<feGaussianBlur stdDeviation="3.58209"/>
<feComposite in2="hardAlpha" operator="out"/>
<feColorMatrix type="matrix" values="0 0 0 0 0 0 0 0 0 0 0 0 0 0 0 0 0 0 0.07 0"/>
<feBlend mode="normal" in2="BackgroundImageFix" result="effect1_dropShadow_2913_21536"/>
<feBlend mode="normal" in="SourceGraphic" in2="effect1_dropShadow_2913_21536" result="shape"/>
</filter>
</defs>
</svg>
