<svg width="55" height="33" viewBox="0 0 55 33" fill="none" xmlns="http://www.w3.org/2000/svg">
<path fill-rule="evenodd" clip-rule="evenodd" d="M37.6869 32.1663C46.7471 32.1663 54.0918 24.9656 54.0918 16.0831C54.0918 7.20067 46.7471 0 37.6869 0C33.6264 0 29.9105 1.44631 27.0458 3.84212C24.1812 1.44637 20.4653 0.00010375 16.4049 0.00010375C7.34471 0.00010375 0 7.20077 0 16.0832C0 24.9657 7.34471 32.1664 16.4049 32.1664C20.4654 32.1664 24.1813 30.7201 27.046 28.3243C29.9106 30.72 33.6265 32.1663 37.6869 32.1663Z" fill="#ED0006"/>
<path fill-rule="evenodd" clip-rule="evenodd" d="M27.0459 28.324C30.573 25.3741 32.8095 20.9847 32.8095 16.0831C32.8095 11.1816 30.573 6.79221 27.0459 3.84226C29.9106 1.44636 33.6266 0 37.6872 0C46.7473 0 54.092 7.20067 54.092 16.0831C54.092 24.9656 46.7473 32.1663 37.6872 32.1663C33.6266 32.1663 29.9106 30.7199 27.0459 28.324Z" fill="#F9A000"/>
<path fill-rule="evenodd" clip-rule="evenodd" d="M27.0458 28.3236C30.573 25.3736 32.8095 20.9842 32.8095 16.0827C32.8095 11.1811 30.573 6.79174 27.0458 3.8418C23.5187 6.79174 21.2822 11.1811 21.2822 16.0827C21.2822 20.9842 23.5187 25.3736 27.0458 28.3236Z" fill="#FF5E00"/>
</svg>
