<svg width="66" height="46" viewBox="0 0 66 46" fill="none" xmlns="http://www.w3.org/2000/svg">
<path d="M62.04 0.55957H3.96C1.77671 0.55957 0 2.33629 0 4.51957V41.4796C0 43.6629 1.77671 45.4396 3.96 45.4396H62.04C64.2233 45.4396 66 43.6629 66 41.4796V4.51957C66 2.33629 64.2233 0.55957 62.04 0.55957ZM63.36 41.4796C63.36 42.2056 62.766 42.7996 62.04 42.7996H3.96C3.23142 42.7996 2.64 42.2056 2.64 41.4796V4.51957C2.64 3.79086 3.23142 3.19957 3.96 3.19957H62.04C62.766 3.19957 63.36 3.79086 63.36 4.51957V41.4796Z" fill="#141702"/>
<path d="M1.32031 12.4395H64.6803V17.7195H1.32031V12.4395Z" fill="#141702"/>
<path d="M64.68 11.1191H1.32C0.591422 11.1191 0 11.7104 0 12.4391V17.7191C0 18.4478 0.591422 19.0391 1.32 19.0391H64.68C65.4086 19.0391 66 18.4478 66 17.7191V12.4391C66 11.7104 65.4086 11.1191 64.68 11.1191ZM63.36 16.3991H2.64V13.7591H63.36V16.3991ZM35.64 26.9591H11.88C11.1514 26.9591 10.56 27.5506 10.56 28.2791C10.56 29.0077 11.1514 29.5991 11.88 29.5991H35.64C36.3686 29.5991 36.96 29.0077 36.96 28.2791C36.96 27.5504 36.3686 26.9591 35.64 26.9591ZM25.08 32.2391H11.88C11.1514 32.2391 10.56 32.8306 10.56 33.5591C10.56 34.2877 11.1514 34.8791 11.88 34.8791H25.08C25.8086 34.8791 26.4 34.2877 26.4 33.5591C26.4 32.8306 25.8086 32.2391 25.08 32.2391Z" fill="#141702"/>
</svg>
