<svg width="66" height="66" viewBox="0 0 66 66" fill="none" xmlns="http://www.w3.org/2000/svg">
<path d="M32.9971 8.99707C29.6865 8.99707 26.9941 11.6895 26.9941 15.0001C26.9941 18.3107 29.6865 21.0029 32.9971 21.0029C36.3077 21.0029 39 18.3105 39 15.0001C39 11.6896 36.3076 8.99707 32.9971 8.99707ZM32.9971 18.003C31.3418 18.003 29.9942 16.6554 29.9942 15.0001C29.9942 13.3448 31.3418 11.9972 32.9971 11.9972C34.6524 11.9972 36.0001 13.3448 36.0001 15.0001C36.0001 16.6554 34.6524 18.003 32.9971 18.003Z" fill="#4A5578"/>
<path d="M64.5001 27C65.3292 27 66.0001 26.3331 66.0001 25.5042V19.5048C66.0001 18.9761 65.7218 18.4854 65.2662 18.2158L35.9238 0.790423C35.9106 0.781564 35.8974 0.774251 35.8843 0.766939C34.0605 -0.243734 32.0039 -0.27439 30.0746 0.78747L0.733923 18.2158C0.510171 18.3484 0.324821 18.537 0.196128 18.7631C0.0674356 18.9891 -0.000159826 19.2447 2.83771e-07 19.5048V25.5042C2.83771e-07 26.3331 0.670923 27 1.50005 27H6.00005V54.0013C2.69086 54.0013 2.83771e-07 56.6918 2.83771e-07 60.0006V64.5002C-0.000110648 64.6972 0.0386146 64.8923 0.113961 65.0743C0.189308 65.2564 0.299799 65.4218 0.439115 65.5611C0.578432 65.7004 0.743841 65.8109 0.925884 65.8862C1.10793 65.9615 1.30303 66.0002 1.50005 66.0001H64.5001C64.6971 66.0002 64.8922 65.9615 65.0743 65.8862C65.2563 65.8109 65.4217 65.7004 65.561 65.5611C65.7003 65.4218 65.8108 65.2564 65.8862 65.0743C65.9615 64.8923 66.0003 64.6972 66.0001 64.5002V60.0006C66.0001 56.6918 63.3093 54.0013 60.0001 54.0013V27H64.5001ZM63 60.0001V63H2.99996V60.0001C2.99996 58.3463 4.34616 57.0001 5.99991 57.0001H60.0001C61.6538 57 63 58.3462 63 60.0001ZM9.00001 54V27H15.0001V54H9.00001ZM18 54V27H27V54H18ZM30 54V27H36V54H30ZM39 54V27H48V54H39ZM51.0001 54V27H57.0001V54H51.0001ZM2.99996 24V20.354L31.563 3.38524C32.4976 2.87111 33.4907 2.87252 34.4136 3.37497L63 20.354V24H2.99996Z" fill="#4A5578"/>
</svg>
