<svg width="40" height="40" viewBox="0 0 40 40" fill="none" xmlns="http://www.w3.org/2000/svg">
<g clip-path="url(#clip0_2913_22685)">
<path d="M19.9976 5.45312C17.9911 5.45312 16.3594 7.08489 16.3594 9.09131C16.3594 11.0977 17.9911 12.7294 19.9976 12.7294C22.004 12.7294 23.6357 11.0976 23.6357 9.09131C23.6357 7.08497 22.0039 5.45312 19.9976 5.45312ZM19.9976 10.9113C18.9943 10.9113 18.1776 10.0945 18.1776 9.09131C18.1776 8.0881 18.9943 7.27137 19.9976 7.27137C21.0008 7.27137 21.8175 8.0881 21.8175 9.09131C21.8175 10.0945 21.0008 10.9113 19.9976 10.9113Z" fill="#141702"/>
<path d="M39.091 16.3636C39.5935 16.3636 40.0001 15.9595 40.0001 15.4571V11.8211C40.0001 11.5006 39.8314 11.2033 39.5553 11.0399L21.772 0.479044C21.764 0.473675 21.756 0.469243 21.7481 0.464811C20.6427 -0.147717 19.3963 -0.166297 18.2271 0.477255L0.444802 11.0399C0.309195 11.1203 0.196861 11.2346 0.118866 11.3715C0.04087 11.5085 -9.68642e-05 11.6635 1.71983e-07 11.8211V15.4571C1.71983e-07 15.9595 0.40662 16.3636 0.90912 16.3636H3.63639V32.728C1.63083 32.728 1.71983e-07 34.3587 1.71983e-07 36.364V39.091C-6.70595e-05 39.2104 0.0234028 39.3287 0.0690675 39.439C0.114732 39.5493 0.181696 39.6496 0.26613 39.734C0.350565 39.8184 0.450813 39.8854 0.561142 39.931C0.671471 39.9767 0.789718 40.0001 0.90912 40.0001H39.091C39.2104 40.0001 39.3286 39.9767 39.4389 39.931C39.5493 39.8854 39.6495 39.8184 39.734 39.734C39.8184 39.6496 39.8854 39.5493 39.931 39.439C39.9767 39.3287 40.0002 39.2104 40.0001 39.091V36.364C40.0001 34.3587 38.3693 32.728 36.3637 32.728V16.3636H39.091ZM38.1818 36.3637V38.1818H1.81815V36.3637C1.81815 35.3614 2.63404 34.5455 3.63631 34.5455H36.3637C37.366 34.5454 38.1818 35.3613 38.1818 36.3637ZM5.45455 32.7273V16.3636H9.09094V32.7273H5.45455ZM10.9091 32.7273V16.3636H16.3636V32.7273H10.9091ZM18.1818 32.7273V16.3636H21.8182V32.7273H18.1818ZM23.6364 32.7273V16.3636H29.0909V32.7273H23.6364ZM30.9091 32.7273V16.3636H34.5455V32.7273H30.9091ZM1.81815 14.5455V12.3358L19.1291 2.05166C19.6955 1.74007 20.2974 1.74092 20.8567 2.04544L38.1818 12.3358V14.5455H1.81815Z" fill="#141702"/>
</g>
<defs>
<clipPath id="clip0_2913_22685">
<rect width="40" height="40" fill="white"/>
</clipPath>
</defs>
</svg>
