<svg width="24" height="25" viewBox="0 0 24 25" fill="none" xmlns="http://www.w3.org/2000/svg">
<g opacity="0.8">
<path d="M12.1429 2C12.3905 2 12.6286 2.0381 12.8571 2.11429C13.0857 2.19048 13.3048 2.30476 13.5143 2.45714L20.3714 7.6C20.6571 7.80952 20.881 8.07619 21.0429 8.4C21.2048 8.72381 21.2857 9.06667 21.2857 9.42857V20.8571C21.2857 21.181 21.1762 21.4524 20.9571 21.6714C20.7381 21.8905 20.4667 22 20.1429 22C19.819 22 19.5476 21.8905 19.3286 21.6714C19.1095 21.4524 19 21.181 19 20.8571V9.42857L12.1429 4.28571L5.28571 9.42857V20.8571C5.28571 21.181 5.17619 21.4524 4.95714 21.6714C4.7381 21.8905 4.46667 22 4.14286 22C3.81905 22 3.54762 21.8905 3.32857 21.6714C3.10952 21.4524 3 21.181 3 20.8571V9.42857C3 9.06667 3.08095 8.72381 3.24286 8.4C3.40476 8.07619 3.62857 7.80952 3.91429 7.6L10.7714 2.45714C10.981 2.30476 11.2 2.19048 11.4286 2.11429C11.6571 2.0381 11.8952 2 12.1429 2ZM8.71429 19.7143H15.5714V17.4286H8.71429V19.7143ZM8.71429 15.1429H15.5714V12.8571H8.71429V15.1429ZM7.57143 22C7.24762 22 6.97619 21.8905 6.75714 21.6714C6.5381 21.4524 6.42857 21.181 6.42857 20.8571V11.7143C6.42857 11.3905 6.5381 11.119 6.75714 10.9C6.97619 10.681 7.24762 10.5714 7.57143 10.5714H16.7143C17.0381 10.5714 17.3095 10.681 17.5286 10.9C17.7476 11.119 17.8571 11.3905 17.8571 11.7143V20.8571C17.8571 21.181 17.7476 21.4524 17.5286 21.6714C17.3095 21.8905 17.0381 22 16.7143 22H7.57143Z" fill="white"/>
</g>
</svg>
