<svg width="19" height="20" viewBox="0 0 19 20" fill="none" xmlns="http://www.w3.org/2000/svg">
<path d="M9.14286 0C9.39048 0 9.62857 0.0380952 9.85714 0.114286C10.0857 0.190476 10.3048 0.304762 10.5143 0.457143L17.3714 5.6C17.6571 5.80952 17.881 6.07619 18.0429 6.4C18.2048 6.72381 18.2857 7.06667 18.2857 7.42857V18.8571C18.2857 19.181 18.1762 19.4524 17.9571 19.6714C17.7381 19.8905 17.4667 20 17.1429 20C16.819 20 16.5476 19.8905 16.3286 19.6714C16.1095 19.4524 16 19.181 16 18.8571V7.42857L9.14286 2.28571L2.28571 7.42857V18.8571C2.28571 19.181 2.17619 19.4524 1.95714 19.6714C1.7381 19.8905 1.46667 20 1.14286 20C0.819048 20 0.547619 19.8905 0.328571 19.6714C0.109524 19.4524 0 19.181 0 18.8571V7.42857C0 7.06667 0.0809524 6.72381 0.242857 6.4C0.404762 6.07619 0.628571 5.80952 0.914286 5.6L7.77143 0.457143C7.98095 0.304762 8.2 0.190476 8.42857 0.114286C8.65714 0.0380952 8.89524 0 9.14286 0ZM5.71429 17.7143H12.5714V15.4286H5.71429V17.7143ZM5.71429 13.1429H12.5714V10.8571H5.71429V13.1429ZM4.57143 20C4.24762 20 3.97619 19.8905 3.75714 19.6714C3.5381 19.4524 3.42857 19.181 3.42857 18.8571V9.71429C3.42857 9.39048 3.5381 9.11905 3.75714 8.9C3.97619 8.68095 4.24762 8.57143 4.57143 8.57143H13.7143C14.0381 8.57143 14.3095 8.68095 14.5286 8.9C14.7476 9.11905 14.8571 9.39048 14.8571 9.71429V18.8571C14.8571 19.181 14.7476 19.4524 14.5286 19.6714C14.3095 19.8905 14.0381 20 13.7143 20H4.57143Z" fill="#121212"/>
</svg>
