<svg width="24" height="25" viewBox="0 0 24 25" fill="none" xmlns="http://www.w3.org/2000/svg">
<g opacity="0.8">
<path d="M20 10.262V7.06196C20 5.38181 20 4.54173 19.673 3.89999C19.3854 3.33551 18.9265 2.87656 18.362 2.58894C17.7202 2.26196 16.8802 2.26196 15.2 2.26196H8.8C7.11984 2.26196 6.27976 2.26196 5.63803 2.58894C5.07354 2.87656 4.6146 3.33551 4.32698 3.89999C4 4.54173 4 5.38181 4 7.06196V17.462C4 19.1421 4 19.9822 4.32698 20.6239C4.6146 21.1884 5.07354 21.6474 5.63803 21.935C6.27976 22.262 7.11984 22.262 8.8 22.262H10.5M13 11.262H8M11 15.262H8M16 7.26196H8M19.25 17.262V15.512C19.25 14.5455 18.4665 13.762 17.5 13.762C16.5335 13.762 15.75 14.5455 15.75 15.512V17.262M15.6 21.262H19.4C19.9601 21.262 20.2401 21.262 20.454 21.153C20.6422 21.0571 20.7951 20.9041 20.891 20.716C21 20.502 21 20.222 21 19.662V18.862C21 18.3019 21 18.0219 20.891 17.808C20.7951 17.6198 20.6422 17.4668 20.454 17.371C20.2401 17.262 19.9601 17.262 19.4 17.262H15.6C15.0399 17.262 14.7599 17.262 14.546 17.371C14.3578 17.4668 14.2049 17.6198 14.109 17.808C14 18.0219 14 18.3019 14 18.862V19.662C14 20.222 14 20.502 14.109 20.716C14.2049 20.9041 14.3578 21.0571 14.546 21.153C14.7599 21.262 15.0399 21.262 15.6 21.262Z" stroke="white" stroke-width="2" stroke-linecap="round" stroke-linejoin="round"/>
</g>
</svg>
