<svg width="82" height="82" viewBox="0 0 82 82" fill="none" xmlns="http://www.w3.org/2000/svg">
<g filter="url(#filter0_d_5333_96266)">
<rect x="20" y="16" width="42" height="42" rx="8" fill="#F8C71B"/>
<g opacity="0.8">
<path d="M40.9987 37C39.532 37 38.2765 36.4778 37.232 35.4333C36.1876 34.3889 35.6654 33.1333 35.6654 31.6667C35.6654 30.2 36.1876 28.9444 37.232 27.9C38.2765 26.8556 39.532 26.3333 40.9987 26.3333C42.4654 26.3333 43.7209 26.8556 44.7654 27.9C45.8098 28.9444 46.332 30.2 46.332 31.6667C46.332 33.1333 45.8098 34.3889 44.7654 35.4333C43.7209 36.4778 42.4654 37 40.9987 37ZM30.332 45V43.9333C30.332 43.1778 30.5265 42.4833 30.9154 41.85C31.3043 41.2167 31.8209 40.7333 32.4654 40.4C33.8431 39.7111 35.2431 39.1944 36.6654 38.85C38.0876 38.5056 39.532 38.3333 40.9987 38.3333C42.4654 38.3333 43.9098 38.5056 45.332 38.85C46.7543 39.1944 48.1543 39.7111 49.532 40.4C50.1765 40.7333 50.6931 41.2167 51.082 41.85C51.4709 42.4833 51.6654 43.1778 51.6654 43.9333V45C51.6654 45.7333 51.4043 46.3611 50.882 46.8833C50.3598 47.4056 49.732 47.6667 48.9987 47.6667H32.9987C32.2654 47.6667 31.6376 47.4056 31.1154 46.8833C30.5931 46.3611 30.332 45.7333 30.332 45ZM32.9987 45H48.9987V43.9333C48.9987 43.6889 48.9376 43.4667 48.8154 43.2667C48.6931 43.0667 48.532 42.9111 48.332 42.8C47.132 42.2 45.9209 41.75 44.6987 41.45C43.4765 41.15 42.2431 41 40.9987 41C39.7543 41 38.5209 41.15 37.2987 41.45C36.0765 41.75 34.8654 42.2 33.6654 42.8C33.4654 42.9111 33.3043 43.0667 33.182 43.2667C33.0598 43.4667 32.9987 43.6889 32.9987 43.9333V45ZM40.9987 34.3333C41.732 34.3333 42.3598 34.0722 42.882 33.55C43.4043 33.0278 43.6654 32.4 43.6654 31.6667C43.6654 30.9333 43.4043 30.3056 42.882 29.7833C42.3598 29.2611 41.732 29 40.9987 29C40.2654 29 39.6376 29.2611 39.1154 29.7833C38.5931 30.3056 38.332 30.9333 38.332 31.6667C38.332 32.4 38.5931 33.0278 39.1154 33.55C39.6376 34.0722 40.2654 34.3333 40.9987 34.3333Z" fill="white"/>
</g>
</g>
<defs>
<filter id="filter0_d_5333_96266" x="0" y="0" width="82" height="82" filterUnits="userSpaceOnUse" color-interpolation-filters="sRGB">
<feFlood flood-opacity="0" result="BackgroundImageFix"/>
<feColorMatrix in="SourceAlpha" type="matrix" values="0 0 0 0 0 0 0 0 0 0 0 0 0 0 0 0 0 0 127 0" result="hardAlpha"/>
<feOffset dy="4"/>
<feGaussianBlur stdDeviation="10"/>
<feComposite in2="hardAlpha" operator="out"/>
<feColorMatrix type="matrix" values="0 0 0 0 0.972549 0 0 0 0 0.780392 0 0 0 0 0.105882 0 0 0 0.32 0"/>
<feBlend mode="normal" in2="BackgroundImageFix" result="effect1_dropShadow_5333_96266"/>
<feBlend mode="normal" in="SourceGraphic" in2="effect1_dropShadow_5333_96266" result="shape"/>
</filter>
</defs>
</svg>
