<svg width="82" height="82" viewBox="0 0 82 82" fill="none" xmlns="http://www.w3.org/2000/svg">
<g filter="url(#filter0_d_5333_96281)">
<rect x="20" y="16" width="42" height="42" rx="8" fill="#0976F7"/>
<g opacity="0.8">
<path d="M41.1905 23.3172C41.5206 23.3172 41.8381 23.368 42.1429 23.4696C42.4476 23.5712 42.7397 23.7236 43.019 23.9267L52.1619 30.7839C52.5429 31.0632 52.8413 31.4188 53.0571 31.8505C53.273 32.2823 53.381 32.7394 53.381 33.222V48.4601C53.381 48.8918 53.2349 49.2537 52.9429 49.5458C52.6508 49.8378 52.2889 49.9839 51.8571 49.9839C51.4254 49.9839 51.0635 49.8378 50.7714 49.5458C50.4794 49.2537 50.3333 48.8918 50.3333 48.4601V33.222L41.1905 26.3648L32.0476 33.222V48.4601C32.0476 48.8918 31.9016 49.2537 31.6095 49.5458C31.3175 49.8378 30.9556 49.9839 30.5238 49.9839C30.0921 49.9839 29.7302 49.8378 29.4381 49.5458C29.146 49.2537 29 48.8918 29 48.4601V33.222C29 32.7394 29.1079 32.2823 29.3238 31.8505C29.5397 31.4188 29.8381 31.0632 30.219 30.7839L39.3619 23.9267C39.6413 23.7236 39.9333 23.5712 40.2381 23.4696C40.5429 23.368 40.8603 23.3172 41.1905 23.3172ZM36.619 46.9363H45.7619V43.8886H36.619V46.9363ZM36.619 40.841H45.7619V37.7934H36.619V40.841ZM35.0952 49.9839C34.6635 49.9839 34.3016 49.8378 34.0095 49.5458C33.7175 49.2537 33.5714 48.8918 33.5714 48.4601V36.2696C33.5714 35.8378 33.7175 35.4759 34.0095 35.1839C34.3016 34.8918 34.6635 34.7458 35.0952 34.7458H47.2857C47.7175 34.7458 48.0794 34.8918 48.3714 35.1839C48.6635 35.4759 48.8095 35.8378 48.8095 36.2696V48.4601C48.8095 48.8918 48.6635 49.2537 48.3714 49.5458C48.0794 49.8378 47.7175 49.9839 47.2857 49.9839H35.0952Z" fill="white"/>
</g>
</g>
<defs>
<filter id="filter0_d_5333_96281" x="0" y="0" width="82" height="82" filterUnits="userSpaceOnUse" color-interpolation-filters="sRGB">
<feFlood flood-opacity="0" result="BackgroundImageFix"/>
<feColorMatrix in="SourceAlpha" type="matrix" values="0 0 0 0 0 0 0 0 0 0 0 0 0 0 0 0 0 0 127 0" result="hardAlpha"/>
<feOffset dy="4"/>
<feGaussianBlur stdDeviation="10"/>
<feComposite in2="hardAlpha" operator="out"/>
<feColorMatrix type="matrix" values="0 0 0 0 0.0352941 0 0 0 0 0.462745 0 0 0 0 0.968627 0 0 0 0.32 0"/>
<feBlend mode="normal" in2="BackgroundImageFix" result="effect1_dropShadow_5333_96281"/>
<feBlend mode="normal" in="SourceGraphic" in2="effect1_dropShadow_5333_96281" result="shape"/>
</filter>
</defs>
</svg>
