<svg width="82" height="82" viewBox="0 0 82 82" fill="none" xmlns="http://www.w3.org/2000/svg">
<g filter="url(#filter0_d_5333_96290)">
<rect x="20" y="16" width="42" height="42" rx="8" fill="#FA9F42"/>
<g opacity="0.8">
<path d="M41.0013 42.3333V49M41.0013 42.3333L49.0013 49M41.0013 42.3333L33.0013 49M35.668 30.3333V37M41.0013 33V37M46.3346 35.6667V37M54.3346 25H27.668M29.0013 25H53.0013V35.9333C53.0013 38.1735 53.0013 39.2936 52.5653 40.1493C52.1818 40.9019 51.5699 41.5139 50.8173 41.8974C49.9616 42.3333 48.8415 42.3333 46.6013 42.3333H35.4013C33.1611 42.3333 32.041 42.3333 31.1853 41.8974C30.4327 41.5139 29.8208 40.9019 29.4373 40.1493C29.0013 39.2936 29.0013 38.1735 29.0013 35.9333V25Z" stroke="white" stroke-width="2" stroke-linecap="round" stroke-linejoin="round"/>
</g>
</g>
<defs>
<filter id="filter0_d_5333_96290" x="0" y="0" width="82" height="82" filterUnits="userSpaceOnUse" color-interpolation-filters="sRGB">
<feFlood flood-opacity="0" result="BackgroundImageFix"/>
<feColorMatrix in="SourceAlpha" type="matrix" values="0 0 0 0 0 0 0 0 0 0 0 0 0 0 0 0 0 0 127 0" result="hardAlpha"/>
<feOffset dy="4"/>
<feGaussianBlur stdDeviation="10"/>
<feComposite in2="hardAlpha" operator="out"/>
<feColorMatrix type="matrix" values="0 0 0 0 0.972549 0 0 0 0 0.772549 0 0 0 0 0.0745098 0 0 0 0.32 0"/>
<feBlend mode="normal" in2="BackgroundImageFix" result="effect1_dropShadow_5333_96290"/>
<feBlend mode="normal" in="SourceGraphic" in2="effect1_dropShadow_5333_96290" result="shape"/>
</filter>
</defs>
</svg>
