<svg width="82" height="82" viewBox="0 0 82 82" fill="none" xmlns="http://www.w3.org/2000/svg">
<g filter="url(#filter0_d_5333_97436)">
<rect x="20" y="16" width="42" height="42" rx="8" fill="#F8C71B"/>
<g opacity="0.8">
<path d="M28.9744 38.7187C28.0144 40.4547 27.7451 42.604 27.6691 43.6693C27.6639 43.7557 27.6767 43.8423 27.7066 43.9235C27.7366 44.0047 27.783 44.0788 27.843 44.1412C27.903 44.2036 27.9753 44.2529 28.0553 44.286C28.1352 44.319 28.2212 44.3351 28.3078 44.3333H30.3104M28.9744 38.7187C28.9744 34.5253 30.1944 29.4653 32.6358 27.2813C32.8546 27.0942 33.1346 26.9941 33.4224 27H39.8158C40.5891 27 41.3584 27.156 42.0064 27.576C43.6051 28.6133 46.0198 30.7067 48.0718 33.9187C48.2411 34.1853 48.4944 34.3853 48.7918 34.4933C49.9718 34.9227 51.2864 35.516 52.1278 35.912C52.6958 36.1787 53.1491 36.6453 53.3638 37.2347C53.9558 38.8573 54.2904 40.668 54.3331 43.6653C54.3342 43.7529 54.3178 43.8398 54.2849 43.921C54.2521 44.0022 54.2034 44.076 54.1417 44.1382C54.08 44.2003 54.0066 44.2496 53.9257 44.2831C53.8448 44.3166 53.758 44.3337 53.6704 44.3333H51.6678M28.9744 38.7187C29.4544 37.8493 30.1091 37.084 30.9998 36.6093M46.3291 44.3333H35.6491M35.6678 44.3333C35.6678 45.0406 35.3868 45.7189 34.8867 46.219C34.3866 46.7191 33.7083 47 33.0011 47C32.2938 47 31.6156 46.7191 31.1155 46.219C30.6154 45.7189 30.3344 45.0406 30.3344 44.3333C30.3344 43.6261 30.6154 42.9478 31.1155 42.4477C31.6156 41.9476 32.2938 41.6667 33.0011 41.6667C33.7083 41.6667 34.3866 41.9476 34.8867 42.4477C35.3868 42.9478 35.6678 43.6261 35.6678 44.3333Z" stroke="white" stroke-width="1.5" stroke-linecap="round" stroke-linejoin="round"/>
<path d="M48.3359 34.3333C44.3359 33 39.6693 32.3333 34.3359 33C34.3359 30.3333 35.6693 27.6667 36.3359 27M35.6693 35.6667H37.0026M51.6693 44.3333C51.6693 45.0406 51.3883 45.7189 50.8882 46.219C50.3881 46.719 49.7098 47 49.0026 47C48.2954 47 47.6171 46.719 47.117 46.219C46.6169 45.7189 46.3359 45.0406 46.3359 44.3333C46.3359 43.6261 46.6169 42.9478 47.117 42.4477C47.6171 41.9476 48.2954 41.6667 49.0026 41.6667C49.7098 41.6667 50.3881 41.9476 50.8882 42.4477C51.3883 42.9478 51.6693 43.6261 51.6693 44.3333Z" stroke="white" stroke-width="1.5" stroke-linecap="round" stroke-linejoin="round"/>
</g>
</g>
<defs>
<filter id="filter0_d_5333_97436" x="0" y="0" width="82" height="82" filterUnits="userSpaceOnUse" color-interpolation-filters="sRGB">
<feFlood flood-opacity="0" result="BackgroundImageFix"/>
<feColorMatrix in="SourceAlpha" type="matrix" values="0 0 0 0 0 0 0 0 0 0 0 0 0 0 0 0 0 0 127 0" result="hardAlpha"/>
<feOffset dy="4"/>
<feGaussianBlur stdDeviation="10"/>
<feComposite in2="hardAlpha" operator="out"/>
<feColorMatrix type="matrix" values="0 0 0 0 0.972549 0 0 0 0 0.780392 0 0 0 0 0.105882 0 0 0 0.32 0"/>
<feBlend mode="normal" in2="BackgroundImageFix" result="effect1_dropShadow_5333_97436"/>
<feBlend mode="normal" in="SourceGraphic" in2="effect1_dropShadow_5333_97436" result="shape"/>
</filter>
</defs>
</svg>
