<svg width="82" height="82" viewBox="0 0 82 82" fill="none" xmlns="http://www.w3.org/2000/svg">
<g filter="url(#filter0_d_5333_97443)">
<rect x="20" y="16" width="42" height="42" rx="8" fill="#01E268"/>
<g opacity="0.8">
<path d="M35.6667 38.3333V43.6667M46.3333 35.6667V43.6667M41 30.3333V43.6667M35.4 49H46.6C48.8402 49 49.9603 49 50.816 48.564C51.5686 48.1805 52.1805 47.5686 52.564 46.816C53 45.9603 53 44.8402 53 42.6V31.4C53 29.1598 53 28.0397 52.564 27.184C52.1805 26.4314 51.5686 25.8195 50.816 25.436C49.9603 25 48.8402 25 46.6 25H35.4C33.1598 25 32.0397 25 31.184 25.436C30.4314 25.8195 29.8195 26.4314 29.436 27.184C29 28.0397 29 29.1598 29 31.4V42.6C29 44.8402 29 45.9603 29.436 46.816C29.8195 47.5686 30.4314 48.1805 31.184 48.564C32.0397 49 33.1598 49 35.4 49Z" stroke="#F5F5F5" stroke-width="2" stroke-linecap="round" stroke-linejoin="round"/>
</g>
</g>
<defs>
<filter id="filter0_d_5333_97443" x="0" y="0" width="82" height="82" filterUnits="userSpaceOnUse" color-interpolation-filters="sRGB">
<feFlood flood-opacity="0" result="BackgroundImageFix"/>
<feColorMatrix in="SourceAlpha" type="matrix" values="0 0 0 0 0 0 0 0 0 0 0 0 0 0 0 0 0 0 127 0" result="hardAlpha"/>
<feOffset dy="4"/>
<feGaussianBlur stdDeviation="10"/>
<feComposite in2="hardAlpha" operator="out"/>
<feColorMatrix type="matrix" values="0 0 0 0 0.00392157 0 0 0 0 0.886275 0 0 0 0 0.407843 0 0 0 0.32 0"/>
<feBlend mode="normal" in2="BackgroundImageFix" result="effect1_dropShadow_5333_97443"/>
<feBlend mode="normal" in="SourceGraphic" in2="effect1_dropShadow_5333_97443" result="shape"/>
</filter>
</defs>
</svg>
