<svg width="82" height="82" viewBox="0 0 82 82" fill="none" xmlns="http://www.w3.org/2000/svg">
<g filter="url(#filter0_d_5333_97450)">
<rect x="20" y="16" width="42" height="42" rx="8" fill="#0976F7"/>
<g opacity="0.8">
<path d="M46.3346 25.6237C48.3103 26.6055 49.668 28.6442 49.668 31C49.668 33.3558 48.3103 35.3945 46.3346 36.3763M49.0013 43.3552C51.0166 44.2671 52.8313 45.7533 54.3346 47.6667M27.668 47.6667C30.2633 44.3634 33.7869 42.3333 37.668 42.3333C41.5491 42.3333 45.0726 44.3634 47.668 47.6667M43.668 31C43.668 34.3137 40.9817 37 37.668 37C34.3543 37 31.668 34.3137 31.668 31C31.668 27.6863 34.3543 25 37.668 25C40.9817 25 43.668 27.6863 43.668 31Z" stroke="white" stroke-width="2" stroke-linecap="round" stroke-linejoin="round"/>
</g>
</g>
<defs>
<filter id="filter0_d_5333_97450" x="0" y="0" width="82" height="82" filterUnits="userSpaceOnUse" color-interpolation-filters="sRGB">
<feFlood flood-opacity="0" result="BackgroundImageFix"/>
<feColorMatrix in="SourceAlpha" type="matrix" values="0 0 0 0 0 0 0 0 0 0 0 0 0 0 0 0 0 0 127 0" result="hardAlpha"/>
<feOffset dy="4"/>
<feGaussianBlur stdDeviation="10"/>
<feComposite in2="hardAlpha" operator="out"/>
<feColorMatrix type="matrix" values="0 0 0 0 0.0352941 0 0 0 0 0.462745 0 0 0 0 0.968627 0 0 0 0.32 0"/>
<feBlend mode="normal" in2="BackgroundImageFix" result="effect1_dropShadow_5333_97450"/>
<feBlend mode="normal" in="SourceGraphic" in2="effect1_dropShadow_5333_97450" result="shape"/>
</filter>
</defs>
</svg>
