<svg width="82" height="82" viewBox="0 0 82 82" fill="none" xmlns="http://www.w3.org/2000/svg">
<g filter="url(#filter0_d_5333_97457)">
<rect x="20" y="16" width="42" height="42" rx="8" fill="#FA9F42"/>
<g opacity="0.8">
<path d="M40.3346 27.6667H40.9138C44.9768 27.6667 47.0083 27.6667 47.7795 28.3965C48.4461 29.0272 48.7415 29.9565 48.5615 30.8564C48.3533 31.8974 46.6948 33.0706 43.3777 35.4168L37.9583 39.25C34.6412 41.5963 32.9826 42.7694 32.7744 43.8105C32.5944 44.7104 32.8899 45.6396 33.5565 46.2704C34.3276 47.0001 36.3591 47.0001 40.4221 47.0001H41.668M35.668 27.6667C35.668 29.8759 33.8771 31.6667 31.668 31.6667C29.4588 31.6667 27.668 29.8759 27.668 27.6667C27.668 25.4576 29.4588 23.6667 31.668 23.6667C33.8771 23.6667 35.668 25.4576 35.668 27.6667ZM54.3346 46.3334C54.3346 48.5426 52.5438 50.3334 50.3346 50.3334C48.1255 50.3334 46.3346 48.5426 46.3346 46.3334C46.3346 44.1243 48.1255 42.3334 50.3346 42.3334C52.5438 42.3334 54.3346 44.1243 54.3346 46.3334Z" stroke="white" stroke-width="2" stroke-linecap="round" stroke-linejoin="round"/>
</g>
</g>
<defs>
<filter id="filter0_d_5333_97457" x="0" y="0" width="82" height="82" filterUnits="userSpaceOnUse" color-interpolation-filters="sRGB">
<feFlood flood-opacity="0" result="BackgroundImageFix"/>
<feColorMatrix in="SourceAlpha" type="matrix" values="0 0 0 0 0 0 0 0 0 0 0 0 0 0 0 0 0 0 127 0" result="hardAlpha"/>
<feOffset dy="4"/>
<feGaussianBlur stdDeviation="10"/>
<feComposite in2="hardAlpha" operator="out"/>
<feColorMatrix type="matrix" values="0 0 0 0 0.972549 0 0 0 0 0.772549 0 0 0 0 0.0745098 0 0 0 0.32 0"/>
<feBlend mode="normal" in2="BackgroundImageFix" result="effect1_dropShadow_5333_97457"/>
<feBlend mode="normal" in="SourceGraphic" in2="effect1_dropShadow_5333_97457" result="shape"/>
</filter>
</defs>
</svg>
